<?xml version="1.0" encoding="UTF-8"?>
<svg id="Layer_2" data-name="Layer 2" xmlns="http://www.w3.org/2000/svg" viewBox="0 0 1314.98 369.2">
  <defs>
    <style>
      .cls-1 {
        fill: #057eff;
      }
      .cls-2 {
        fill: #090456;
      }
    </style>
  </defs>
  <g id="Camada_1" data-name="Camada 1">
    <g>
      <path class="cls-2" d="m420.98,169.78v30.1h52.71v21.15h-52.71v41.49h-26.36v-113.88h86.06v21.15h-59.71Zm77.6-21.15h26.36v92.41h57.1v21.47h-83.46v-113.88Zm89.32,56.94c0-33.84,26.36-58.89,62.31-58.89s62.31,24.89,62.31,58.89-26.52,58.89-62.31,58.89-62.31-25.05-62.31-58.89Zm97.94,0c0-21.64-15.29-36.44-35.63-36.44s-35.63,14.8-35.63,36.44,15.29,36.44,35.63,36.44,35.63-14.8,35.63-36.44Zm39.37,0c0-34.33,26.36-58.89,61.82-58.89,19.69,0,36.12,7.16,46.85,20.17l-16.92,15.62c-7.65-8.79-17.25-13.34-28.63-13.34-21.31,0-36.44,14.97-36.44,36.44s15.13,36.44,36.44,36.44c11.39,0,20.99-4.55,28.63-13.5l16.92,15.62c-10.74,13.18-27.17,20.34-47.02,20.34-35.3,0-61.66-24.57-61.66-58.89Zm167.9,12.2l-15.29,15.94v28.8h-26.19v-113.88h26.19v53.2l50.43-53.2h29.28l-47.18,50.76,49.95,63.12h-30.75l-36.44-44.74Z"/>
      <g>
        <path class="cls-1" d="m965.84,214.68c0-39.53,29.28-68.33,71.1-68.33,34.98,0,56.62,20.66,56.62,50.11,0,39.53-29.28,68.33-71.09,68.33-34.98,0-56.62-20.66-56.62-50.11Zm95.17-16.27c0-15.13-9.76-25.38-26.84-25.38-22.29,0-35.79,18.22-35.79,39.7,0,15.13,9.76,25.38,26.84,25.38,22.29,0,35.79-18.22,35.79-39.7Z"/>
        <path class="cls-1" d="m1148.55,173.52l-5.04,25.05h50.27l-5.04,24.89h-50.11l-7.81,39.04h-32.21l22.78-113.88h89.15l-5.04,24.89h-56.94Z"/>
        <path class="cls-1" d="m1253,173.52l-5.04,25.05h50.27l-5.04,24.89h-50.11l-7.81,39.04h-32.21l22.78-113.88h89.15l-5.04,24.89h-56.94Z"/>
      </g>
    </g>
    <path class="cls-1" d="m182.63,216.98l29.78-19.18-33.2,10.88-75.89-34.11-6.69-38.12,56.23,17.24-58.91-32.63-8.69-50.16,49.49,24.08-52.84-43.47L72.55,0l209.23,146.47-20.07-19.63c3.69-1.24,8.04-3.38,14.74-7.43,8.1-4.91,17.52-12,31.66-11.8,19.05.26,26.59,10.05,36.07,18.96,8.8,8.26,22.29,15.91,22.66,16.57-11.17,2.13-24.39,2.21-35.66,6.86-50.6,20.85-88.45,46.54-120.18,74.74-19.49,17.32-32.85,30.99-47.49,45.48-9.11,9.02-23.08,21.99-29.43,31.44l48.54-84.67Zm-.38-192.9l9.36,50.83,64.88,46.15,32.77-22.07L182.24,24.08Z"/>
    <path class="cls-2" d="m289.47,198.39c.59,5.16.9,10.38.9,15.65,0,36.12-14.06,70.07-39.6,95.61-25.54,25.54-59.49,39.6-95.61,39.6s-70.07-14.06-95.61-39.6c-25.54-25.54-39.6-59.49-39.6-95.61s14.06-70.07,39.6-95.61c4-4,8.21-7.72,12.61-11.15l-4.47-21.41C26.83,113.81,0,160.78,0,214.03c0,85.69,69.47,155.16,155.16,155.16s155.16-69.47,155.16-155.16c0-9.26-.81-18.32-2.37-27.13-6.43,3.68-12.58,7.52-18.49,11.48Z"/>
  </g>
</svg>