<svg width="452" height="349" viewBox="0 0 452 349" fill="none" xmlns="http://www.w3.org/2000/svg">
<path d="M64.887 78.2598L84.3662 81.7715L63.3723 136.567L63.2531 136.878L63.3444 137.199L84.5808 211.741L47.3019 239.402L1.1135 90.843L70.3403 5.19821C70.5282 5.32192 70.7491 5.46687 71.0007 5.63134C71.9124 6.22739 73.2279 7.08002 74.8452 8.10774C78.0791 10.1628 82.5226 12.9198 87.3584 15.7261C92.1918 18.5309 97.4298 21.3924 102.25 23.6517C107.04 25.8968 111.521 27.5981 114.806 28.0025L114.996 28.0259L115.181 27.9775L217.292 1.26393L224.976 79.1685H226.967L234.651 1.26393L336.761 27.9775L336.948 28.0262L337.139 28.0022C340.422 27.5904 344.903 25.886 349.693 23.6396C354.513 21.3791 359.751 18.5186 364.584 15.7156C369.42 12.9112 373.863 10.1568 377.097 8.10401C378.714 7.07741 380.03 6.22579 380.942 5.63048C381.194 5.46604 381.415 5.32115 381.603 5.19752L450.886 90.8149L404.698 239.374L367.419 211.713L388.656 137.17L388.747 136.85L388.628 136.538L367.634 81.7431L387.113 78.2314L410.156 127.662L411.418 130.37L412.04 127.448L419.839 90.8096L419.947 90.3024L419.595 89.9219L376.743 43.6555L376.236 43.1076L375.566 43.4386L348.57 56.7874L347.749 57.1935L348.081 58.0471L378.84 136.944L348.215 243.047L292.927 192.084L291.457 193.43L347.522 266.17L301.763 343.585L232.923 279.243L240.412 229.253L250.788 236.114L251.35 236.485L251.905 236.104L277.216 218.751L278.127 218.127L277.416 217.282L257.933 194.135L257.633 193.779H257.167H194.832H194.367L194.067 194.135L174.584 217.282L173.873 218.127L174.784 218.751L200.095 236.104L200.65 236.485L201.212 236.114L211.588 229.253L219.077 279.243L150.236 343.585L104.45 266.169L160.515 193.43L159.045 192.084L103.772 243.033L73.1598 136.972L103.919 58.0755L104.251 57.2219L103.43 56.8158L76.4336 43.467L75.7642 43.136L75.2567 43.6839L32.405 89.9503L32.0526 90.3308L32.1606 90.838L39.9596 127.476L40.5817 130.399L41.844 127.691L64.887 78.2598ZM226.616 136.132L225.971 135.588L225.326 136.132L186.731 168.709L187.855 170.351L225.971 149.594L264.088 170.351L265.212 168.709L226.616 136.132ZM104.77 132.323L103.33 132.984L104.545 134L143.512 166.576L144.076 167.048L144.694 166.65L195.345 134.073L197.598 132.625L194.947 132.243L126.755 122.416L126.464 122.374L126.196 122.496L104.77 132.323ZM347.398 134L348.613 132.984L347.173 132.323L325.747 122.496L325.479 122.374L325.188 122.416L256.996 132.243L254.345 132.625L256.598 134.073L307.249 166.65L307.867 167.048L308.431 166.576L347.398 134ZM173.586 336.874L225.971 290.577L278.357 336.874L225.971 347.978L173.586 336.874Z" stroke="#AD61FF" stroke-width="2"/>
</svg>
