<svg width="450" height="349" viewBox="0 0 450 349" fill="none" xmlns="http://www.w3.org/2000/svg">
<path d="M102.803 244.865L102.787 244.879L102.816 244.908L102.803 244.865Z" fill="#202333"/>
<path fill-rule="evenodd" clip-rule="evenodd" d="M159.016 192.819L102.803 244.865L71.7861 136.925L102.531 57.7122L75.6542 44.3634L32.992 90.6298L40.7565 127.268L64.0216 77.139L85.3527 81.0016L64.0216 136.925L85.3527 212.132L46.5586 241.045L0 90.6298L69.8237 3.86263C69.8237 3.86263 102.019 25.4763 114.42 27.01L217.207 0L224.972 79.0703L232.736 0L335.523 27.01C347.924 25.4479 380.119 3.86263 380.119 3.86263L450 90.6014L403.441 241.017L364.647 212.104L385.978 136.896L364.647 80.9732L385.978 77.1106L409.243 127.24L417.008 90.6014L374.346 44.335L347.469 57.6838L378.214 136.896L347.184 244.879L290.956 192.819L347.184 266.095L300.654 345.166L230.83 279.615L238.595 227.554L250.228 235.28L275.427 217.926L256.03 194.779H193.97L174.573 217.926L199.772 235.28L211.405 227.554L219.17 279.615L149.346 345.166L102.787 266.095L159.016 192.819ZM186.547 169.473L224.972 136.896L263.396 169.473L224.972 148.456L186.547 169.473ZM143.515 165.809L104.721 133.232L126.052 123.405L193.942 133.232L143.515 165.809ZM306.428 165.809L345.222 133.232L323.891 123.405L256.001 133.232L306.428 165.809Z" fill="#202333"/>
<path d="M224.972 349L279.266 337.441L224.972 289.243L170.677 337.441L224.972 349Z" fill="#202333"/>
</svg>
