<svg width="450" height="349" viewBox="0 0 450 349" fill="none" xmlns="http://www.w3.org/2000/svg">
<path d="M64.6035 78.2606L83.9889 81.771L63.0873 136.568L62.969 136.878L63.0596 137.197L84.2026 211.742L47.0955 239.398L1.11258 90.8423L70.0304 5.20075C70.2164 5.32366 70.4344 5.46737 70.6824 5.63023C71.5901 6.22628 72.8998 7.07893 74.51 8.10666C77.7296 10.1617 82.1535 12.9188 86.968 15.7251C91.78 18.53 96.995 21.3915 101.794 23.651C106.563 25.896 111.026 27.5978 114.297 28.0024L114.488 28.0261L114.674 27.9772L216.327 1.26534L223.976 79.168H225.967L233.617 1.26534L335.269 27.9772L335.456 28.0264L335.648 28.0022C338.919 27.5902 343.38 25.8853 348.149 23.6389C352.948 21.3782 358.163 18.5177 362.975 15.7146C367.789 12.9101 372.213 10.1557 375.433 8.10293C377.043 7.07632 378.353 6.22469 379.26 5.62937C379.508 5.46654 379.727 5.32288 379.913 5.20005L448.887 90.8142L402.905 239.369L365.797 211.714L386.94 137.169L387.031 136.85L386.913 136.54L366.011 81.7425L385.397 78.2322L408.336 127.661L409.6 130.382L410.222 127.447L417.986 90.8087L418.093 90.3033L417.743 89.9235L375.081 43.6572L374.573 43.1059L373.901 43.4394L347.024 56.7882L346.206 57.1944L346.536 58.0457L377.16 136.944L346.672 243.042L291.635 192.085L290.162 193.428L345.981 266.169L300.427 343.581L231.897 279.244L239.352 229.258L249.674 236.113L250.238 236.487L250.795 236.103L275.994 218.75L276.899 218.126L276.193 217.284L256.796 194.137L256.496 193.779H256.03H193.97H193.504L193.204 194.137L173.807 217.284L173.101 218.126L174.006 218.75L199.205 236.103L199.762 236.487L200.326 236.113L210.648 229.258L218.103 279.244L149.573 343.581L103.991 266.169L159.809 193.428L158.337 192.085L103.316 243.027L72.8403 136.972L103.464 58.0741L103.794 57.2228L102.976 56.8166L76.099 43.4678L75.4273 43.1343L74.919 43.6856L32.2569 89.9519L31.9067 90.3317L32.0138 90.8371L39.7783 127.475L40.4004 130.411L41.6636 127.689L64.6035 78.2606ZM225.618 136.133L224.972 135.585L224.325 136.133L185.901 168.71L187.027 170.35L224.972 149.595L262.916 170.35L264.043 168.71L225.618 136.133ZM104.303 132.324L102.87 132.984L104.078 133.998L142.872 166.575L143.438 167.05L144.058 166.649L194.485 134.072L196.725 132.625L194.085 132.243L126.196 122.416L125.903 122.373L125.634 122.497L104.303 132.324ZM345.865 133.998L347.073 132.984L345.64 132.324L324.309 122.497L324.04 122.373L323.748 122.416L255.858 132.243L253.218 132.625L255.459 134.072L305.885 166.649L306.505 167.05L307.071 166.575L345.865 133.998ZM172.821 336.875L224.972 290.58L277.122 336.875L224.972 347.978L172.821 336.875Z" stroke="#627BFF" stroke-width="2"/>
</svg>
