<svg width="338" height="174" viewBox="0 0 338 174" fill="none" xmlns="http://www.w3.org/2000/svg">
<g clip-path="url(#clip0_87_65)">
<path d="M142.791 141H167.072C167.072 141 172.703 146.183 173.285 146.822H148.68C144.801 143.046 142.529 141 142.791 141ZM156.602 149.01H147.564C146.767 152.024 145.163 157.502 142.534 167.201C143.116 167.844 145.402 170.104 149.391 173.986H166.604C166.738 173.361 167.344 171.096 168.418 167.201H151.634L156.597 149.01H156.602Z" fill="#E5E5E5"/>
<path d="M196.926 141C199.241 143.27 201.527 145.511 203.784 147.718C199.031 165.26 197.938 168.846 197.805 169.446H189.267L192.899 155.876H184.361L180.73 169.446H171.94L177.552 149.015H194.75L196.926 141ZM177.738 146.822H186.819C187.139 145.625 187.635 143.799 188.389 141H171.424C171.467 141.1 177.738 146.822 177.738 146.822Z" fill="#E5E5E5"/>
<path d="M109.869 141C112.183 143.27 114.469 145.511 116.726 147.718C111.973 165.26 110.88 168.846 110.747 169.446H102.209L105.841 155.876H97.3036L93.672 169.446H84.8818L90.4938 149.015H107.693L109.869 141ZM90.6799 146.822H99.7613C100.081 145.625 100.577 143.799 101.331 141H84.5907C84.6336 141.1 90.6799 146.822 90.6799 146.822Z" fill="#E5E5E5"/>
<path d="M224.323 149.068L224.318 149.091H207.134L201.484 169.446H210.269L213.901 155.876H222.438L218.807 169.446H227.482C227.616 168.836 228.828 164.335 231.114 155.943C231.114 155.824 229.993 154.68 227.754 152.515C227.917 152.353 229.644 151.232 232.932 149.158L233.424 147.718C231.166 145.511 228.881 143.27 226.561 141H201.484C201.527 141.1 203.493 143.046 207.373 146.822H224.944L224.328 149.063L224.323 149.068Z" fill="#E5E5E5"/>
<path d="M250.212 162.709H241.522C244.032 153.349 243.813 153.902 243.903 153.736C244.471 151.49 244.901 150.002 245.196 149.091H236.421C235.919 150.889 234.903 154.556 232.698 162.714C233.29 163.367 235.619 165.67 239.675 169.618H248.227L257.957 162.714C258.32 161.484 258.869 159.758 262.29 147.041C259.995 144.791 258.501 143.313 256.149 141.005H230.627C230.67 141.11 232.636 143.05 236.511 146.827H254.593L250.202 162.714L250.212 162.709Z" fill="#E5E5E5"/>
<path d="M274.278 149.087C273.309 152.372 271.343 159.205 268.609 169.442H259.642L265.297 149.087H274.283H274.278ZM282.596 149.087L276.984 169.442H285.822L291.415 149.087H282.596ZM294.082 169.442H302.319C302.452 168.846 308.193 147.866 308.193 147.713C308.193 147.713 303.65 143.265 301.336 140.995H292.865C292.297 141.296 290.527 142.411 287.554 144.352C287.511 144.323 286.366 143.203 284.123 140.995H260.071C260.114 141.095 262.08 143.041 265.96 146.817H292.245H296.153H300.109H300.372L294.087 169.437L294.082 169.442Z" fill="#E5E5E5"/>
<path d="M316.573 162.828H333.786C332.712 166.724 332.106 168.989 331.973 169.613H306.089L311.672 149.01H320.233C320.219 149.077 320.205 149.139 320.186 149.211C320.205 149.144 320.229 149.077 320.248 149.01H328.88C328.79 149.468 328.174 151.795 327.062 155.805H318.458L316.578 162.828H316.573ZM311.429 146.822H338C337.566 146.345 336.172 145.067 331.992 141H305.478C305.521 141.105 307.353 142.85 311.429 146.822Z" fill="#E5E5E5"/>
<path d="M136.488 146.836H121.012C121.012 146.836 114.765 141.086 114.727 141H138.482L144.175 146.822C140.09 161.531 138.497 168.941 138.377 169.442H130.164L133.954 155.824H126.614L122.825 169.442H114.727L120.41 149.01H135.877L136.488 146.836Z" fill="#E5E5E5"/>
<path d="M25.0012 146.822H7.78333C7.78333 146.822 0.0429491 141.1 0 141H26.7287L32.9801 147.051C28.2414 164.116 25.9556 173.423 25.822 174.005H17.1701L22.3574 155.876H13.8392L8.65186 174.005H0L7.20591 149.029H24.4094L25.0012 146.822Z" fill="#E5E5E5"/>
<path d="M77.5088 155.872H68.69L64.5668 169.442H56.5926L62.6246 149.025H78.5969L79.3795 146.822H63.2736C63.2736 146.822 57.8095 141.086 57.7666 141H80.0524L85.9937 146.822L84.9868 150.298L77.5088 155.872Z" fill="#E5E5E5"/>
<path d="M30.8088 141H46.2944L44.7291 146.822H37.0603L30.8088 141ZM40.0572 163.753L44.1469 149.01H36.669L31.0379 169.442H53.2951C53.4096 168.917 53.9298 167.02 54.8556 163.753H40.0572Z" fill="#E5E5E5"/>
<path d="M170.747 173.986L171.143 172.555H335.022L336.635 173.986H170.747Z" fill="#E5E5E5"/>
<path d="M30.4461 173.986L30.909 172.555H142.529L144.228 173.986H30.4461Z" fill="#E5E5E5"/>
<path fill-rule="evenodd" clip-rule="evenodd" d="M144.966 70.6897L124.466 89.7759L113.155 50.1897L124.362 21.1549L114.569 16.2586L99.0172 33.2241L101.845 46.6552L110.328 28.2759L118.103 29.6897L110.328 50.1897L118.103 77.7586L103.966 88.3621L87 33.2241L112.448 1.41379C112.448 1.41379 124.183 9.33103 128.707 9.89655L166.172 0L169 28.9828L171.828 0L209.293 9.89655C213.817 9.33103 225.552 1.41379 225.552 1.41379L251 33.2241L234.034 88.3621L219.897 77.7586L227.672 50.1897L219.897 29.6897L227.672 28.2759L236.155 46.6552L238.983 33.2241L223.431 16.2586L213.638 21.1549L224.845 50.1897L213.534 89.7759L193.034 70.6897L213.534 97.5517L196.569 126.534L171.121 102.5L173.948 83.4138L178.19 86.2414L187.379 79.8793L180.31 71.3966H157.69L150.621 79.8793L159.81 86.2414L164.052 83.4138L166.879 102.5L141.431 126.534L124.466 97.5517L144.966 70.6897ZM154.999 62.1314L169 50.1897L183.001 62.1314L169 54.431L154.999 62.1314ZM139.31 60.7931L125.172 48.8466L132.948 45.2414L157.69 48.8466L139.31 60.7931ZM198.69 60.7931L212.828 48.8466L205.052 45.2414L180.31 48.8466L198.69 60.7931Z" fill="#E5E5E5"/>
<path d="M169 127.948L188.793 123.707L169 106.034L149.207 123.707L169 127.948Z" fill="#E5E5E5"/>
</g>
<defs>
<clipPath id="clip0_87_65">
<rect width="338" height="174.005" fill="white"/>
</clipPath>
</defs>
</svg>
