<?xml version="1.0" encoding="UTF-8"?>
<svg id="Layer_2" data-name="Layer 2" xmlns="http://www.w3.org/2000/svg" viewBox="0 0 377.7 294.67">
  <defs>
    <style>
      .cls-1 {
        fill: #ededed;
        fill-rule: evenodd;
        stroke-width: 0px;
      }
    </style>
  </defs>
  <g id="AlphaChrome_copy" data-name="AlphaChrome copy">
    <path class="cls-1" d="m133.5,162.8l-47.21,43.96-26.05-91.17,25.81-66.87-22.55-11.28-35.82,39.07,6.51,30.93,19.54-42.33,17.91,3.26-17.91,47.21,17.91,63.49-32.56,24.42L0,76.52,58.61,3.26s27.02,18.23,37.44,19.54L182.33,0l6.51,66.75L195.36,0l86.28,22.79c10.42-1.3,37.44-19.54,37.44-19.54l58.61,73.26-39.07,126.98-32.56-24.42,17.91-63.49-17.91-47.21,17.91-3.26,19.54,42.33,6.51-30.93-35.82-39.07-22.55,11.28,25.81,66.87-26.05,91.17-47.21-43.96,47.21,61.86-39.07,66.75-58.61-55.35,6.51-43.96,9.77,6.51,21.16-14.65-16.28-19.54h-52.09l-16.28,19.54,21.16,14.65,9.77-6.51,6.51,43.96-58.61,55.35-39.07-66.75,47.21-61.86Zm23.11-19.71l32.24-27.5,32.24,27.5-32.24-17.73-32.24,17.73Zm-36.13-3.08l-32.56-27.51,17.91-8.3,56.98,8.3-42.33,27.51Zm136.75,0l32.56-27.51-17.91-8.3-56.98,8.3,42.33,27.51Zm-68.38,154.66l45.58-9.77-45.58-40.7-45.58,40.7,45.58,9.77Z"/>
  </g>
</svg>