<svg width="164" height="128" viewBox="0 0 164 128" fill="none" xmlns="http://www.w3.org/2000/svg">
<path fill-rule="evenodd" clip-rule="evenodd" d="M57.9655 70.6897L37.4655 89.7759L26.1552 50.1897L37.3616 21.1549L27.569 16.2586L12.0172 33.2241L14.8448 46.6552L23.3276 28.2759L31.1034 29.6897L23.3276 50.1897L31.1034 77.7586L16.9655 88.3621L0 33.2241L25.4483 1.41379C25.4483 1.41379 37.1828 9.33103 41.7069 9.89655L79.1724 0L82 28.9828L84.8276 0L122.293 9.89655C126.817 9.33103 138.552 1.41379 138.552 1.41379L164 33.2241L147.034 88.3621L132.897 77.7586L140.672 50.1897L132.897 29.6897L140.672 28.2759L149.155 46.6552L151.983 33.2241L136.431 16.2586L126.638 21.1549L137.845 50.1897L126.534 89.7759L106.034 70.6897L126.534 97.5517L109.569 126.534L84.1207 102.5L86.9483 83.4138L91.1897 86.2414L100.379 79.8793L93.3103 71.3966H70.6897L63.6207 79.8793L72.8103 86.2414L77.0517 83.4138L79.8793 102.5L54.431 126.534L37.4655 97.5517L57.9655 70.6897ZM67.9993 62.1314L82 50.1897L96.0007 62.1314L82 54.431L67.9993 62.1314ZM52.3103 60.7931L38.1724 48.8466L45.9483 45.2414L70.6896 48.8466L52.3103 60.7931ZM111.69 60.7931L125.828 48.8466L118.052 45.2414L93.3103 48.8466L111.69 60.7931Z" fill="#323232"/>
<path d="M82 127.948L101.793 123.707L82 106.034L62.2069 123.707L82 127.948Z" fill="#323232"/>
</svg>
