<svg width="166" height="129" viewBox="0 0 166 129" fill="none" xmlns="http://www.w3.org/2000/svg">
<path fill-rule="evenodd" clip-rule="evenodd" d="M58.9655 70.6897L38.4655 89.7759L27.1552 50.1897L38.3616 21.1549L28.569 16.2586L13.0172 33.2241L15.8448 46.6552L24.3276 28.2759L32.1034 29.6897L24.3276 50.1897L32.1034 77.7586L17.9655 88.3621L1 33.2241L26.4483 1.41379C26.4483 1.41379 38.1828 9.33103 42.7069 9.89655L80.1724 0L83 28.9828L85.8276 0L123.293 9.89655C127.817 9.33103 139.552 1.41379 139.552 1.41379L165 33.2241L148.034 88.3621L133.897 77.7586L141.672 50.1897L133.897 29.6897L141.672 28.2759L150.155 46.6552L152.983 33.2241L137.431 16.2586L127.638 21.1549L138.845 50.1897L127.534 89.7759L107.034 70.6897L127.534 97.5517L110.569 126.534L85.1207 102.5L87.9483 83.4138L92.1897 86.2414L101.379 79.8793L94.3103 71.3966H71.6897L64.6207 79.8793L73.8103 86.2414L78.0517 83.4138L80.8793 102.5L55.431 126.534L38.4655 97.5517L58.9655 70.6897ZM68.9993 62.1314L83 50.1897L97.0007 62.1314L83 54.431L68.9993 62.1314ZM53.3103 60.7931L39.1724 48.8466L46.9483 45.2414L71.6896 48.8466L53.3103 60.7931ZM112.69 60.7931L126.828 48.8466L119.052 45.2414L94.3103 48.8466L112.69 60.7931Z" stroke="#627BFF"/>
<path d="M83 127.948L102.793 123.707L83 106.034L63.2069 123.707L83 127.948Z" stroke="#627BFF"/>
</svg>
