<svg width="64" height="64" viewBox="0 0 64 64" fill="none" xmlns="http://www.w3.org/2000/svg">
<rect x="31.7157" width="44.8528" height="44.8528" transform="rotate(45 31.7157 0)" fill="#E8EAF0"/>
<path fill-rule="evenodd" clip-rule="evenodd" d="M26.0775 35.0182L21.4525 39.3431L18.9008 30.3729L21.429 23.7937L19.2197 22.6842L15.7111 26.5285L16.349 29.572L18.2628 25.4073L20.0171 25.7276L18.2628 30.3729L20.0171 36.62L16.8275 39.0227L12.9999 26.5285L18.7413 19.3204C18.7413 19.3204 21.3887 21.1144 22.4094 21.2426L30.8619 19L31.4999 25.5675L32.1379 19L40.5904 21.2426C41.6111 21.1144 44.2586 19.3204 44.2586 19.3204L49.9999 26.5285L46.1722 39.0227L42.9828 36.62L44.7369 30.3729L42.9828 25.7276L44.7369 25.4073L46.6507 29.572L47.2888 26.5285L43.7801 22.6842L41.5707 23.7937L44.0991 30.3729L41.5472 39.3431L36.9222 35.0182L41.5472 41.1051L37.7197 47.6724L31.9784 42.2263L32.6162 37.9014L33.5733 38.5422L35.6464 37.1005L34.0516 35.1783H28.9482L27.3534 37.1005L29.4266 38.5422L30.3835 37.9014L31.0214 42.2263L25.2801 47.6724L21.4525 41.1051L26.0775 35.0182ZM28.3412 33.0789L31.4999 30.3729L34.6587 33.0789L31.4999 31.334L28.3412 33.0789ZM24.8016 32.7756L21.612 30.0686L23.3663 29.2516L28.9482 30.0686L24.8016 32.7756ZM38.1983 32.7756L41.3879 30.0686L39.6336 29.2516L34.0516 30.0686L38.1983 32.7756Z" fill="#202333" fill-opacity="0.2"/>
<path d="M31.4432 48L35.9087 47.039L31.4432 43.0343L26.9777 47.039L31.4432 48Z" fill="#202333" fill-opacity="0.2"/>
</svg>
