<?xml version="1.0" encoding="UTF-8"?>
<svg id="Layer_2" data-name="Layer 2" xmlns="http://www.w3.org/2000/svg" viewBox="0 0 494.08 48.29">
  <defs>
    <style>
      .cls-1 {
        fill: #627bff;
        stroke-width: 0px;
      }
    </style>
  </defs>
  <g id="Layer_1-2" data-name="Layer 1">
    <g id="AlphaChrome">
      <g id="Layer_13_copy" data-name="Layer 13 copy">
        <path class="cls-1" d="M208.73,0h35.49s8.23,7.58,9.08,8.52h-35.97C211.67,3,208.35,0,208.73,0ZM228.92,11.73h-13.21c-1.16,4.41-3.51,12.42-7.35,26.61.85.94,4.19,4.25,10.02,9.93h25.16c.2-.91,1.08-4.23,2.65-9.93h-24.53l7.25-26.61h0Z"/>
        <path class="cls-1" d="M287.86,0c3.38,3.32,6.72,6.6,10.02,9.83-6.95,25.66-8.55,30.91-8.74,31.79h-12.48l5.31-19.85h-12.48l-5.31,19.85h-12.85l8.2-29.89h25.14L287.86,0ZM259.81,8.52h13.27c.47-1.75,1.19-4.42,2.3-8.52h-24.8c.06.15,9.23,8.52,9.23,8.52h0Z"/>
        <path class="cls-1" d="M160.6,0c3.38,3.32,6.72,6.6,10.02,9.83-6.95,25.66-8.55,30.91-8.74,31.79h-12.48l5.31-19.85h-12.48l-5.31,19.85h-12.85l8.2-29.89h25.14L160.6,0ZM132.55,8.52h13.27c.47-1.75,1.19-4.42,2.3-8.52h-24.47c.06.15,8.9,8.52,8.9,8.52h0Z"/>
        <path class="cls-1" d="M327.91,11.81v.03h-25.13l-8.26,29.78h12.84l5.31-19.85h12.48l-5.31,19.85h12.68c.2-.89,1.97-7.48,5.31-19.76,0-.17-1.64-1.85-4.91-5.02.24-.24,2.76-1.88,7.57-4.91l.72-2.11c-3.3-3.23-6.64-6.51-10.03-9.83h-36.66c.06.15,2.94,2.99,8.61,8.52h25.68l-.9,3.28h0Z"/>
        <path class="cls-1" d="M365.75,31.77h-12.7c3.67-13.69,3.35-12.88,3.48-13.13.83-3.29,1.46-5.46,1.89-6.79h-12.83c-.73,2.63-2.22,7.99-5.44,19.93.86.96,4.27,4.32,10.2,10.1h12.5l14.22-10.1c.53-1.8,1.33-4.32,6.33-22.93-3.36-3.29-5.54-5.46-8.98-8.83h-37.31c.06.15,2.94,2.99,8.6,8.52h26.43l-6.42,23.24h.01Z"/>
        <path class="cls-1" d="M400.93,11.84c-1.42,4.81-4.29,14.8-8.29,29.78h-13.11l8.27-29.78h13.14,0ZM413.09,11.84l-8.2,29.78h12.92l8.18-29.78h-12.89ZM429.88,41.62h12.04c.2-.87,8.59-31.57,8.59-31.79,0,0-6.64-6.51-10.02-9.83h-12.38c-.83.44-3.42,2.07-7.76,4.91-.06-.04-1.74-1.68-5.02-4.91h-35.16c.06.15,2.94,2.99,8.61,8.52h50.3l-9.19,33.09h0Z"/>
        <path class="cls-1" d="M462.76,31.94h25.16c-1.57,5.7-2.46,9.01-2.65,9.93h-37.84l8.16-30.14h12.51c-.02.1-.04.19-.07.29.03-.1.06-.2.09-.29h12.62c-.13.67-1.03,4.07-2.66,9.94h-12.58l-2.75,10.28h0ZM455.24,8.52h38.84c-.63-.7-2.67-2.57-8.78-8.52h-38.76c.06.15,2.74,2.71,8.7,8.52h0Z"/>
        <path class="cls-1" d="M199.51,8.55h-22.62S167.76.13,167.7,0h34.73l8.32,8.52c-5.97,21.52-8.3,32.36-8.48,33.09h-12.01l5.54-19.92h-10.73l-5.54,19.92h-11.84l8.31-29.89h22.61l.89-3.18Z"/>
        <path class="cls-1" d="M36.55,8.52H11.38S.06.15,0,0h39.07l9.14,8.85c-6.93,24.97-10.27,38.58-10.46,39.43h-12.65l7.58-26.52h-12.45l-7.58,26.52H0L10.53,11.75h25.15s.86-3.23.86-3.23Z"/>
        <path class="cls-1" d="M113.3,21.76h-12.89l-6.03,19.85h-11.66l8.82-29.87h23.35l1.14-3.22h-23.54S84.5.13,84.44,0h32.58l8.68,8.52-1.47,5.09s-10.93,8.15-10.93,8.15Z"/>
        <path class="cls-1" d="M45.04,0h22.64l-2.29,8.52h-11.21L45.04,0ZM58.55,33.3l5.98-21.57h-10.93l-8.23,29.89h32.54c.17-.77.93-3.54,2.28-8.32,0,0-21.63,0-21.63,0Z"/>
      </g>
      <g id="Layer_27" data-name="Layer 27">
        <polygon class="cls-1" points="249.26 48.27 250.4 44.77 488.15 44.77 492.09 48.27 249.26 48.27"/>
        <polygon class="cls-1" points="43.59 48.27 44.51 44.77 208.79 44.77 212.72 48.27 43.59 48.27"/>
      </g>
    </g>
  </g>
</svg>