<svg width="191" height="71" viewBox="0 0 191 71" fill="none" xmlns="http://www.w3.org/2000/svg">
<path d="M28.037 70.2192L28.424 68.8245H188.559L190.135 70.2192H28.037Z" fill="#202333"/>
<path d="M0.251811 37.9885H23.9776C23.9776 37.9885 29.48 43.0423 30.0489 43.6653H6.00606C2.21497 39.9831 -0.00465911 37.9885 0.251811 37.9885ZM13.7468 45.7993H4.9149C4.13616 48.7377 2.56936 54.0797 0 63.5364C0.568896 64.164 2.80251 66.3678 6.70085 70.1523H23.5206C23.6512 69.5432 24.2434 67.3348 25.2926 63.5364H8.89251L13.7421 45.7993H13.7468Z" fill="#202333"/>
<path d="M53.1498 37.9888C55.4114 40.2018 57.645 42.387 59.8507 44.5396C55.2062 61.6444 54.1384 65.1406 54.0078 65.7264H45.6656L49.2142 52.4945H40.8719L37.3233 65.7264H28.7339L34.2177 45.8042H51.0235L53.1498 37.9888ZM34.3996 43.6656H43.2734C43.5858 42.4986 44.0708 40.7179 44.8075 37.9888H28.2303C28.2723 38.0864 34.3996 43.6656 34.3996 43.6656Z" fill="#202333"/>
<path d="M79.9206 45.8554L79.9159 45.8786H63.1242L57.6031 65.7264H66.1878L69.7364 52.4945H78.0787L74.5301 65.7264H83.0076C83.1381 65.1313 84.3226 60.7424 86.5562 52.5596C86.5562 52.4434 85.4604 51.3276 83.2734 49.2168C83.4319 49.0587 85.1199 47.9661 88.3328 45.9437L88.8131 44.5396C86.6075 42.387 84.3739 40.2018 82.1076 37.9888H57.6031C57.645 38.0864 59.5662 39.9833 63.3573 43.6656H80.5268L79.9253 45.8507L79.9206 45.8554Z" fill="#202333"/>
<path d="M105.218 59.1565H96.7265C99.1793 50.0299 98.9648 50.5692 99.0534 50.4065C99.6083 48.2167 100.028 46.7661 100.317 45.8781H91.7417C91.2521 47.6309 90.2588 51.2062 88.1045 59.1611C88.6827 59.7981 90.9583 62.0437 94.9219 65.8933H103.278L112.786 59.1611C113.141 57.9616 113.677 56.2786 117.02 43.8789C114.777 41.6845 113.318 40.2432 111.019 37.9929H86.0807C86.1227 38.0952 88.0438 39.9875 91.8303 43.6697H109.499L105.209 59.1611L105.218 59.1565Z" fill="#202333"/>
<path d="M128.734 45.8737C127.787 49.0771 125.866 55.7395 123.194 65.7215H114.432L119.958 45.8737H128.738H128.734ZM136.861 45.8737L131.378 65.7215H140.014L145.479 45.8737H136.861ZM148.086 65.7215H156.134C156.265 65.1404 161.874 44.6835 161.874 44.5347C161.874 44.5347 157.435 40.1969 155.173 37.9839H146.896C146.342 38.2768 144.612 39.3647 141.706 41.257C141.664 41.2291 140.545 40.1365 138.354 37.9839H114.852C114.894 38.0815 116.815 39.9784 120.606 43.6607H146.29H150.109H153.975H154.231L148.09 65.7169L148.086 65.7215Z" fill="#202333"/>
<path d="M170.063 59.2732H186.882C185.833 63.0717 185.241 65.2801 185.111 65.8891H159.818L165.274 45.7996H173.639C173.625 45.8647 173.611 45.9251 173.593 45.9948C173.611 45.9298 173.635 45.8647 173.653 45.7996H182.089C182 46.2459 181.399 48.5148 180.312 52.4248H171.905L170.067 59.2732H170.063ZM165.036 43.6656H191C190.576 43.2006 189.214 41.9546 185.129 37.9888H159.221C159.263 38.0911 161.054 39.7927 165.036 43.6656Z" fill="#202333"/>
<path d="M132.896 0C135.215 2.26929 137.506 4.50997 139.767 6.71728C135.005 24.2566 133.91 27.8417 133.776 28.4424H125.222L128.861 14.8743H120.306L116.668 28.4424H107.86L113.483 8.01401H130.716L132.896 0ZM113.67 5.821H122.769C123.089 4.62439 123.587 2.79847 124.342 0H107.568C107.611 0.100116 113.67 5.821 113.67 5.821Z" fill="#202333"/>
<path d="M159.568 5.83531H144.061C144.061 5.83531 137.802 0.0858133 137.764 0H161.566L167.271 5.821C163.178 20.5285 161.581 27.937 161.461 28.4376H153.232L157.029 14.8219H149.675L145.878 28.4376H137.764L143.459 8.00924H158.956L159.568 5.83531Z" fill="#202333"/>
<path d="M47.861 5.82101H30.6091C30.6091 5.82101 22.8534 0.100116 22.8104 0H49.5919L55.8557 6.04984C51.1077 23.1124 48.8173 32.4184 48.6834 33H40.0144L45.212 14.8743H36.6769L31.4794 33H22.8104L30.0306 8.02832H47.2681L47.861 5.82101Z" fill="#202333"/>
<path d="M100.472 14.8695H91.6361L87.5048 28.4376H79.5149L85.5587 8.02355H101.563L102.347 5.821H86.209C86.209 5.821 80.7342 0.0858133 80.6911 0H103.021L108.974 5.821L107.965 9.29644L100.472 14.8695Z" fill="#202333"/>
<path d="M53.6802 0H69.1963L67.628 5.821H59.944L53.6802 0ZM62.9468 22.7501L67.0446 8.00924H59.5519L53.9097 28.4376H76.2108C76.3256 27.9132 76.8468 26.0157 77.7744 22.7501H62.9468Z" fill="#202333"/>
<path d="M53.3167 32.9805L53.7805 31.5503H165.621L167.323 32.9805H53.3167Z" fill="#202333"/>
</svg>
