<svg width="339" height="33" viewBox="0 0 339 33" fill="none" xmlns="http://www.w3.org/2000/svg">
<g clip-path="url(#clip0_183_852)">
<path d="M143.291 0H167.572C167.572 0 173.203 5.18292 173.785 5.82185H149.18C145.301 2.04551 143.029 0 143.291 0ZM157.102 8.0104H148.064C147.267 11.0238 145.663 16.5024 143.034 26.2007C143.616 26.8444 145.902 29.1045 149.891 32.9857H167.104C167.238 32.3611 167.844 30.0962 168.918 26.2007H152.134L157.097 8.0104H157.102Z" fill="#777D99"/>
<path d="M197.426 0C199.741 2.26961 202.027 4.51062 204.284 6.71825C199.531 24.2601 198.438 27.8457 198.305 28.4465H189.767L193.399 14.8765H184.861L181.23 28.4465H172.44L178.052 8.01517H195.25L197.426 0ZM178.238 5.82185H187.319C187.639 4.62505 188.135 2.79887 188.889 0H171.924C171.967 0.10013 178.238 5.82185 178.238 5.82185Z" fill="#777D99"/>
<path d="M110.369 0C112.683 2.26961 114.969 4.51062 117.226 6.71825C112.473 24.2601 111.38 27.8457 111.247 28.4465H102.709L106.341 14.8765H97.8036L94.172 28.4465H85.3818L90.9938 8.01517H108.193L110.369 0ZM91.1799 5.82185H100.261C100.581 4.62505 101.077 2.79887 101.831 0H85.0907C85.1336 0.10013 91.1799 5.82185 91.1799 5.82185Z" fill="#777D99"/>
<path d="M224.823 8.06762L224.818 8.09146H207.634L201.984 28.4465H210.769L214.401 14.8765H222.938L219.307 28.4465H227.982C228.116 27.8362 229.328 23.3351 231.614 14.9432C231.614 14.824 230.493 13.6797 228.254 11.515C228.417 11.3528 230.144 10.2323 233.432 8.15821L233.924 6.71825C231.666 4.51062 229.381 2.26961 227.061 0H201.984C202.027 0.10013 203.993 2.04551 207.873 5.82185H225.444L224.828 8.06285L224.823 8.06762Z" fill="#777D99"/>
<path d="M250.712 21.7091H242.022C244.532 12.3494 244.313 12.9025 244.403 12.7356C244.971 10.4898 245.401 9.00217 245.696 8.09146H236.921C236.419 9.88903 235.403 13.5557 233.198 21.7139C233.79 22.3671 236.119 24.6701 240.175 28.6181H248.727L258.457 21.7139C258.82 20.4837 259.369 18.7577 262.79 6.04118C260.495 3.79064 259.001 2.31253 256.649 0.00476837H231.127C231.17 0.109667 233.136 2.05028 237.011 5.82661H255.093L250.702 21.7139L250.712 21.7091Z" fill="#777D99"/>
<path d="M274.778 8.08669C273.809 11.3719 271.843 18.2046 269.109 28.4417H260.142L265.797 8.08669H274.783H274.778ZM283.096 8.08669L277.484 28.4417H286.322L291.915 8.08669H283.096ZM294.582 28.4417H302.819C302.952 27.8457 308.693 6.86606 308.693 6.71348C308.693 6.71348 304.15 2.26485 301.836 -0.00476837H293.365C292.797 0.295622 291.027 1.41136 288.054 3.35197C288.011 3.32336 286.866 2.20286 284.623 -0.00476837H260.571C260.614 0.0953617 262.58 2.04075 266.46 5.81708H292.745H296.653H300.609H300.872L294.587 28.4369L294.582 28.4417Z" fill="#777D99"/>
<path d="M317.073 21.8283H334.286C333.213 25.7239 332.606 27.9887 332.473 28.6133H306.589L312.172 8.0104H320.733C320.719 8.07716 320.705 8.13914 320.686 8.21066C320.705 8.14391 320.729 8.07716 320.748 8.0104H329.38C329.29 8.46814 328.674 10.795 327.562 14.8049H318.958L317.078 21.8283H317.073ZM311.929 5.82185H338.5C338.066 5.34504 336.672 4.06719 332.492 0H305.978C306.021 0.104898 307.853 1.85002 311.929 5.82185Z" fill="#777D99"/>
<path d="M136.988 5.83615H121.512C121.512 5.83615 115.265 0.0858258 115.227 0H138.982L144.675 5.82185C140.59 20.5314 138.997 27.941 138.877 28.4417H130.664L134.454 14.824H127.114L123.325 28.4417H115.227L120.91 8.0104H136.377L136.988 5.83615Z" fill="#777D99"/>
<path d="M25.5012 5.82185H8.28333C8.28333 5.82185 0.542949 0.10013 0.5 0H27.2287L33.4801 6.05072C28.7414 23.1157 26.4556 32.4231 26.322 33.0048H17.6701L22.8574 14.8765H14.3392L9.15186 33.0048H0.5L7.70591 8.02948H24.9094L25.5012 5.82185Z" fill="#777D99"/>
<path d="M78.0088 14.8717H69.19L65.0668 28.4417H57.0926L63.1246 8.02471H79.0969L79.8795 5.82185H63.7736C63.7736 5.82185 58.3095 0.0858258 58.2666 0H80.5524L86.4937 5.82185L85.4868 9.29779L78.0088 14.8717Z" fill="#777D99"/>
<path d="M31.3088 0H46.7944L45.2291 5.82185H37.5603L31.3088 0ZM40.5572 22.7534L44.6469 8.0104H37.169L31.5379 28.4417H53.7951C53.9096 27.9172 54.4298 26.0195 55.3556 22.7534H40.5572Z" fill="#777D99"/>
<path d="M171.247 32.9857L171.643 31.5553H335.522L337.135 32.9857H171.247Z" fill="#777D99"/>
<path d="M30.9462 32.9857L31.409 31.5553H143.029L144.728 32.9857H30.9462Z" fill="#777D99"/>
</g>
<defs>
<clipPath id="clip0_183_852">
<rect width="338" height="33" fill="white" transform="translate(0.5)"/>
</clipPath>
</defs>
</svg>
