<svg width="309" height="240" viewBox="0 0 309 240" fill="none" xmlns="http://www.w3.org/2000/svg">
<path fill-rule="evenodd" clip-rule="evenodd" d="M71.0996 168.145L109.49 132.557L71.0996 182.644L102.871 236.684L150.528 191.87L145.233 156.282L137.29 161.555L120.081 149.692L133.319 133.875H175.68L188.919 149.692L171.71 161.555L163.766 156.282L158.472 191.87L206.129 236.684L237.899 182.644L199.509 132.557L237.899 168.145L259.082 94.3331L238.094 40.1952L256.434 31.0656L285.558 62.6992L280.262 87.7427L264.376 53.4729L249.815 56.1091L264.376 94.3331L249.815 145.738L276.29 165.509L308.062 62.6992L260.406 3.38615C260.406 3.38615 238.429 18.1485 229.957 19.2031L159.796 0.75L154.5 54.791L149.204 0.75L79.0426 19.2031C70.5702 18.1485 48.5949 3.38615 48.5949 3.38615L0.9375 62.6992L32.709 165.509L59.1853 145.738L44.6234 94.3331L59.1853 56.1091L44.6234 53.4729L28.7376 87.7427L23.4423 62.6992L52.5663 31.0656L70.9051 40.1952L49.9187 94.3331L71.0996 168.145ZM154.5 94.3331L128.281 116.599L154.5 102.241L180.72 116.599L154.5 94.3331ZM72.4235 91.8288L98.8997 114.104L133.319 91.8288L86.9855 85.1066L72.4235 91.8288ZM236.577 91.8288L210.101 114.104L175.68 91.8288L222.015 85.1066L236.577 91.8288Z" fill="#202333"/>
<path d="M191.567 231.413L154.5 239.32L117.433 231.413L154.5 198.46L191.567 231.413Z" fill="#202333"/>
</svg>
