<svg width="198" height="210" viewBox="0 0 198 210" fill="none" xmlns="http://www.w3.org/2000/svg">
<g clip-path="url(#clip0_57_143)">
<g opacity="0.1">
<path d="M119.738 169.059V210.029H78.6913V169.059H119.738ZM87.2526 177.604V201.481H111.174V177.604H87.2526ZM106.483 189.665L99.2164 182.412L91.9496 189.665L99.2164 196.918L106.483 189.665Z" fill="#627BFF"/>
<path d="M63.9028 169.298H10.9987L19.4469 177.604H41.6184H46.3187H59.2832L65.3264 183.633V201.51H41.6184V187.123L47.2258 181.829H32.3889V210.029H74.104V179.483L63.9028 169.298Z" fill="#627BFF"/>
<path d="M134.268 169.178H187.173L178.724 177.485H156.55H151.849H138.885L132.845 183.514V201.39H156.55V189.968L139.889 189.965L150.945 181.526H165.779V209.906H124.067V179.36L134.268 169.178Z" fill="#627BFF"/>
<path d="M-0.00311279 136H24.625C24.625 136 30.4358 141.362 31.0556 141.906H5.0652C5.0652 141.906 0.0420823 136.087 -0.00311279 136ZM14.766 144.126H5.13945C4.2872 146.675 0.571511 158.172 0.571511 158.172L7.06993 164.845H25.629L27.6821 157.489H10.4241L14.766 144.126ZM54.796 136C57.1461 138.301 59.4672 140.572 61.7593 142.812C56.9363 160.601 55.8258 164.239 55.687 164.845H47.0224L50.7091 151.083H42.0413L38.3546 164.845H29.4318L35.1296 144.123H52.5911L54.7992 136H54.796ZM35.3137 141.906H44.5302C44.8563 140.695 45.3567 138.839 46.125 136H28.9024C28.9476 136.103 35.3104 141.906 35.3104 141.906H35.3137ZM82.6071 144.181L82.6007 144.204H65.1554L59.422 164.845H68.3416L72.0282 151.083H80.696L77.0094 164.845H85.8128C85.9483 164.223 87.1783 159.66 89.4994 151.151C89.4994 151.028 88.3631 149.871 86.0872 147.677C86.255 147.51 88.0047 146.375 91.3427 144.271L91.8399 142.812C89.551 140.572 87.23 138.301 84.8766 136H59.4188C59.464 136.103 61.459 138.075 65.3942 141.906H83.2302L82.6039 144.181H82.6071ZM108.888 158.017H100.069C102.616 148.528 102.393 149.085 102.487 148.914C103.061 146.636 103.497 145.128 103.8 144.204H94.8905C94.3837 146.027 93.3507 149.746 91.1103 158.017C91.7107 158.681 94.0738 161.014 98.193 165.019H106.874L116.752 158.017C117.123 156.77 117.679 155.017 121.152 142.122C118.821 139.841 117.307 138.343 114.915 136H89.0087C89.0539 136.103 91.0489 138.075 94.9841 141.906H113.343L108.888 158.017ZM133.319 144.204C132.338 147.535 130.34 154.463 127.563 164.845H118.46L124.2 144.204H133.323H133.319ZM141.764 144.204L136.067 164.845H145.038L150.716 144.204H141.764ZM153.421 164.845H161.779C161.915 164.239 167.742 142.963 167.742 142.812C167.742 142.812 163.132 138.301 160.779 136H152.179C151.601 136.303 149.806 137.437 146.787 139.406C146.742 139.377 145.58 138.239 143.307 136H118.892C118.938 136.103 120.933 138.075 124.868 141.906H151.549C151.549 141.906 151.549 141.906 151.549 141.903H155.513L159.529 141.906H159.794L153.415 164.845H153.421ZM176.251 158.136H195.298C195.298 158.136 189.313 164.381 189.177 165.015H165.605L171.274 144.123H179.964C179.948 144.191 179.932 144.255 179.915 144.326C179.938 144.258 179.957 144.191 179.98 144.123H188.745C188.654 144.587 188.028 146.946 186.898 151.015H178.163L176.255 158.136H176.251ZM171.028 141.906H198C197.561 141.423 196.147 140.128 191.899 136H164.985C165.03 136.106 166.886 137.879 171.028 141.906Z" fill="#627BFF"/>
</g>
<path d="M87.2526 177.104H86.7526V177.604V201.481V201.981H87.2526H111.174H111.674V201.481V177.604V177.104H111.174H87.2526ZM119.238 169.559V209.529H79.1913V169.559H119.238ZM99.2164 183.118L105.775 189.665L99.2164 196.212L92.6574 189.665L99.2164 183.118Z" stroke="#627BFF" class="stroke-trace"/>
<path d="M59.6363 177.25L59.4899 177.104H59.2832H46.3187H41.6184H19.6516L12.2203 169.798H63.6959L73.604 179.69V209.529H32.8889V182.329H45.9678L41.2751 186.759L41.1184 186.907V187.123V201.51V202.01H41.6184H65.3264H65.8264V201.51V183.633V183.426L65.6796 183.279L59.6363 177.25Z" stroke="#627BFF" class="stroke-trace"/>
<path d="M138.885 176.985H138.678L138.532 177.131L132.492 183.16L132.345 183.306V183.514V201.39V201.89H132.845H156.55H157.05V201.39V189.968V189.468L156.55 189.468L141.368 189.465L151.114 182.026H165.279V209.406H124.567V179.568L134.475 169.678H185.951L178.52 176.985H156.55H151.849H138.885Z" stroke="#627BFF" class="stroke-trace"/>
<path d="M27.0235 157.989L25.2494 164.345H7.28093L1.13997 158.039L1.20858 157.826L1.64112 156.489C2.00276 155.372 2.49382 153.855 3.0115 152.259C3.96561 149.317 5.00905 146.108 5.50005 144.626H14.0778L9.94853 157.334L9.73584 157.989H10.4241H27.0235ZM53.0736 144.254L55.0576 136.956C57.1276 138.982 59.175 140.986 61.1999 142.964C57.8179 155.435 56.2818 160.87 55.6265 163.189C55.4752 163.724 55.3709 164.093 55.3016 164.345H47.674L51.192 151.212L51.3606 150.583H50.7091H42.0413H41.6576L41.5583 150.954L37.971 164.345H30.0879L35.5107 144.623H52.5911H52.9733L53.0736 144.254ZM83.0878 144.319L83.2703 143.681H83.2602L83.7122 142.039L83.8864 141.406H83.2302H65.5975C63.7024 139.561 62.2695 138.158 61.2993 137.199C61.0279 136.931 60.7932 136.698 60.5949 136.5H84.6728C86.5081 138.294 88.3237 140.071 90.1198 141.828L91.265 142.949L90.9264 143.943C89.3302 144.949 88.1061 145.729 87.2542 146.281C86.8153 146.565 86.4731 146.791 86.2289 146.956C86.1071 147.039 86.007 147.109 85.9304 147.164C85.8648 147.212 85.7871 147.27 85.7339 147.323L85.3732 147.683L85.7401 148.037C86.8772 149.133 87.7264 149.967 88.2901 150.541C88.5727 150.829 88.7788 151.046 88.9125 151.197C88.9281 151.214 88.9423 151.231 88.9552 151.246C86.9499 158.598 85.7682 162.972 85.42 164.345H77.661L81.179 151.212L81.3476 150.583H80.696H72.0283H71.6446L71.5453 150.954L67.9579 164.345H60.0798L65.5354 144.704H82.6007H82.9777L83.0814 144.341L83.0878 144.319ZM108.888 158.517H109.269L109.37 158.15L113.825 142.039L114 141.406H113.343H95.1874C93.2923 139.561 91.8594 138.158 90.8892 137.199C90.6178 136.931 90.3831 136.698 90.1848 136.5H114.711C115.809 137.576 116.728 138.479 117.637 139.373C118.573 140.292 119.497 141.201 120.593 142.275C117.435 153.995 116.734 156.334 116.356 157.595C116.345 157.634 116.333 157.672 116.322 157.709L106.714 164.519H98.396C94.7012 160.926 92.4628 158.719 91.6655 157.88C93.7165 150.31 94.7376 146.622 95.2705 144.704H103.118C102.833 145.636 102.467 146.949 102.017 148.733C102.01 148.747 102.003 148.762 101.996 148.78C101.975 148.831 101.96 148.888 101.944 148.945C101.927 149.011 101.9 149.114 101.859 149.278C101.823 149.418 101.776 149.603 101.713 149.847C101.44 150.913 100.859 153.144 99.5857 157.887L99.4167 158.517H100.069H108.888ZM124.579 144.704H132.651C131.627 148.2 129.739 154.784 127.18 164.345H119.118L124.579 144.704ZM167.188 142.969C167.146 143.131 167.085 143.36 167.008 143.648C166.849 144.245 166.621 145.09 166.347 146.102C165.798 148.127 165.066 150.82 164.329 153.526L163.934 154.977C162.797 159.153 161.723 163.098 161.392 164.345H154.073L160.276 142.04L160.452 141.406H159.794H159.53H159.529L155.514 141.403H155.513H151.549H151.049V141.406H125.071C123.176 139.561 121.743 138.158 120.773 137.199C120.501 136.931 120.267 136.698 120.068 136.5H143.102C144.167 137.549 144.977 138.345 145.533 138.889C145.823 139.173 146.045 139.389 146.197 139.536C146.273 139.609 146.332 139.666 146.375 139.707C146.396 139.727 146.415 139.744 146.43 139.758C146.437 139.765 146.446 139.772 146.455 139.78L146.455 139.78C146.458 139.782 146.484 139.805 146.517 139.827L146.79 140.001L147.061 139.825C149.919 137.96 151.655 136.861 152.305 136.5H160.575C161.746 137.645 163.405 139.268 164.793 140.626L166.635 142.428L167.188 142.969ZM179.964 144.623V144.365L179.98 144.37V144.623H188.112C187.869 145.584 187.335 147.567 186.518 150.515H178.163H177.779L177.68 150.886L175.772 158.007L176.251 158.135V158.136V158.636H176.255H176.638H194.132C194.088 158.682 194.044 158.729 193.997 158.778C193.433 159.374 192.679 160.176 191.921 160.999C191.163 161.82 190.398 162.665 189.812 163.347C189.519 163.687 189.267 163.991 189.082 164.234C189.005 164.335 188.936 164.43 188.879 164.515H166.259L171.656 144.623H179.964ZM1.18778 136.634C1.14834 136.588 1.10998 136.544 1.07278 136.5H24.4296L24.5369 136.599L25.2037 137.214C25.7582 137.725 26.504 138.412 27.2693 139.117C28.1626 139.939 29.086 140.788 29.7616 141.406H5.29415L5.22784 141.329L4.65828 140.669C4.18672 140.122 3.55753 139.392 2.92696 138.66C2.29632 137.927 1.66458 137.192 1.18778 136.634ZM45.4717 136.5C44.8693 138.726 44.4454 140.298 44.147 141.406H35.5042L35.374 141.287L34.6528 140.629C34.0557 140.083 33.2592 139.355 32.4613 138.623C31.6632 137.892 30.8644 137.157 30.2625 136.6C30.226 136.566 30.1902 136.532 30.1551 136.5H45.4717ZM150.06 144.704L144.657 164.345H136.723L142.145 144.704H150.06ZM166.178 136.5H191.696C193.724 138.47 195.086 139.775 195.998 140.648C196.312 140.949 196.572 141.198 196.788 141.406H171.231C170.032 140.24 169.026 139.265 168.206 138.47C167.663 137.943 167.201 137.496 166.819 137.124C166.574 136.886 166.361 136.678 166.178 136.5Z" stroke="#627BFF" class="stroke-trace"/>
<path opacity="0.1" fill-rule="evenodd" clip-rule="evenodd" d="M82.9993 62.1314L97 50.1897L111.001 62.1314L97 54.431L82.9993 62.1314ZM72.9655 70.6897L52.4655 89.7759L41.1552 50.1897L52.3616 21.1549L42.569 16.2586L27.0172 33.2241L29.8448 46.6552L38.3276 28.2759L46.1034 29.6897L38.3276 50.1897L46.1034 77.7586L31.9655 88.3621L15 33.2241L40.4483 1.41379C40.4483 1.41379 52.1828 9.33103 56.7069 9.89655L94.1724 0L97 28.9828L99.8276 0L137.293 9.89655C141.817 9.33103 153.552 1.41379 153.552 1.41379L179 33.2241L162.034 88.3621L147.897 77.7586L155.672 50.1897L147.897 29.6897L155.672 28.2759L164.155 46.6552L166.983 33.2241L151.431 16.2586L141.638 21.1549L152.845 50.1897L141.534 89.7759L121.034 70.6897L141.534 97.5517L124.569 126.534L99.1207 102.5L101.948 83.4138L106.19 86.2414L115.379 79.8793L108.31 71.3966H97H85.6897L78.6207 79.8793L87.8103 86.2414L92.0517 83.4138L94.8793 102.5L69.431 126.534L52.4655 97.5517L72.9655 70.6897ZM67.3103 60.7931L53.1724 48.8466L60.9483 45.2414L85.6896 48.8466L67.3103 60.7931ZM126.69 60.7931L140.828 48.8466L133.052 45.2414L108.31 48.8466L126.69 60.7931ZM97 127.948L116.793 123.707L97 106.034L77.2069 123.707L97 127.948Z" fill="#627BFF"/>
<mask id="path-10-inside-1_57_143" fill="white">
<path fill-rule="evenodd" clip-rule="evenodd" d="M84.9993 62.1314L99 50.1897L113.001 62.1314L99 54.431L84.9993 62.1314ZM74.9655 70.6897L54.4655 89.7759L43.1552 50.1897L54.3616 21.1549L44.569 16.2586L29.0172 33.2241L31.8448 46.6552L40.3276 28.2759L48.1034 29.6897L40.3276 50.1897L48.1034 77.7586L33.9655 88.3621L17 33.2241L42.4483 1.41379C42.4483 1.41379 54.1828 9.33103 58.7069 9.89655L96.1724 0L99 28.9828L101.828 0L139.293 9.89655C143.817 9.33103 155.552 1.41379 155.552 1.41379L181 33.2241L164.034 88.3621L149.897 77.7586L157.672 50.1897L149.897 29.6897L157.672 28.2759L166.155 46.6552L168.983 33.2241L153.431 16.2586L143.638 21.1549L154.845 50.1897L143.534 89.7759L123.034 70.6897L143.534 97.5517L126.569 126.534L101.121 102.5L103.948 83.4138L108.19 86.2414L117.379 79.8793L110.31 71.3966H99H87.6897L80.6207 79.8793L89.8103 86.2414L94.0517 83.4138L96.8793 102.5L71.431 126.534L54.4655 97.5517L74.9655 70.6897ZM69.3103 60.7931L55.1724 48.8466L62.9483 45.2414L87.6896 48.8466L69.3103 60.7931ZM128.69 60.7931L142.828 48.8466L135.052 45.2414L110.31 48.8466L128.69 60.7931ZM99 127.948L118.793 123.707L99 106.034L79.2069 123.707L99 127.948Z"/>
</mask>
<path d="M99 50.1897L99.6489 49.4288L99 48.8753L98.3511 49.4288L99 50.1897ZM84.9993 62.1314L84.3504 61.3706L85.4812 63.0076L84.9993 62.1314ZM113.001 62.1314L112.519 63.0076L113.65 61.3706L113.001 62.1314ZM99 54.431L99.4819 53.5548L99 53.2898L98.5181 53.5548L99 54.431ZM54.4655 89.7759L53.504 90.0506L53.9524 91.6199L55.1469 90.5078L54.4655 89.7759ZM74.9655 70.6897L75.7605 71.2963L74.2841 69.9578L74.9655 70.6897ZM43.1552 50.1897L42.2222 49.8296L42.1016 50.1422L42.1936 50.4644L43.1552 50.1897ZM54.3616 21.1549L55.2945 21.515L55.6218 20.667L54.8088 20.2605L54.3616 21.1549ZM44.569 16.2586L45.0162 15.3642L44.3415 15.0269L43.8318 15.5829L44.569 16.2586ZM29.0172 33.2241L28.2801 32.5484L27.9328 32.9273L28.0387 33.4301L29.0172 33.2241ZM31.8448 46.6552L30.8663 46.8612L31.488 49.8145L32.7528 47.0742L31.8448 46.6552ZM40.3276 28.2759L40.5065 27.292L39.7443 27.1534L39.4196 27.8568L40.3276 28.2759ZM48.1034 29.6897L49.0384 30.0443L49.4646 28.9207L48.2823 28.7058L48.1034 29.6897ZM40.3276 50.1897L39.3926 49.835L39.2756 50.1435L39.3651 50.4611L40.3276 50.1897ZM48.1034 77.7586L48.7034 78.5586L49.2521 78.1472L49.0659 77.4872L48.1034 77.7586ZM33.9655 88.3621L33.0097 88.6562L33.4279 90.0153L34.5655 89.1621L33.9655 88.3621ZM17 33.2241L16.2191 32.5994L15.8886 33.0126L16.0442 33.5182L17 33.2241ZM42.4483 1.41379L43.0076 0.584829L42.2433 0.0691928L41.6674 0.789098L42.4483 1.41379ZM58.7069 9.89655L58.5829 10.8888L58.775 10.9129L58.9623 10.8634L58.7069 9.89655ZM96.1724 0L97.1677 -0.0970999L97.0535 -1.26705L95.917 -0.966838L96.1724 0ZM99 28.9828L98.0047 29.0799H99.9953L99 28.9828ZM101.828 0L102.083 -0.966838L100.946 -1.26705L100.832 -0.0970999L101.828 0ZM139.293 9.89655L139.038 10.8634L139.225 10.9129L139.417 10.8888L139.293 9.89655ZM155.552 1.41379L156.333 0.789098L155.757 0.0691928L154.992 0.584829L155.552 1.41379ZM181 33.2241L181.956 33.5182L182.111 33.0126L181.781 32.5994L181 33.2241ZM164.034 88.3621L163.434 89.1621L164.572 90.0153L164.99 88.6562L164.034 88.3621ZM149.897 77.7586L148.934 77.4872L148.748 78.1472L149.297 78.5586L149.897 77.7586ZM157.672 50.1897L158.635 50.4611L158.724 50.1435L158.607 49.835L157.672 50.1897ZM149.897 29.6897L149.718 28.7058L148.535 28.9207L148.962 30.0443L149.897 29.6897ZM157.672 28.2759L158.58 27.8568L158.256 27.1534L157.494 27.292L157.672 28.2759ZM166.155 46.6552L165.247 47.0742L166.512 49.8145L167.134 46.8612L166.155 46.6552ZM168.983 33.2241L169.961 33.4301L170.067 32.9273L169.72 32.5484L168.983 33.2241ZM153.431 16.2586L154.168 15.5829L153.658 15.0269L152.984 15.3642L153.431 16.2586ZM143.638 21.1549L143.191 20.2605L142.378 20.667L142.706 21.515L143.638 21.1549ZM154.845 50.1897L155.806 50.4644L155.898 50.1422L155.778 49.8296L154.845 50.1897ZM143.534 89.7759L142.853 90.5078L144.048 91.6199L144.496 90.0506L143.534 89.7759ZM123.034 70.6897L123.716 69.9578L122.24 71.2963L123.034 70.6897ZM143.534 97.5517L144.397 98.0569L144.736 97.4782L144.329 96.9451L143.534 97.5517ZM126.569 126.534L125.882 127.261L126.797 128.125L127.432 127.04L126.569 126.534ZM101.121 102.5L100.131 102.353L100.055 102.869L100.434 103.227L101.121 102.5ZM103.948 83.4138L104.503 82.5817L103.19 81.7066L102.959 83.2672L103.948 83.4138ZM108.19 86.2414L107.635 87.0734L108.2 87.4503L108.759 87.0636L108.19 86.2414ZM117.379 79.8793L117.949 80.7015L118.848 80.0791L118.148 79.2391L117.379 79.8793ZM110.31 71.3966L111.079 70.7564L110.779 70.3966H110.31V71.3966ZM87.6897 71.3966V70.3966H87.2213L86.9214 70.7564L87.6897 71.3966ZM80.6207 79.8793L79.8525 79.2391L79.1525 80.0791L80.0515 80.7015L80.6207 79.8793ZM89.8103 86.2414L89.2411 87.0636L89.7997 87.4503L90.365 87.0734L89.8103 86.2414ZM94.0517 83.4138L95.0409 83.2672L94.8097 81.7066L93.497 82.5817L94.0517 83.4138ZM96.8793 102.5L97.5659 103.227L97.9449 102.869L97.8685 102.353L96.8793 102.5ZM71.431 126.534L70.568 127.04L71.2034 128.125L72.1177 127.261L71.431 126.534ZM54.4655 97.5517L53.6706 96.9451L53.2637 97.4782L53.6025 98.0569L54.4655 97.5517ZM55.1724 48.8466L54.7518 47.9393L53.3297 48.5987L54.527 49.6104L55.1724 48.8466ZM69.3103 60.7931L68.6649 61.5569L69.2324 62.0365L69.8553 61.6316L69.3103 60.7931ZM62.9483 45.2414L63.0925 44.2518L62.7978 44.2089L62.5276 44.3342L62.9483 45.2414ZM87.6896 48.8466L88.2346 49.685L90.4585 48.2395L87.8338 47.857L87.6896 48.8466ZM142.828 48.8466L143.473 49.6104L144.67 48.5987L143.248 47.9393L142.828 48.8466ZM128.69 60.7931L128.145 61.6315L128.768 62.0364L129.335 61.5569L128.69 60.7931ZM135.052 45.2414L135.472 44.3341L135.202 44.2089L134.908 44.2518L135.052 45.2414ZM110.31 48.8466L110.166 47.857L107.541 48.2395L109.765 49.685L110.31 48.8466ZM118.793 123.707L119.003 124.685L120.928 124.272L119.459 122.961L118.793 123.707ZM99 127.948L98.7905 128.926L99 128.971L99.2095 128.926L99 127.948ZM99 106.034L99.666 105.289L99 104.694L98.334 105.289L99 106.034ZM79.2069 123.707L78.5409 122.961L77.0723 124.272L78.9974 124.685L79.2069 123.707ZM98.3511 49.4288L84.3504 61.3706L85.6483 62.8922L99.6489 50.9505L98.3511 49.4288ZM113.65 61.3706L99.6489 49.4288L98.3511 50.9505L112.352 62.8922L113.65 61.3706ZM98.5181 55.3073L112.519 63.0076L113.483 61.2552L99.4819 53.5548L98.5181 55.3073ZM85.4812 63.0076L99.4819 55.3073L98.5181 53.5548L84.5174 61.2552L85.4812 63.0076ZM55.1469 90.5078L75.6469 71.4215L74.2841 69.9578L53.7841 89.044L55.1469 90.5078ZM42.1936 50.4644L53.504 90.0506L55.427 89.5011L44.1167 49.9149L42.1936 50.4644ZM53.4286 20.7948L42.2222 49.8296L44.0881 50.5497L55.2945 21.515L53.4286 20.7948ZM54.8088 20.2605L45.0162 15.3642L44.1218 17.153L53.9143 22.0493L54.8088 20.2605ZM43.8318 15.5829L28.2801 32.5484L29.7544 33.8999L45.3061 16.9343L43.8318 15.5829ZM28.0387 33.4301L30.8663 46.8612L32.8234 46.4492L29.9958 33.0181L28.0387 33.4301ZM32.7528 47.0742L41.2355 28.6949L39.4196 27.8568L30.9369 46.2361L32.7528 47.0742ZM40.1487 29.2597L47.9246 30.6735L48.2823 28.7058L40.5065 27.292L40.1487 29.2597ZM47.1684 29.335L39.3926 49.835L41.2626 50.5443L49.0384 30.0443L47.1684 29.335ZM39.3651 50.4611L47.141 78.0301L49.0659 77.4872L41.29 49.9182L39.3651 50.4611ZM47.5034 76.9586L33.3655 87.5621L34.5655 89.1621L48.7034 78.5586L47.5034 76.9586ZM34.9213 88.068L17.9558 32.9301L16.0442 33.5182L33.0097 88.6562L34.9213 88.068ZM17.7809 33.8488L43.2291 2.03849L41.6674 0.789098L16.2191 32.5994L17.7809 33.8488ZM42.4483 1.41379C41.889 2.24276 41.8891 2.24283 41.8892 2.24293C41.8893 2.243 41.8895 2.24313 41.8897 2.24328C41.8902 2.24357 41.8908 2.24399 41.8916 2.24452C41.8932 2.24559 41.8955 2.24713 41.8985 2.24914C41.9044 2.25317 41.9132 2.25907 41.9247 2.26679C41.9477 2.28224 41.9816 2.30496 42.0259 2.33449C42.1143 2.39355 42.2441 2.47987 42.4105 2.58971C42.7433 2.80937 43.223 3.12323 43.8125 3.50139C44.9908 4.25728 46.611 5.27215 48.3755 6.30593C50.1377 7.33829 52.0566 8.39709 53.8301 9.23642C55.573 10.0613 57.28 10.726 58.5829 10.8888L58.8309 8.90427C57.8717 8.78437 56.4154 8.24731 54.6857 7.42866C52.9865 6.62446 51.1235 5.59792 49.3865 4.58027C47.652 3.56406 46.0557 2.56427 44.8924 1.818C44.3111 1.44509 43.8387 1.13599 43.5122 0.920469C43.3489 0.812719 43.2221 0.728389 43.1365 0.671201C43.0937 0.642608 43.0611 0.620804 43.0394 0.606252C43.0286 0.598977 43.0205 0.593515 43.0151 0.589925C43.0125 0.58813 43.0105 0.586803 43.0092 0.585951C43.0086 0.585525 43.0082 0.585218 43.0079 0.585031C43.0077 0.584937 43.0077 0.584886 43.0076 0.584839C43.0076 0.584819 43.0076 0.584829 42.4483 1.41379ZM95.917 -0.966838L58.4515 8.92971L58.9623 10.8634L96.4278 0.966838L95.917 -0.966838ZM99.9953 28.8857L97.1677 -0.0970999L95.1771 0.0970999L98.0047 29.0799L99.9953 28.8857ZM100.832 -0.0970999L98.0047 28.8857L99.9953 29.0799L102.823 0.0970999L100.832 -0.0970999ZM139.548 8.92971L102.083 -0.966838L101.572 0.966838L139.038 10.8634L139.548 8.92971ZM155.552 1.41379C154.992 0.584829 154.992 0.584819 154.992 0.584839C154.992 0.584886 154.992 0.584937 154.992 0.585031C154.992 0.585218 154.991 0.585525 154.991 0.585951C154.989 0.586803 154.988 0.58813 154.985 0.589925C154.98 0.593515 154.971 0.598977 154.961 0.606252C154.939 0.620804 154.906 0.642608 154.864 0.671201C154.778 0.728389 154.651 0.812719 154.488 0.920469C154.161 1.13599 153.689 1.44509 153.108 1.818C151.944 2.56427 150.348 3.56406 148.613 4.58027C146.876 5.59792 145.014 6.62446 143.314 7.42866C141.585 8.24731 140.128 8.78437 139.169 8.90427L139.417 10.8888C140.72 10.726 142.427 10.0613 144.17 9.23642C145.943 8.39709 147.862 7.33829 149.624 6.30593C151.389 5.27215 153.009 4.25728 154.187 3.50139C154.777 3.12323 155.257 2.80937 155.589 2.58971C155.756 2.47987 155.886 2.39355 155.974 2.33449C156.018 2.30496 156.052 2.28224 156.075 2.26679C156.087 2.25907 156.096 2.25317 156.102 2.24914C156.105 2.24713 156.107 2.24559 156.108 2.24452C156.109 2.24399 156.11 2.24357 156.11 2.24328C156.11 2.24313 156.111 2.243 156.111 2.24293C156.111 2.24283 156.111 2.24276 155.552 1.41379ZM181.781 32.5994L156.333 0.789098L154.771 2.03849L180.219 33.8488L181.781 32.5994ZM164.99 88.6562L181.956 33.5182L180.044 32.9301L163.079 88.068L164.99 88.6562ZM149.297 78.5586L163.434 89.1621L164.634 87.5621L150.497 76.9586L149.297 78.5586ZM156.71 49.9182L148.934 77.4872L150.859 78.0301L158.635 50.4611L156.71 49.9182ZM148.962 30.0443L156.737 50.5443L158.607 49.835L150.832 29.335L148.962 30.0443ZM157.494 27.292L149.718 28.7058L150.075 30.6735L157.851 29.2597L157.494 27.292ZM167.063 46.2361L158.58 27.8568L156.764 28.6949L165.247 47.0742L167.063 46.2361ZM168.004 33.0181L165.177 46.4492L167.134 46.8612L169.961 33.4301L168.004 33.0181ZM152.694 16.9343L168.246 33.8999L169.72 32.5484L154.168 15.5829L152.694 16.9343ZM144.086 22.0493L153.878 17.153L152.984 15.3642L143.191 20.2605L144.086 22.0493ZM155.778 49.8296L144.571 20.7948L142.706 21.515L153.912 50.5497L155.778 49.8296ZM144.496 90.0506L155.806 50.4644L153.883 49.9149L142.573 89.5011L144.496 90.0506ZM122.353 71.4215L142.853 90.5078L144.216 89.044L123.716 69.9578L122.353 71.4215ZM144.329 96.9451L123.829 70.083L122.24 71.2963L142.74 98.1584L144.329 96.9451ZM127.432 127.04L144.397 98.0569L142.671 97.0465L125.706 126.029L127.432 127.04ZM100.434 103.227L125.882 127.261L127.256 125.807L101.807 101.773L100.434 103.227ZM102.959 83.2672L100.131 102.353L102.11 102.647L104.937 83.5603L102.959 83.2672ZM108.744 85.4093L104.503 82.5817L103.394 84.2458L107.635 87.0734L108.744 85.4093ZM116.81 79.0571L107.62 85.4192L108.759 87.0636L117.949 80.7015L116.81 79.0571ZM109.542 72.0367L116.611 80.5195L118.148 79.2391L111.079 70.7564L109.542 72.0367ZM99 72.3966H110.31V70.3966H99V72.3966ZM87.6897 72.3966H99V70.3966H87.6897V72.3966ZM81.3889 80.5195L88.4579 72.0367L86.9214 70.7564L79.8525 79.2391L81.3889 80.5195ZM90.3796 85.4192L81.1899 79.0571L80.0515 80.7015L89.2411 87.0636L90.3796 85.4192ZM93.497 82.5817L89.2556 85.4093L90.365 87.0734L94.6064 84.2458L93.497 82.5817ZM97.8685 102.353L95.0409 83.2672L93.0625 83.5603L95.8901 102.647L97.8685 102.353ZM72.1177 127.261L97.5659 103.227L96.1927 101.773L70.7444 125.807L72.1177 127.261ZM53.6025 98.0569L70.568 127.04L72.2941 126.029L55.3285 97.0465L53.6025 98.0569ZM74.1706 70.083L53.6706 96.9451L55.2605 98.1584L75.7605 71.2963L74.1706 70.083ZM54.527 49.6104L68.6649 61.5569L69.9558 60.0293L55.8178 48.0828L54.527 49.6104ZM62.5276 44.3342L54.7518 47.9393L55.593 49.7538L63.3689 46.1486L62.5276 44.3342ZM87.8338 47.857L63.0925 44.2518L62.8041 46.2309L87.5455 49.8361L87.8338 47.857ZM69.8553 61.6316L88.2346 49.685L87.1447 48.0081L68.7653 59.9547L69.8553 61.6316ZM142.182 48.0827L128.044 60.0293L129.335 61.5569L143.473 49.6104L142.182 48.0827ZM134.631 46.1486L142.407 49.7538L143.248 47.9393L135.472 44.3341L134.631 46.1486ZM110.455 49.8361L135.196 46.2309L134.908 44.2518L110.166 47.857L110.455 49.8361ZM129.235 59.9547L110.855 48.0081L109.765 49.685L128.145 61.6315L129.235 59.9547ZM118.584 122.729L98.7905 126.97L99.2095 128.926L119.003 124.685L118.584 122.729ZM98.334 106.78L118.127 124.453L119.459 122.961L99.666 105.289L98.334 106.78ZM79.8729 124.453L99.666 106.78L98.334 105.289L78.5409 122.961L79.8729 124.453ZM99.2095 126.97L79.4164 122.729L78.9974 124.685L98.7905 128.926L99.2095 126.97Z" fill="#627BFF" mask="url(#path-10-inside-1_57_143)"/>
</g>
<defs>
<clipPath id="clip0_57_143">
<rect width="198" height="210" fill="white"/>
</clipPath>
</defs>
</svg>
