<?xml version="1.0" encoding="UTF-8"?>
<svg id="Layer_2" data-name="Layer 2" xmlns="http://www.w3.org/2000/svg" viewBox="0 0 613.36 664.6">
  <defs>
    <style>
      .cls-1 {
        fill: #fff;
      }

      .cls-1, .cls-2 {
        stroke-width: 0px;
      }

      .cls-2, .cls-3 {
        fill: #303030;
      }
      @media(prefers-color-scheme: dark) {
        .cls-2 {
          fill: #fff;
        }
        .cls-3 {
          display: none;
        }
      }
    </style>
  </defs>
  <g id="ChromeDog_Font_Mix_copy" data-name="ChromeDog Font Mix copy">
    <g id="Dog">
      <path class="cls-2" d="m370.92,537.45v127.15h-127.15v-127.15h127.15Zm-100.63,26.52v74.1h74.1v-74.1h-74.1Zm59.57,37.43l-22.51-22.51-22.51,22.51,22.51,22.51,22.51-22.51Z"/>
      <polygon class="cls-2" points="197.96 538.2 34.08 538.2 60.25 563.98 128.93 563.98 143.49 563.98 183.65 563.98 202.37 582.69 202.37 638.17 128.93 638.17 128.93 593.52 146.3 577.08 100.34 577.08 100.34 664.6 229.56 664.6 229.56 569.8 197.96 538.2"/>
      <polygon class="cls-2" points="415.93 537.83 579.81 537.83 553.64 563.6 484.95 563.6 470.39 563.6 430.23 563.6 411.52 582.32 411.52 637.79 484.95 637.79 484.95 602.35 433.34 602.33 467.59 576.15 513.54 576.15 513.54 664.23 384.33 664.23 384.33 569.43 415.93 537.83"/>
    </g>
    <path id="Chrome" class="cls-2" d="m0,434.86h76.29s18,16.64,19.92,18.33H15.7S.14,435.12,0,434.86Zm45.75,25.22H15.93c-2.64,7.91-14.15,43.59-14.15,43.59l20.13,20.71h57.49l6.36-22.83h-53.46l13.45-41.47Zm124-25.22c7.28,7.14,14.47,14.19,21.57,21.14-14.94,55.21-18.38,66.5-18.81,68.38h-26.84l11.42-42.71h-26.85l-11.42,42.71h-27.64l17.65-64.31h54.09l6.84-25.21Zm-60.35,18.33h28.55c1.01-3.76,2.56-9.52,4.94-18.33h-53.35c.14.32,19.85,18.33,19.85,18.33Zm146.5,7.06s-.02.07-.02.07h-54.04l-17.76,64.06h27.63l11.42-42.71h26.85l-11.42,42.71h27.27c.42-1.93,4.23-16.09,11.42-42.5,0-.38-3.52-3.97-10.57-10.78.52-.52,5.94-4.04,16.28-10.57l1.54-4.53c-7.09-6.95-14.28-14-21.57-21.14h-78.86c.14.32,6.32,6.44,18.51,18.33h55.25l-1.94,7.06Zm81.41,42.94h-27.32c7.89-29.45,7.2-27.72,7.49-28.25,1.78-7.07,3.13-11.75,4.07-14.62h-27.6c-1.57,5.66-4.77,17.2-11.71,42.87,1.86,2.06,9.18,9.3,21.94,21.73h26.89l30.6-21.73c1.15-3.87,2.87-9.31,13.63-49.33-7.22-7.08-11.91-11.73-19.32-19h-80.25c.14.32,6.32,6.44,18.51,18.33h56.87l-13.8,50Zm75.68-42.87c-3.04,10.34-9.23,31.84-17.83,64.06h-28.2l17.78-64.06h28.26Zm26.16,0l-17.65,64.06h27.79l17.59-64.06h-27.73Zm36.11,64.06h25.89c.42-1.88,18.47-67.91,18.47-68.38,0,0-14.28-14-21.57-21.14h-26.64c-1.79.94-7.35,4.46-16.7,10.57-.14-.09-3.74-3.62-10.78-10.57h-75.63c.14.32,6.32,6.44,18.51,18.33h82.65s0,0,0-.01h12.28s12.44.01,12.44.01h.82s-19.76,71.19-19.76,71.19Zm70.72-20.82h59s-18.54,19.38-18.96,21.35h-73.02l17.56-64.84h26.92c-.05.21-.1.41-.15.63.07-.21.13-.42.2-.63h27.15c-.28,1.44-2.22,8.76-5.72,21.39h-27.06l-5.91,22.1Zm-16.18-50.37h83.55c-1.36-1.5-5.74-5.52-18.9-18.33h-83.37c.14.33,5.89,5.83,18.72,18.33Z"/>
    <polygon class="cls-3" points="466.87 272.18 449.81 213.68 449.81 149.1 441.56 0 391.42 68.8 364.51 88.17 321.86 88.17 301.15 94.26 280.43 88.17 240.67 88.17 210.32 65.76 160.73 .34 152.48 149.1 152.48 213.68 135.42 272.18 176.85 324.57 165.88 337.98 217.06 406.22 245.09 385.5 301.15 412.31 357.2 385.5 385.23 406.22 436.41 337.98 425.44 324.57 466.87 272.18"/>
    <polygon class="cls-1" points="253.55 379.78 301.15 402.73 348.75 379.78 301.15 347.99 253.55 379.78"/>
    <path class="cls-1" d="m441.56,150.46l-4.35-133.28-41.34,55.89-30.46,21.5,15.23,10.75,26.11-15.05,13.06-19.35,4.35,23.65v42.99l17.41,12.9Z"/>
    <path class="cls-1" d="m375.77,226.62l13.43-10.71-8.92-10.71h-13.45l-13.32,11.92,22.27,9.5Z"/>
    <path class="cls-1" d="m160.73,150.46l4.35-133.28,41.34,55.89,30.46,21.5-15.23,10.75-26.11-15.05-13.06-19.35-4.35,23.65v42.99l-17.41,12.9Z"/>
    <path class="cls-1" d="m423.13,314.57l35.12-44.36-16.64-55.45v-59.14l-81.32-60.99h-36.97l-14.79,20.33-3.7,33.27,29.57-7.39-29.57,24.03v27.72l5.54,29.57,20.33,12.94-16.63-5.54h-25.88l-16.63,5.54,20.33-12.94,5.54-29.57v-27.72l-29.57-24.03,29.57,7.39-3.7-33.27-14.79-20.33h-36.97l-81.32,60.99v59.14l-16.63,55.45,35.12,44.36,75.78-73.93-79.47,94.26,14.79,22.18,29.57,38.81,25.88-20.33,51.75-33.27v-22.18l-15.34-29.24,9.52-9.52-3.57-5.95-9.09,11.44-20.33-7.39-3.7-12.94,18.48-18.48h55.45l18.48,18.48-3.7,12.94-20.33,7.39-9.09-11.44-3.57,5.95,9.52,9.52-15.34,29.24v22.18l51.75,33.27,25.88,20.33,29.57-38.81,14.79-22.18-79.48-94.26,75.78,73.93Zm-203.81-76.06l-30.03-24.23,18.11-13.85h50.7l14.49,13.85-53.27,24.23Zm110.38-24.23l14.49-13.85h50.7l18.11,13.85-30.03,24.23-53.27-24.23Z"/>
    <path class="cls-1" d="m226.52,226.62l-13.43-10.71,8.92-10.71h13.45l13.32,11.92-22.27,9.5Z"/>
  </g>
</svg>