<?xml version="1.0" encoding="UTF-8"?>
<svg id="Layer_2" data-name="Layer 2" xmlns="http://www.w3.org/2000/svg" viewBox="0 0 129.96 162.13">
  <defs>
    <style>
      .cls-1 {
        stroke: #303030;
        stroke-miterlimit: 10;
      }

      .cls-1, .cls-2 {
        fill: #fff;
      }

      .cls-2, .cls-3 {
        stroke-width: 0px;
      }

      .cls-3 {
        fill: #303030;
      }
    </style>
  </defs>
  <g id="ChromeDog_Font_Mix_copy" data-name="ChromeDog Font Mix copy">
    <g>
      <polygon class="cls-3" points="64.83 162.04 46.32 151.86 35.07 161.02 11.74 131.39 16.05 126.12 0 108.57 6.7 85.58 6.7 60.2 11.42 0 34.33 29.08 44.41 36.81 56.99 36.25 64.98 38.6 72.97 36.25 85.55 36.81 95.62 29.08 118.54 0 123.25 60.2 123.25 85.58 129.96 108.57 113.91 126.12 118.22 131.39 94.88 161.02 83.64 151.86 65.13 162.04 64.98 162.13 64.83 162.04"/>
      <polygon class="cls-2" points="47.61 146.68 64.98 154.35 82.35 146.68 64.98 136.06 47.61 146.68"/>
      <path class="cls-1" d="m116.22,62.3l-1.59-48.63-15.09,20.4-11.12,7.84,5.56,3.92,9.53-5.49,4.76-7.06,1.59,8.63v15.69l6.35,4.71Z"/>
      <path class="cls-2" d="m92.21,90.09l4.9-3.91-3.26-3.91h-4.91l-4.86,4.35,8.13,3.47Z"/>
      <path class="cls-1" d="m13.74,62.3l1.59-48.63,15.09,20.4,11.12,7.84-5.56,3.92-9.53-5.49-4.76-7.06-1.59,8.63v15.69l-6.35,4.71Z"/>
      <path class="cls-1" d="m109.49,122.18l12.82-16.19-6.07-20.23v-21.58l-29.68-22.26h-13.49l-5.4,7.42-1.35,12.14,10.79-2.7-10.79,8.77v10.12l2.02,10.79,7.42,4.72-6.07-2.02h-9.44l-6.07,2.02,7.42-4.72,2.02-10.79v-10.12l-10.79-8.77,10.79,2.7-1.35-12.14-5.4-7.42h-13.49l-29.68,22.26v21.58l-6.07,20.23,12.81,16.19,27.65-26.98-29,34.4,5.4,8.09,10.79,14.16,9.44-7.42,18.88-12.14v-8.09l-5.6-10.67,3.47-3.47-1.3-2.17-3.32,4.18-7.42-2.7-1.35-4.72,6.74-6.74h20.23l6.74,6.74-1.35,4.72-7.42,2.7-3.32-4.18-1.3,2.17,3.47,3.47-5.6,10.67v8.09l18.88,12.14,9.44,7.42,10.79-14.16,5.4-8.09-29-34.4,27.65,26.98Zm-74.37-27.75l-10.96-8.84,6.61-5.05h18.5l5.29,5.05-19.44,8.84Zm40.28-8.84l5.29-5.05h18.5l6.61,5.05-10.96,8.84-19.44-8.84Z"/>
      <path class="cls-2" d="m37.88,89.52l-4.9-3.09,3.26-3.09h4.91l3.76,2.67-7.03,3.52Z"/>
    </g>
  </g>
</svg>