<svg width="136" height="169" viewBox="0 0 136 169" fill="none" xmlns="http://www.w3.org/2000/svg">
<defs>
<style>
.cls-1 {
    fill: #EDEDED;
}
.cls-2 {
    fill: #303030;
}
@media(prefers-color-scheme: dark) {
    .cls-2 {
        display: none;
    }
}
</style>
</defs>
<path d="M76.5 36L68 38.5V169L91 158L102.5 166.5L123.5 138.5L119 133L136 111.5L129 87.5V61L126.5 0.5L106.5 27L94 36H76.5Z" class="cls-2"/>
<path d="M79.6489 102H68V94.234H73.4362L87.4149 98.8936L120.809 138.5L114.596 147.819L102.17 164.128L91.2979 155.585L69.5532 141.606V132.287L76 120L72 116L73.5 113.5L77.3191 118.308L85.8617 115.202L87.4149 109.766L79.6489 102Z" class="cls-1"/>
<path d="M88 157.355L68 144V167L88 157.355Z" class="cls-1"/>
<path d="M77.3192 37.5426H92.8511L127.021 63.1703V88.0213L134.011 111.319L119.255 129.957L87.4149 98.8936L80.4255 96.5639L71.883 91.1277L69.5532 78.7022V67.0532L81.9787 56.9575L69.5532 60.0639L71.1064 46.0852L77.3192 37.5426Z" class="cls-1"/>
<path d="M127 61L125.171 5L107.8 28.4839L95 37.5161L101.4 42.0323L112.371 35.7097L117.857 27.5806L119.686 37.5161V55.5806L127 61Z" class="cls-1"/>
<path d="M115 87.8182L107.391 82H86.087L80 87.8182L102.381 98L115 87.8182Z" fill="black"/>
<path d="M99.3558 93L105 88.5L101.25 84H95.5988L90 89.0065L99.3558 93Z" class="cls-1"/>
<path d="M59.5 36L68 38.5V169L45 158L33.5 166.5L12.5 138.5L17 133L0 111.5L7 87.5V61L9.5 0.5L29.5 27L42 36H59.5Z"  class="cls-2"/>
<path d="M56.3511 102H68V94.234H62.5638L48.5851 98.8936L15.1915 138.5L21.4043 147.819L33.8298 164.128L44.7021 155.585L66.4468 141.606V132.287L60 120L64 116L62.5 113.5L58.6809 118.308L50.1383 115.202L48.5851 109.766L56.3511 102Z" class="cls-1"/>
<path d="M48 157.355L68 144V167L48 157.355Z" class="cls-1"/>
<path d="M58.6808 37.5426H43.1489L8.97872 63.1703V88.0213L1.98936 111.319L16.7447 129.957L48.5851 98.8936L55.5745 96.5639L64.117 91.1277L66.4468 78.7022V67.0532L54.0213 56.9575L66.4468 60.0639L64.8936 46.0852L58.6808 37.5426Z" class="cls-1"/>
<path d="M9 61L10.8286 5L28.2 28.4839L41 37.5161L34.6 42.0323L23.6286 35.7097L18.1429 27.5806L16.3143 37.5161V55.5806L9 61Z" class="cls-1"/>
<path d="M21 87.8182L28.6087 82H49.913L56 87.8182L33.6193 98L21 87.8182Z" fill="black"/>
<path d="M36.6442 93L31 88.5L34.75 84H40.4012L46 89.0065L36.6442 93Z" class="cls-1"/>
</svg>
