<svg width="176" height="136" viewBox="0 0 176 136" fill="none" xmlns="http://www.w3.org/2000/svg">
<defs>
<style>
.fill {
    fill: #EDEDED;
}
@media(prefers-color-scheme: dark) {
    .fill {
        fill: #627BFF;
    }
}
</style>
</defs>
<path fill-rule="evenodd" clip-rule="evenodd" d="M88 136L66.5 132L59 136L38.5 102L40.5 98L37 88.5L21 98L0 35.5L30 0.5L48 9.5L88 0.5L128 9.5L146 0.5L176 35.5L155 98L139 88.5L135.5 98L137.5 102L117 136L109.5 132L88 136Z" fill="#303030"/>
<path fill-rule="evenodd" clip-rule="evenodd" d="M63.9655 74.6897L43.4655 93.7759L32.1552 54.1897L43.3616 25.1549L33.569 20.2586L18.0172 37.2241L20.8448 50.6552L29.3276 32.2759L37.1034 33.6897L29.3276 54.1897L37.1034 81.7586L22.9655 92.3621L6 37.2241L31.4483 5.41379C31.4483 5.41379 43.1828 13.331 47.7069 13.8966L85.1724 4L88 32.9828L90.8276 4L128.293 13.8966C132.817 13.331 144.552 5.41379 144.552 5.41379L170 37.2241L153.034 92.3621L138.897 81.7586L146.672 54.1897L138.897 33.6897L146.672 32.2759L155.155 50.6552L157.983 37.2241L142.431 20.2586L132.638 25.1549L143.845 54.1897L132.534 93.7759L112.034 74.6897L132.534 101.552L115.569 130.534L90.1207 106.5L92.9483 87.4138L97.1897 90.2414L106.379 83.8793L99.3103 75.3966H76.6897L69.6207 83.8793L78.8103 90.2414L83.0517 87.4138L85.8793 106.5L60.431 130.534L43.4655 101.552L63.9655 74.6897ZM73.9993 66.1314L88 54.1897L102.001 66.1314L88 58.431L73.9993 66.1314ZM58.3103 64.7931L44.1724 52.8466L51.9483 49.2414L76.6896 52.8466L58.3103 64.7931ZM117.69 64.7931L131.828 52.8466L124.052 49.2414L99.3103 52.8466L117.69 64.7931Z" class="fill"/>
<path d="M88 131.948L107.793 127.707L88 110.034L68.2069 127.707L88 131.948Z" class="fill"/>
</svg>
