<svg width="198" height="210" viewBox="0 0 198 210" fill="none" xmlns="http://www.w3.org/2000/svg" style="">
<defs>
<style>
.stroke{
    stroke: #000;
}
.fill {
    fill: #000;
    opacity: 0;
}
@media(prefers-color-scheme: dark) {
    .stroke{
    stroke: #627BFF;
    }
    .fill {
        fill: #627BFF;
    }
}
</style>
</defs>
<g clip-path="url(#clip0_57_143)">
<g opacity="0.1">
<path d="M119.738 169.059V210.029H78.6913V169.059H119.738ZM87.2526 177.604V201.481H111.174V177.604H87.2526ZM106.483 189.665L99.2164 182.412L91.9496 189.665L99.2164 196.918L106.483 189.665Z"  class="fill JMHVmEkb_0"></path>
<path d="M63.9028 169.298H10.9987L19.4469 177.604H41.6184H46.3187H59.2832L65.3264 183.633V201.51H41.6184V187.123L47.2258 181.829H32.3889V210.029H74.104V179.483L63.9028 169.298Z"  class="fill JMHVmEkb_1"></path>
<path d="M134.268 169.178H187.173L178.724 177.485H156.55H151.849H138.885L132.845 183.514V201.39H156.55V189.968L139.889 189.965L150.945 181.526H165.779V209.906H124.067V179.36L134.268 169.178Z"  class="fill JMHVmEkb_2"></path>
<path d="M-0.00311279 136H24.625C24.625 136 30.4358 141.362 31.0556 141.906H5.0652C5.0652 141.906 0.0420823 136.087 -0.00311279 136ZM14.766 144.126H5.13945C4.2872 146.675 0.571511 158.172 0.571511 158.172L7.06993 164.845H25.629L27.6821 157.489H10.4241L14.766 144.126ZM54.796 136C57.1461 138.301 59.4672 140.572 61.7593 142.812C56.9363 160.601 55.8258 164.239 55.687 164.845H47.0224L50.7091 151.083H42.0413L38.3546 164.845H29.4318L35.1296 144.123H52.5911L54.7992 136H54.796ZM35.3137 141.906H44.5302C44.8563 140.695 45.3567 138.839 46.125 136H28.9024C28.9476 136.103 35.3104 141.906 35.3104 141.906H35.3137ZM82.6071 144.181L82.6007 144.204H65.1554L59.422 164.845H68.3416L72.0282 151.083H80.696L77.0094 164.845H85.8128C85.9483 164.223 87.1783 159.66 89.4994 151.151C89.4994 151.028 88.3631 149.871 86.0872 147.677C86.255 147.51 88.0047 146.375 91.3427 144.271L91.8399 142.812C89.551 140.572 87.23 138.301 84.8766 136H59.4188C59.464 136.103 61.459 138.075 65.3942 141.906H83.2302L82.6039 144.181H82.6071ZM108.888 158.017H100.069C102.616 148.528 102.393 149.085 102.487 148.914C103.061 146.636 103.497 145.128 103.8 144.204H94.8905C94.3837 146.027 93.3507 149.746 91.1103 158.017C91.7107 158.681 94.0738 161.014 98.193 165.019H106.874L116.752 158.017C117.123 156.77 117.679 155.017 121.152 142.122C118.821 139.841 117.307 138.343 114.915 136H89.0087C89.0539 136.103 91.0489 138.075 94.9841 141.906H113.343L108.888 158.017ZM133.319 144.204C132.338 147.535 130.34 154.463 127.563 164.845H118.46L124.2 144.204H133.323H133.319ZM141.764 144.204L136.067 164.845H145.038L150.716 144.204H141.764ZM153.421 164.845H161.779C161.915 164.239 167.742 142.963 167.742 142.812C167.742 142.812 163.132 138.301 160.779 136H152.179C151.601 136.303 149.806 137.437 146.787 139.406C146.742 139.377 145.58 138.239 143.307 136H118.892C118.938 136.103 120.933 138.075 124.868 141.906H151.549C151.549 141.906 151.549 141.906 151.549 141.903H155.513L159.529 141.906H159.794L153.415 164.845H153.421ZM176.251 158.136H195.298C195.298 158.136 189.313 164.381 189.177 165.015H165.605L171.274 144.123H179.964C179.948 144.191 179.932 144.255 179.915 144.326C179.938 144.258 179.957 144.191 179.98 144.123H188.745C188.654 144.587 188.028 146.946 186.898 151.015H178.163L176.255 158.136H176.251ZM171.028 141.906H198C197.561 141.423 196.147 140.128 191.899 136H164.985C165.03 136.106 166.886 137.879 171.028 141.906Z"  class="fill JMHVmEkb_3"></path>
</g>
<path d="M87.2526 177.104H86.7526V177.604V201.481V201.981H87.2526H111.174H111.674V201.481V177.604V177.104H111.174H87.2526ZM119.238 169.559V209.529H79.1913V169.559H119.238ZM99.2164 183.118L105.775 189.665L99.2164 196.212L92.6574 189.665L99.2164 183.118Z"  class="stroke JMHVmEkb_4"></path>
<path d="M59.6363 177.25L59.4899 177.104H59.2832H46.3187H41.6184H19.6516L12.2203 169.798H63.6959L73.604 179.69V209.529H32.8889V182.329H45.9678L41.2751 186.759L41.1184 186.907V187.123V201.51V202.01H41.6184H65.3264H65.8264V201.51V183.633V183.426L65.6796 183.279L59.6363 177.25Z"  class="stroke JMHVmEkb_5"></path>
<path d="M138.885 176.985H138.678L138.532 177.131L132.492 183.16L132.345 183.306V183.514V201.39V201.89H132.845H156.55H157.05V201.39V189.968V189.468L156.55 189.468L141.368 189.465L151.114 182.026H165.279V209.406H124.567V179.568L134.475 169.678H185.951L178.52 176.985H156.55H151.849H138.885Z"  class="stroke JMHVmEkb_6"></path>
<path d="M27.0235 157.989L25.2494 164.345H7.28093L1.13997 158.039L1.20858 157.826L1.64112 156.489C2.00276 155.372 2.49382 153.855 3.0115 152.259C3.96561 149.317 5.00905 146.108 5.50005 144.626H14.0778L9.94853 157.334L9.73584 157.989H10.4241H27.0235ZM53.0736 144.254L55.0576 136.956C57.1276 138.982 59.175 140.986 61.1999 142.964C57.8179 155.435 56.2818 160.87 55.6265 163.189C55.4752 163.724 55.3709 164.093 55.3016 164.345H47.674L51.192 151.212L51.3606 150.583H50.7091H42.0413H41.6576L41.5583 150.954L37.971 164.345H30.0879L35.5107 144.623H52.5911H52.9733L53.0736 144.254ZM83.0878 144.319L83.2703 143.681H83.2602L83.7122 142.039L83.8864 141.406H83.2302H65.5975C63.7024 139.561 62.2695 138.158 61.2993 137.199C61.0279 136.931 60.7932 136.698 60.5949 136.5H84.6728C86.5081 138.294 88.3237 140.071 90.1198 141.828L91.265 142.949L90.9264 143.943C89.3302 144.949 88.1061 145.729 87.2542 146.281C86.8153 146.565 86.4731 146.791 86.2289 146.956C86.1071 147.039 86.007 147.109 85.9304 147.164C85.8648 147.212 85.7871 147.27 85.7339 147.323L85.3732 147.683L85.7401 148.037C86.8772 149.133 87.7264 149.967 88.2901 150.541C88.5727 150.829 88.7788 151.046 88.9125 151.197C88.9281 151.214 88.9423 151.231 88.9552 151.246C86.9499 158.598 85.7682 162.972 85.42 164.345H77.661L81.179 151.212L81.3476 150.583H80.696H72.0283H71.6446L71.5453 150.954L67.9579 164.345H60.0798L65.5354 144.704H82.6007H82.9777L83.0814 144.341L83.0878 144.319ZM108.888 158.517H109.269L109.37 158.15L113.825 142.039L114 141.406H113.343H95.1874C93.2923 139.561 91.8594 138.158 90.8892 137.199C90.6178 136.931 90.3831 136.698 90.1848 136.5H114.711C115.809 137.576 116.728 138.479 117.637 139.373C118.573 140.292 119.497 141.201 120.593 142.275C117.435 153.995 116.734 156.334 116.356 157.595C116.345 157.634 116.333 157.672 116.322 157.709L106.714 164.519H98.396C94.7012 160.926 92.4628 158.719 91.6655 157.88C93.7165 150.31 94.7376 146.622 95.2705 144.704H103.118C102.833 145.636 102.467 146.949 102.017 148.733C102.01 148.747 102.003 148.762 101.996 148.78C101.975 148.831 101.96 148.888 101.944 148.945C101.927 149.011 101.9 149.114 101.859 149.278C101.823 149.418 101.776 149.603 101.713 149.847C101.44 150.913 100.859 153.144 99.5857 157.887L99.4167 158.517H100.069H108.888ZM124.579 144.704H132.651C131.627 148.2 129.739 154.784 127.18 164.345H119.118L124.579 144.704ZM167.188 142.969C167.146 143.131 167.085 143.36 167.008 143.648C166.849 144.245 166.621 145.09 166.347 146.102C165.798 148.127 165.066 150.82 164.329 153.526L163.934 154.977C162.797 159.153 161.723 163.098 161.392 164.345H154.073L160.276 142.04L160.452 141.406H159.794H159.53H159.529L155.514 141.403H155.513H151.549H151.049V141.406H125.071C123.176 139.561 121.743 138.158 120.773 137.199C120.501 136.931 120.267 136.698 120.068 136.5H143.102C144.167 137.549 144.977 138.345 145.533 138.889C145.823 139.173 146.045 139.389 146.197 139.536C146.273 139.609 146.332 139.666 146.375 139.707C146.396 139.727 146.415 139.744 146.43 139.758C146.437 139.765 146.446 139.772 146.455 139.78L146.455 139.78C146.458 139.782 146.484 139.805 146.517 139.827L146.79 140.001L147.061 139.825C149.919 137.96 151.655 136.861 152.305 136.5H160.575C161.746 137.645 163.405 139.268 164.793 140.626L166.635 142.428L167.188 142.969ZM179.964 144.623V144.365L179.98 144.37V144.623H188.112C187.869 145.584 187.335 147.567 186.518 150.515H178.163H177.779L177.68 150.886L175.772 158.007L176.251 158.135V158.136V158.636H176.255H176.638H194.132C194.088 158.682 194.044 158.729 193.997 158.778C193.433 159.374 192.679 160.176 191.921 160.999C191.163 161.82 190.398 162.665 189.812 163.347C189.519 163.687 189.267 163.991 189.082 164.234C189.005 164.335 188.936 164.43 188.879 164.515H166.259L171.656 144.623H179.964ZM1.18778 136.634C1.14834 136.588 1.10998 136.544 1.07278 136.5H24.4296L24.5369 136.599L25.2037 137.214C25.7582 137.725 26.504 138.412 27.2693 139.117C28.1626 139.939 29.086 140.788 29.7616 141.406H5.29415L5.22784 141.329L4.65828 140.669C4.18672 140.122 3.55753 139.392 2.92696 138.66C2.29632 137.927 1.66458 137.192 1.18778 136.634ZM45.4717 136.5C44.8693 138.726 44.4454 140.298 44.147 141.406H35.5042L35.374 141.287L34.6528 140.629C34.0557 140.083 33.2592 139.355 32.4613 138.623C31.6632 137.892 30.8644 137.157 30.2625 136.6C30.226 136.566 30.1902 136.532 30.1551 136.5H45.4717ZM150.06 144.704L144.657 164.345H136.723L142.145 144.704H150.06ZM166.178 136.5H191.696C193.724 138.47 195.086 139.775 195.998 140.648C196.312 140.949 196.572 141.198 196.788 141.406H171.231C170.032 140.24 169.026 139.265 168.206 138.47C167.663 137.943 167.201 137.496 166.819 137.124C166.574 136.886 166.361 136.678 166.178 136.5Z"  class="stroke JMHVmEkb_7"></path>
<g opacity="0.1">
<path fill-rule="evenodd" clip-rule="evenodd" d="M74.9655 70.6897L54.4655 89.7759L43.1552 50.1897L54.3616 21.1549L44.569 16.2586L29.0172 33.2241L31.8448 46.6552L40.3276 28.2759L48.1034 29.6897L40.3276 50.1897L48.1034 77.7586L33.9655 88.3621L17 33.2241L42.4483 1.41379C42.4483 1.41379 54.1828 9.33103 58.7069 9.89655L96.1724 0L99 28.9828L101.828 0L139.293 9.89655C143.817 9.33103 155.552 1.41379 155.552 1.41379L181 33.2241L164.034 88.3621L149.897 77.7586L157.672 50.1897L149.897 29.6897L157.672 28.2759L166.155 46.6552L168.983 33.2241L153.431 16.2586L143.638 21.1549L154.845 50.1897L143.534 89.7759L123.034 70.6897L143.534 97.5517L126.569 126.534L101.121 102.5L103.948 83.4138L108.19 86.2414L117.379 79.8793L110.31 71.3966H87.6897L80.6207 79.8793L89.8103 86.2414L94.0517 83.4138L96.8793 102.5L71.431 126.534L54.4655 97.5517L74.9655 70.6897ZM84.9993 62.1314L99 50.1897L113.001 62.1314L99 54.431L84.9993 62.1314ZM69.3103 60.7931L55.1724 48.8466L62.9483 45.2414L87.6896 48.8466L69.3103 60.7931ZM128.69 60.7931L142.828 48.8466L135.052 45.2414L110.31 48.8466L128.69 60.7931Z"  class="fill JMHVmEkb_8"></path>
<path d="M99 127.948L118.793 123.707L99 106.034L79.2069 123.707L99 127.948Z"  class="fill JMHVmEkb_9"></path>
</g>
<path fill-rule="evenodd" clip-rule="evenodd" d="M74.9655 70.6897L54.4655 89.7759L43.1552 50.1897L54.3616 21.1549L44.569 16.2586L29.0172 33.2241L31.8448 46.6552L40.3276 28.2759L48.1034 29.6897L40.3276 50.1897L48.1034 77.7586L33.9655 88.3621L17 33.2241L42.4483 1.41379C42.4483 1.41379 54.1828 9.33103 58.7069 9.89655L96.1724 0L99 28.9828L101.828 0L139.293 9.89655C143.817 9.33103 155.552 1.41379 155.552 1.41379L181 33.2241L164.034 88.3621L149.897 77.7586L157.672 50.1897L149.897 29.6897L157.672 28.2759L166.155 46.6552L168.983 33.2241L153.431 16.2586L143.638 21.1549L154.845 50.1897L143.534 89.7759L123.034 70.6897L143.534 97.5517L126.569 126.534L101.121 102.5L103.948 83.4138L108.19 86.2414L117.379 79.8793L110.31 71.3966H87.6897L80.6207 79.8793L89.8103 86.2414L94.0517 83.4138L96.8793 102.5L71.431 126.534L54.4655 97.5517L74.9655 70.6897ZM84.9993 62.1314L99 50.1897L113.001 62.1314L99 54.431L84.9993 62.1314ZM69.3103 60.7931L55.1724 48.8466L62.9483 45.2414L87.6896 48.8466L69.3103 60.7931ZM128.69 60.7931L142.828 48.8466L135.052 45.2414L110.31 48.8466L128.69 60.7931Z"  class="stroke JMHVmEkb_10"></path>
<path d="M99 127.948L118.793 123.707L99 106.034L79.2069 123.707L99 127.948Z"  class="stroke JMHVmEkb_11"></path>
</g>
<defs>
<clipPath id="clip0_57_143">
<path width="198" height="210" fill="white" d="M0 0 L198 0 L198 210 L0 210 Z" class="JMHVmEkb_12"></path>
</clipPath>
</defs>
<style data-made-with="vivus-instant">
.JMHVmEkb_0{stroke-dasharray:301 303;stroke-dashoffset:302;animation:JMHVmEkb_draw 1333ms ease-in 0ms forwards;}.JMHVmEkb_1{stroke-dasharray:307 309;stroke-dashoffset:308;animation:JMHVmEkb_draw 1333ms ease-in 55ms forwards;}.JMHVmEkb_2{stroke-dasharray:327 329;stroke-dashoffset:328;animation:JMHVmEkb_draw 1333ms ease-in 111ms forwards;}.JMHVmEkb_3{stroke-dasharray:1151 1153;stroke-dashoffset:1152;animation:JMHVmEkb_draw 1333ms ease-in 166ms forwards;}.JMHVmEkb_4{stroke-dasharray:297 299;stroke-dashoffset:298;animation:JMHVmEkb_draw 1333ms ease-in 222ms forwards;}.JMHVmEkb_5{stroke-dasharray:301 303;stroke-dashoffset:302;animation:JMHVmEkb_draw 1333ms ease-in 277ms forwards;}.JMHVmEkb_6{stroke-dasharray:321 323;stroke-dashoffset:322;animation:JMHVmEkb_draw 1333ms ease-in 333ms forwards;}.JMHVmEkb_7{stroke-dasharray:1100 1102;stroke-dashoffset:1101;animation:JMHVmEkb_draw 1333ms ease-in 388ms forwards;}.JMHVmEkb_8{stroke-dasharray:1396 1398;stroke-dashoffset:1397;animation:JMHVmEkb_draw 1333ms ease-in 444ms forwards;}.JMHVmEkb_9{stroke-dasharray:94 96;stroke-dashoffset:95;animation:JMHVmEkb_draw 1333ms ease-in 499ms forwards;}.JMHVmEkb_10{stroke-dasharray:1396 1398;stroke-dashoffset:1397;animation:JMHVmEkb_draw 1333ms ease-in 555ms forwards;}.JMHVmEkb_11{stroke-dasharray:94 96;stroke-dashoffset:95;animation:JMHVmEkb_draw 1333ms ease-in 611ms forwards;}.JMHVmEkb_12{stroke-dasharray:816 818;stroke-dashoffset:817;animation:JMHVmEkb_draw 1333ms ease-in 666ms forwards;}@keyframes JMHVmEkb_draw{100%{stroke-dashoffset:0;}}@keyframes JMHVmEkb_fade{0%{stroke-opacity:1;}93.54838709677419%{stroke-opacity:1;}100%{stroke-opacity:0;}}</style></svg>
