<?xml version="1.0" encoding="UTF-8"?>
<svg id="Layer_2" data-name="Layer 2" xmlns="http://www.w3.org/2000/svg" viewBox="0 0 444.63 477.91">
  <defs>
    <style>
      .cls-1 {
        fill: #202020;
        stroke-width: 0px;
      }
      @media(prefers-color-scheme: dark) {
        .cls-1 {
          fill: #627bff;
        }
      }
    </style>
  </defs>
  <g id="ChromeDog_Icon_DM" data-name="ChromeDog Icon DM">
    <g id="Dog">
      <path class="cls-1" d="m270.69,477.91h-96.17v-96.17h96.17v96.17Zm-92.17-4h88.17v-88.17h-88.17v88.17Z"/>
      <path class="cls-1" d="m251.47,458.69h-57.72v-57.72h57.72v57.72Zm-53.72-4h49.72v-49.72h-49.72v49.72Z"/>
      <rect class="cls-1" x="211.07" y="418.56" width="23.08" height="23.08" transform="translate(369.32 -31.43) rotate(45)"/>
      <path class="cls-1" d="m168.22,477.91h-97.67v-67.44h40.33l-15.61,14.77v29.5h49.23v-37.39l-12.39-12.39H42.66l-23.03-22.69h124.5l24.08,24.08v71.55Zm-93.67-4h89.67v-65.9l-21.74-21.74H29.39l14.91,14.69h89.47l14.74,14.74v43.04h-57.23v-35.23l9.56-9.05h-26.29v59.44Z"/>
      <path class="cls-1" d="m374.08,477.64h-97.67v-71.55l24.08-24.08h124.5l-23.03,22.69h-89.45l-12.39,12.39v37.39h49.23v-21.7h-41.32s30.06-22.99,30.06-22.99h35.99v67.85Zm-93.67-4h89.67v-59.85h-30.63l-19.6,14.98h33.51v29.71h-57.23v-43.04l14.74-14.74h89.47l14.91-14.69h-113.09l-21.74,21.74v65.89Z"/>
    </g>
    <path id="Chrome" class="cls-1" d="m0,309.37h55.31s13.05,12.06,14.44,13.29H11.38S.1,309.56,0,309.37Zm33.17,18.28H11.55c-1.91,5.73-10.26,31.6-10.26,31.6l14.59,15.01h41.68l4.61-16.55H23.42l9.75-30.06Zm89.89-18.28c5.28,5.18,10.49,10.29,15.63,15.33-10.83,40.02-13.33,48.2-13.63,49.57h-19.46l8.28-30.96h-19.46l-8.28,30.96h-20.04l12.8-46.62h39.21l4.96-18.28Zm-43.75,13.29h20.7c.73-2.73,1.86-6.9,3.58-13.29h-38.67c.1.23,14.39,13.29,14.39,13.29Zm106.2,5.12s-.01.05-.01.05h-39.17l-12.88,46.44h20.03l8.28-30.96h19.46l-8.28,30.96h19.77c.31-1.4,3.07-11.67,8.28-30.81,0-.27-2.55-2.88-7.66-7.82.37-.37,4.31-2.93,11.8-7.66l1.12-3.28c-5.14-5.04-10.35-10.15-15.63-15.33h-57.17c.1.23,4.58,4.67,13.42,13.29h40.05l-1.41,5.12Zm59.01,31.13h-19.81c5.72-21.35,5.22-20.09,5.43-20.48,1.29-5.12,2.27-8.52,2.95-10.6h-20.01c-1.14,4.11-3.45,12.47-8.49,31.07,1.35,1.49,6.65,6.74,15.91,15.75h19.49l22.19-15.75c.83-2.81,2.08-6.75,9.88-35.76-5.23-5.13-8.63-8.5-14-13.77h-58.17c.1.23,4.58,4.67,13.42,13.29h41.22l-10.01,36.24Zm54.86-31.07c-2.2,7.49-6.69,23.08-12.93,46.44h-20.44l12.89-46.44h20.48Zm18.96,0l-12.8,46.44h20.15l12.75-46.44h-20.1Zm26.18,46.44h18.77c.31-1.36,13.39-49.23,13.39-49.57,0,0-10.35-10.15-15.63-15.33h-19.31c-1.29.68-5.33,3.24-12.11,7.66-.1-.07-2.71-2.62-7.82-7.66h-54.83c.1.23,4.58,4.67,13.42,13.29h59.91s0,0,0,0h8.9s9.02,0,9.02,0h.6s-14.33,51.61-14.33,51.61Zm51.27-15.09h42.77s-13.44,14.05-13.74,15.48h-52.94l12.73-47h19.51c-.04.15-.07.3-.11.45.05-.15.1-.3.15-.45h19.68c-.2,1.05-1.61,6.35-4.15,15.5h-19.62l-4.29,16.02Zm-11.73-36.51h60.57c-.99-1.09-4.16-4-13.7-13.29h-60.44c.1.24,4.27,4.23,13.57,13.29Z"/>
    <g>
      <path class="cls-1" d="m192.18,142.76h-36.11l-12.9,9.86,21.39,17.26,37.94-17.26-10.32-9.86Z"/>
      <path class="cls-1" d="m302.51,152.63l-12.9-9.86h-36.11l-10.32,9.86,37.94,17.26,21.39-17.26Z"/>
      <path class="cls-1" d="m340.88,193.86l-12.15-41.66v-46L322.85,0l-35.72,49-19.16,13.8h-30.38l-14.76,4.34-14.76-4.34h-28.32l-21.62-15.96L122.82.24l-5.88,105.96v46l-12.15,41.66,29.51,37.32-7.81,9.55,36.45,48.61,19.96-14.76,39.93,19.09,39.93-19.09,19.96,14.76,36.45-48.61-7.81-9.55,29.51-37.32Zm-50.57-141.82l29.45-39.81,3.1,94.93-12.4-9.19v-30.62l-3.1-16.84-9.3,13.78-18.6,10.72-10.85-7.66,21.7-15.31ZM125.92,12.24l29.45,39.81,21.7,15.31-10.85,7.66-18.6-10.72-9.3-13.78-3.1,16.84v30.62l-12.4,9.19,3.1-94.93Zm96.91,274.62l-33.9-16.35,33.9-22.64,33.9,22.64-33.9,16.35Zm89.52-48.31l-10.53,15.8-21.06,27.65-18.43-14.48-36.86-23.7v-15.8l10.93-20.83-6.78-6.78,2.54-4.24,6.47,8.15,14.48-5.27,2.63-9.21-13.16-13.16h-39.49l-13.16,13.16,2.63,9.21,14.48,5.27,6.47-8.15,2.54,4.24-6.78,6.78,10.93,20.83v15.8l-36.86,23.7-18.43,14.48-21.06-27.65-10.53-15.8,56.61-67.14-53.97,52.66-25.01-31.59,11.85-39.49v-42.13l57.92-43.44h26.33l10.53,14.48,2.63,23.7-21.06-5.27,21.06,17.11v19.75l-3.95,21.06-14.48,9.21,11.85-3.95h18.43l11.85,3.95-14.48-9.21-3.95-21.06v-19.75l21.06-17.11-21.06,5.27,2.63-23.7,10.53-14.48h26.33l57.92,43.44v42.13l11.85,39.49-25.01,31.59-53.97-52.66,56.61,67.14Z"/>
    </g>
  </g>
</svg>