<svg width="208" height="240" viewBox="0 0 208 240" fill="none" xmlns="http://www.w3.org/2000/svg">
<path d="M123.9 188.687V228H84.5125V188.687H123.9ZM92.7275 196.887V219.797H115.681V196.887H92.7275ZM111.18 208.459L104.208 201.5L97.2347 208.459L104.208 215.419L111.18 208.459Z" fill="#303030"/>
<path d="M70.3219 188.916H19.5569L27.6636 196.886H48.9385H53.4488H65.8891L71.688 202.671V219.825H48.9385V206.02L54.3192 200.94H40.0822V228H80.1106V198.689L70.3219 188.916Z" fill="#303030"/>
<path d="M137.842 188.801H188.607L180.501 196.772H159.223H154.712H142.272L136.476 202.557V219.711H159.223V208.75L143.235 208.747L153.845 200.649H168.079V227.882H128.054V198.572L137.842 188.801Z" fill="#303030"/>
<path d="M9 156.964H32.6323C32.6323 156.964 38.2081 162.109 38.8029 162.632H13.8634C13.8634 162.632 9.04337 157.048 9 156.964ZM23.1719 164.762H13.9346C13.1168 167.208 9.55139 178.239 9.55139 178.239L15.787 184.643H33.5957L35.5658 177.584H19.0055L23.1719 164.762ZM61.5833 156.964C63.8384 159.172 66.0657 161.352 68.265 163.501C63.6371 180.571 62.5715 184.061 62.4383 184.643H54.1241L57.6616 171.437H49.3443L45.8068 184.643H37.2448L42.7122 164.759H59.4676L61.5864 156.964H61.5833ZM42.8887 162.632H51.7327C52.0455 161.469 52.5257 159.688 53.2629 156.964H36.7367C36.7801 157.063 42.8856 162.632 42.8856 162.632H42.8887ZM88.2699 164.815L88.2637 164.836H71.5238L66.0223 184.643H74.5812L78.1188 171.437H86.4361L82.8985 184.643H91.3459C91.476 184.046 92.6563 179.668 94.8835 171.502C94.8835 171.385 93.7931 170.275 91.6092 168.169C91.7703 168.008 93.4493 166.92 96.6523 164.901L97.1293 163.501C94.9331 161.352 92.7058 159.172 90.4476 156.964H66.0192C66.0626 157.063 67.9769 158.956 71.753 162.632H88.8678L88.2668 164.815H88.2699ZM113.488 178.091H105.025C107.469 168.986 107.256 169.52 107.346 169.357C107.897 167.171 108.315 165.724 108.606 164.836H100.057C99.5703 166.586 98.579 170.154 96.4292 178.091C97.0054 178.728 99.2729 180.967 103.226 184.81H111.555L121.034 178.091C121.39 176.895 121.923 175.213 125.256 162.839C123.02 160.65 121.567 159.212 119.272 156.964H94.4127C94.456 157.063 96.3704 158.956 100.146 162.632H117.763L113.488 178.091ZM136.932 164.836C135.99 168.033 134.072 174.681 131.408 184.643H122.673L128.181 164.836H136.935H136.932ZM145.035 164.836L139.568 184.643H148.176L153.625 164.836H145.035ZM156.221 184.643H164.241C164.371 184.061 169.962 163.646 169.962 163.501C169.962 163.501 165.539 159.172 163.281 156.964H155.028C154.474 157.255 152.751 158.343 149.855 160.232C149.812 160.205 148.697 159.113 146.516 156.964H123.088C123.131 157.063 125.046 158.956 128.822 162.632H154.424C154.424 162.632 154.424 162.632 154.424 162.629H158.228L162.082 162.632H162.336L156.215 184.643H156.221ZM178.128 178.205H196.404C196.404 178.205 190.661 184.198 190.531 184.807H167.912L173.351 164.759H181.69C181.675 164.824 181.659 164.886 181.644 164.954C181.665 164.889 181.684 164.824 181.706 164.759H190.116C190.029 165.204 189.428 167.467 188.344 171.372H179.962L178.131 178.205H178.128ZM173.116 162.632H198.997C198.576 162.168 197.219 160.925 193.142 156.964H167.317C167.36 157.066 169.141 158.767 173.116 162.632Z" fill="#303030"/>
<path fill-rule="evenodd" clip-rule="evenodd" d="M104 144L82.5 140L75 144L54.5 110L56.5 106L53 96.5L37 106L16 43.5L46 8.5L64 17.5L104 8.5L144 17.5L162 8.5L192 43.5L171 106L155 96.5L151.5 106L153.5 110L133 144L125.5 140L104 144Z" fill="#323232"/>
<path fill-rule="evenodd" clip-rule="evenodd" d="M79.9655 82.6897L59.4655 101.776L48.1552 62.1897L59.3616 33.1549L49.569 28.2586L34.0172 45.2241L36.8448 58.6552L45.3276 40.2759L53.1034 41.6897L45.3276 62.1897L53.1034 89.7586L38.9655 100.362L22 45.2241L47.4483 13.4138C47.4483 13.4138 59.1828 21.331 63.7069 21.8966L101.172 12L104 40.9828L106.828 12L144.293 21.8966C148.817 21.331 160.552 13.4138 160.552 13.4138L186 45.2241L169.034 100.362L154.897 89.7586L162.672 62.1897L154.897 41.6897L162.672 40.2759L171.155 58.6552L173.983 45.2241L158.431 28.2586L148.638 33.1549L159.845 62.1897L148.534 101.776L128.034 82.6897L148.534 109.552L131.569 138.534L106.121 114.5L108.948 95.4138L113.19 98.2414L122.379 91.8793L115.31 83.3966H92.6897L85.6207 91.8793L94.8103 98.2414L99.0517 95.4138L101.879 114.5L76.431 138.534L59.4655 109.552L79.9655 82.6897ZM89.9993 74.1314L104 62.1897L118.001 74.1314L104 66.431L89.9993 74.1314ZM74.3103 72.7931L60.1724 60.8466L67.9483 57.2414L92.6896 60.8466L74.3103 72.7931ZM133.69 72.7931L147.828 60.8466L140.052 57.2414L115.31 60.8466L133.69 72.7931Z" fill="#EDEDED"/>
<path d="M104 139.948L123.793 135.707L104 118.034L84.2069 135.707L104 139.948Z" fill="#EDEDED"/>
</svg>
