<?xml version="1.0" encoding="UTF-8"?>
<svg id="Layer_2" data-name="Layer 2" xmlns="http://www.w3.org/2000/svg" viewBox="0 0 613.36 691.42">
  <defs>
    <style>
      .cls-1, .cls-2 {
        fill: #f3f3f3;
      }

      .cls-1, .cls-2, .cls-3 {
        stroke-width: 0px;
      }

      .cls-2 {
        fill-rule: evenodd;
      }

      .cls-3 {
        fill: #303030;
      }
    </style>
  </defs>
  <g id="ChromeDog_Font_Mix" data-name="ChromeDog Font Mix">
    <g id="Dog">
      <path class="cls-3" d="m370.92,564.27v127.15h-127.15v-127.15h127.15Zm-100.63,26.52v74.1h74.1v-74.1h-74.1Zm59.57,37.43l-22.51-22.51-22.51,22.51,22.51,22.51,22.51-22.51Z"/>
      <polygon class="cls-3" points="197.96 565.02 34.08 565.02 60.25 590.79 128.93 590.79 143.49 590.79 183.65 590.79 202.37 609.51 202.37 664.98 128.93 664.98 128.93 620.34 146.3 603.9 100.34 603.9 100.34 691.42 229.56 691.42 229.56 596.62 197.96 565.02"/>
      <polygon class="cls-3" points="415.93 564.65 579.81 564.65 553.64 590.42 484.95 590.42 470.39 590.42 430.23 590.42 411.52 609.13 411.52 664.61 484.95 664.61 484.95 629.16 433.34 629.15 467.59 602.97 513.54 602.97 513.54 691.05 384.33 691.05 384.33 596.25 415.93 564.65"/>
    </g>
    <path id="Chrome" class="cls-3" d="m0,461.67h76.29s18,16.64,19.92,18.33H15.7S.14,461.94,0,461.67Zm45.75,25.22H15.93c-2.64,7.91-14.15,43.59-14.15,43.59l20.13,20.71h57.49l6.36-22.83h-53.46l13.45-41.47Zm124-25.22c7.28,7.14,14.47,14.19,21.57,21.14-14.94,55.21-18.38,66.5-18.81,68.38h-26.84l11.42-42.71h-26.85l-11.42,42.71h-27.64l17.65-64.31h54.09l6.84-25.21Zm-60.35,18.33h28.55c1.01-3.76,2.56-9.52,4.94-18.33h-53.35c.14.32,19.85,18.33,19.85,18.33Zm146.5,7.06s-.02.07-.02.07h-54.04l-17.76,64.06h27.63l11.42-42.71h26.85l-11.42,42.71h27.27c.42-1.93,4.23-16.09,11.42-42.5,0-.38-3.52-3.97-10.57-10.78.52-.52,5.94-4.04,16.28-10.57l1.54-4.53c-7.09-6.95-14.28-14-21.57-21.14h-78.86c.14.32,6.32,6.44,18.51,18.33h55.25l-1.94,7.06Zm81.41,42.94h-27.32c7.89-29.45,7.2-27.72,7.49-28.25,1.78-7.07,3.13-11.75,4.07-14.62h-27.6c-1.57,5.66-4.77,17.2-11.71,42.87,1.86,2.06,9.18,9.3,21.94,21.73h26.89l30.6-21.73c1.15-3.87,2.87-9.31,13.63-49.33-7.22-7.08-11.91-11.73-19.32-19h-80.25c.14.32,6.32,6.44,18.51,18.33h56.87l-13.8,50Zm75.68-42.87c-3.04,10.34-9.23,31.84-17.83,64.06h-28.2l17.78-64.06h28.26Zm26.16,0l-17.65,64.06h27.79l17.59-64.06h-27.73Zm36.11,64.06h25.89c.42-1.88,18.47-67.91,18.47-68.38,0,0-14.28-14-21.57-21.14h-26.64c-1.79.94-7.35,4.46-16.7,10.57-.14-.09-3.74-3.62-10.78-10.57h-75.63c.14.32,6.32,6.44,18.51,18.33h82.65s0,0,0-.01h12.28s12.44.01,12.44.01h.82s-19.76,71.19-19.76,71.19Zm70.72-20.82h59s-18.54,19.38-18.96,21.35h-73.02l17.56-64.84h26.92c-.05.21-.1.41-.15.63.07-.21.13-.42.2-.63h27.15c-.28,1.44-2.22,8.76-5.72,21.39h-27.06l-5.91,22.1Zm-16.18-50.37h83.55c-1.36-1.5-5.74-5.52-18.9-18.33h-83.37c.14.33,5.89,5.83,18.72,18.33Z"/>
  </g>
  <g id="Layer_29" data-name="Layer 29">
    <path class="cls-3" d="m306.68,430.01V89.27l-15.17-7.47h-44.93l-34.29-16.77L158.49,0l-11.23,156.08v59.71l-15.96,57.94,36.06,56.17v21.28l54.73,68.86,30.4-19.2,54.19,29.16Z"/>
    <path class="cls-3" d="m360.87,400.85l-54.19,29.16V89.27l15.17-7.47h44.93l34.29-16.77L454.87,0l11.23,156.08v59.71l15.96,57.94-36.07,56.17v21.28l-55.23,68.86-29.9-19.2Z"/>
    <path class="cls-1" d="m446.42,28.39l3.78,117.08-15.11-11.33v-37.77l-3.78-20.77-11.33,17-22.66,13.22-13.22-9.44,26.44-18.88,35.88-49.1Z"/>
    <path class="cls-1" d="m389.77,230.45l11.33-11.06-9.1-9.71h-15.45l-12.36,9.71,25.58,11.06Z"/>
    <path class="cls-1" d="m212.26,219.39l11.33,11.06,25.58-11.06-12.36-9.71h-15.45l-9.1,9.71Z"/>
    <path class="cls-2" d="m367.11,94.49h-37.77l-15.11,20.77-3.78,33.99,30.21-7.55-30.21,24.55v28.33l5.67,30.21,20.77,13.22-17-5.67h-26.44l-17,5.67,20.77-13.22,5.67-30.21v-28.33l-30.21-24.55,30.21,7.55-3.78-33.99-15.11-20.77h-37.77l-83.09,62.32v60.43l-17,56.65,35.88,45.32,77.42-75.53-81.2,96.31,15.11,22.66,30.21,39.66,26.44-20.77,52.87-33.99v-22.66l-15.11-28.33,9.44-9.44-3.78-9.44-9.44,13.22-20.77-7.55-3.78-13.22,18.88-18.88h56.65l18.88,18.88-3.78,13.22-20.77,7.55-9.44-13.22-3.78,9.44,9.44,9.44-15.11,28.33v22.66l52.88,33.99,26.44,20.77,30.21-39.66,15.11-22.66-81.2-96.31,77.42,75.53,35.88-45.32-17-56.65v-60.43l-83.09-62.32Zm41.54,107.64l18.89,15.11-31.32,26.44-55.54-26.44,15.11-15.11h52.87Zm-222.83,15.11l18.88-15.11h52.87l15.11,15.11-55.55,26.44-31.32-26.44Z"/>
    <path class="cls-1" d="m306.68,355.08l50.99,33.99-50.99,24.55-50.99-24.55,50.99-33.99Z"/>
    <path class="cls-1" d="m163.16,145.47l3.78-117.08,35.88,49.1,26.44,18.88-13.22,9.44-22.66-13.22-11.33-17-3.78,20.77v37.77l-15.11,11.33Z"/>
  </g>
</svg>