<?xml version="1.0" encoding="UTF-8"?>
<svg id="Layer_2" data-name="Layer 2" xmlns="http://www.w3.org/2000/svg" viewBox="0 0 276.44 432.89">
  <defs>
    <style>
      .cls-1 {
        stroke-width: 0px;
      }
      @media(prefers-color-scheme: dark) {
        path, polygon {
          fill: #fff;
        }
      }
    </style>
  </defs>
  <g id="Layer_1-2" data-name="Layer 1">
    <g id="Layer_2-2" data-name="Layer 2">
      <g id="Layer_1-2" data-name="Layer 1-2">
        <g id="Layer_2-2" data-name="Layer 2-2">
          <g id="Layer_1-2-2" data-name="Layer 1-2-2">
            <g id="Layer_15" data-name="Layer 15">
              <g>
                <polygon class="cls-1" points="117.85 357.7 138.15 432.89 134.29 335.64 117.85 357.7"/>
                <polygon class="cls-1" points="158.44 357.7 142 335.64 138.15 432.89 158.44 357.7"/>
              </g>
              <polygon class="cls-1" points="55.71 262.91 36.98 278.15 0 279.4 86.03 155.71 55.71 262.91"/>
              <path class="cls-1" d="m94.98,137.26l-36.03,128.22,59.6,48.24,19.72-21.52,19.61,21.52,59.61-48.24-35.98-128.22-43.24-43.55-43.29,43.55Zm75.67,18.45l-32.38,61.84-32.52-61.84,32.52-30.77,32.38,30.77Z"/>
              <polygon class="cls-1" points="220.72 262.91 239.46 278.15 276.44 279.4 190.4 155.71 220.72 262.91"/>
              <polygon class="cls-1" points="138.27 0 95.07 131.2 138.27 77.7 181.48 131.2 138.27 0"/>
            </g>
          </g>
        </g>
      </g>
    </g>
  </g>
</svg>