<svg xmlns="http://www.w3.org/2000/svg" viewBox="0 0 1226.55 299.52"><defs><style>.cls-1{fill:#fff;}</style></defs><title>cloud-chief_white-logo_1</title><g id="Layer_2" data-name="Layer 2"><g id="Layer_1-2" data-name="Layer 1"><path class="cls-1" d="M1133,157.53c-13.46,13.66-27.11,27.58-40.86,41.39a11.13,11.13,0,0,1-4.69,2.55q-61,17.24-122,34.23c-1.5.42-4.16-.13-5.07-1.22C945,215.81,929.88,197,914.72,178.19a7.31,7.31,0,0,1-.7-1.54l21.06-19.28-21.33-19.66c2.92-3.7,5.74-7.32,8.62-10.88,12.36-15.29,24.82-30.5,37.06-45.88,2-2.56,3.77-2.83,6.76-2q60.48,17.18,121,34.14c1.41.39,3.08.76,4,1.72C1105.28,129.06,1119.2,143.38,1133,157.53Zm-30.59-.16L1071.85,125l-61.38,32.34,61.41,32.12Z"/><path class="cls-1" d="M766.6,147.13,714,156.65l-.1,1.17,54.35,9.81c0,.22,0,.43-.07.65-10,0-19.93.1-29.9,0-26.64-.32-53.29-.76-79.94-1.13q-72.95-1-145.89-2c-27.48-.4-55-.91-82.43-1.31q-72.19-1-144.4-2-57.95-.81-115.91-1.65-73.2-1-146.4-2c-7.77-.1-15.53,0-23.3,0v-2c18.92,0,37.84.18,56.76,0q73.7-.84,147.4-2c28.14-.4,56.28-.92,84.43-1.32q61.95-.88,123.91-1.68,68.46-1,136.9-2c47-.68,93.93-1.46,140.9-2C716.6,146.9,742.92,147.13,766.6,147.13Z"/><path class="cls-1" d="M235.8.3C257.26.53,274.15,8.91,283.16,29c8.54,19.06,6.5,37.65-7.18,53.74-15.06,17.72-35,20.92-56.42,15.41C199.3,93,187,79.24,183.58,58.51c-4-24.38,10.56-56.3,47.72-58.2C232.8.23,234.3.3,235.8.3Zm.13,79.37c17.59-.59,29.51-13,29-30.09-.5-17-13.2-29.06-30.07-28.66-17.74.43-29.54,13.18-28.89,31.2C206.56,68.27,219.55,80.22,235.93,79.67Z"/><path class="cls-1" d="M407.07,98.3V1.69C422.56,2.34,438,1.46,453,4c23.95,4,38.72,26.81,35.71,51.76C485.61,81,466.41,98.13,440.92,98.28,429.79,98.35,418.65,98.3,407.07,98.3Zm22.19-18.91c12.91.23,25.31-.16,32.32-12.74,6.17-11.07,6.49-22.76-.69-33.59-7.48-11.28-19.15-12.44-31.63-11.76Z"/><path class="cls-1" d="M627.07,97.89V2.65h21.76V38.1h38.11V2.57h22V97.9H687.24V57.63h-38V97.89Z"/><path class="cls-1" d="M305,2.52h22V7.75q0,24,0,48a52.81,52.81,0,0,0,.4,8c1.57,10.5,7.89,15.79,18.45,15.67,10-.11,16.8-5.69,17.3-16.17.78-16.62.5-33.28.66-49.93,0-3.46,0-6.92,0-10.67h22c.07,1.58.19,3,.19,4.48q0,27.24,0,54.47c0,23.4-15.43,38.81-38.85,38.7a69.15,69.15,0,0,1-15.83-1.46A34.68,34.68,0,0,1,305.12,66C304.57,45.06,305,24.07,305,2.52Z"/><path class="cls-1" d="M829,79.28V97.93h-53.9V2.67h53.83V21.08H797.26V39.39h30.23V58.06H797.38V79.28Z"/><path class="cls-1" d="M108,30.59c-18.78-12.25-32.9-12.24-43.52-.38-9.67,10.8-10.21,28.27-1.2,39.1,10.34,12.44,24.85,12.89,44.71,1,0,7.9.1,15.48-.12,23,0,1-1.48,2.44-2.6,3C74.93,111.55,35.4,87.59,33.92,53.7,32.16,13.28,69.93-9.08,104,3.84c2.94,1.11,4.17,2.41,4,5.66C107.83,16.32,108,23.15,108,30.59Z"/><path class="cls-1" d="M608,30.51c-19.44-12.21-33.26-12.1-43.82,0-9.5,10.89-9.77,28.5-.62,39.12,10.59,12.27,25.11,12.61,44.43.63,0,7.94.1,15.51-.12,23.07,0,1.06-1.43,2.48-2.55,3-30,15.13-69.79-8.41-71.31-42.14C532.26,15.11,567.86-10.25,604.44,4c2.47,1,3.74,2,3.65,4.92C607.85,16,608,23.1,608,30.51Z"/><path class="cls-1" d="M1097.66,199.35l51.92-42-51.91-42,.36-.83,128.44,42.29.08,1.05L1098,200.21Z"/><path class="cls-1" d="M869,58.21V97.92H847.22V2.6h52.6V20.91H869.34V39.32h28.37V58.21Z"/><path class="cls-1" d="M948,18.68l122,84.84-.44,1c-5.21-1.41-10.43-2.79-15.63-4.26-28.46-8-56.92-16.06-85.33-24.26-2.35-.68-4.55-2.46-6.41-4.17C952,62.53,946.89,51.47,948.67,37.35,949.39,31.66,948.28,25.75,948,18.68Z"/><path class="cls-1" d="M949.18,295.06c0-11.68,0-23,0-34.26a5.48,5.48,0,0,1,.93-3.22q6.78-8.62,13.84-17a6.2,6.2,0,0,1,3-1.47q50.33-14.34,100.68-28.58a17.27,17.27,0,0,1,3.09,0Z"/><path class="cls-1" d="M148,2.61V79.35h29.68V98H126.19V2.61Z"/><path class="cls-1" d="M751.83,98.13h-21.5V2.62h21.5Z"/><path class="cls-1" d="M488.18,259.68c0,21.65-15.87,37.6-37.43,37.62-22,0-37.92-15.77-37.91-37.64,0-21.48,16.09-37.45,37.68-37.44S488.16,238.19,488.18,259.68Zm-37.44-29.54A29.66,29.66,0,1,0,480,260,29.7,29.7,0,0,0,450.74,230.14Z"/><path class="cls-1" d="M595.78,297.3c-22.06,0-37.95-15.74-37.94-37.61,0-21.49,16.06-37.47,37.65-37.47s37.67,16,37.69,37.43C633.19,281.31,617.33,297.28,595.78,297.3Zm-.51-7.85A29.66,29.66,0,1,0,566,259.55,29.67,29.67,0,0,0,595.27,289.45Z"/><path class="cls-1" d="M892.34,161c-7.88,5.86-14.47,10.86-21.2,15.66a5.07,5.07,0,0,1-3.74.33q-35.14-9.39-70.25-19c-.41-.11-.72-.57-1.49-1.2,20.53-5.55,40.85-10.38,60.7-16.7,10-3.18,17.73-2.53,25.06,5,2.81,2.91,6.45,5,10.82,8.32l-79,3.16c0,.38,0,.76-.07,1.14Z"/><path class="cls-1" d="M321.35,220.34l57.49,59.06V223.61h7.91v75.91l-57.68-59.19v55.75h-7.72Z"/><path class="cls-1" d="M724.88,238.16l-6.06,5.57c-6-7.87-13.29-13.28-23.39-13.58a30.53,30.53,0,0,0-19.3,5.52c-10.86,7.79-15.06,23.05-9.89,35.77,4.92,12.12,18.11,19.56,31.55,17.79,11.51-1.52,19.82-9.91,21.09-21.93H697.46v-7.51h29.87c3.51,16.59-9.35,34-27.42,37.2a37.81,37.81,0,0,1-40.65-20.64,38.35,38.35,0,0,1,9.6-45.45C683.57,218.47,710.59,218,724.88,238.16Z"/><path class="cls-1" d="M246,260.68V296H238.4V223.66h7.51v28.48H284V223.52h7.66V296h-7.51V260.68Z"/><path class="cls-1" d="M827.79,252.45v7.7h-28.4v28.14h29.3V296H791.3V223.44h37.48v7.61H799.27v21.4Z"/><path class="cls-1" d="M100.38,252.46h28.27v7.64H100.33v28.29h29.43v7.91H92.42V223.38h37.23V231H100.38Z"/><path class="cls-1" d="M212.64,238.85C191.57,227.2,178,228,167.54,241.2c-8.93,11.32-8.53,28.07.91,38.64,10.8,12.09,25.46,12.49,43.62,1.17,2.08,7.85,1.18,9.89-5.79,13-16,7.19-34.88,2.85-45.67-10.5-10.22-12.66-10.62-32.67-.92-46.14,9.52-13.21,28.16-18.77,43.77-13.06C212.74,227.72,213.2,228.43,212.64,238.85Z"/><path class="cls-1" d="M894.26,233.93,888.32,238c-3.46-5.41-8-8.59-14.57-7.78-5.49.67-9.22,3.66-10.38,8.62-1.26,5.38,1.64,8.64,5.93,10.85s8.79,4,13.2,5.92c12.09,5.37,16.42,12.63,14.44,24.19-1.61,9.38-10,16.76-19.9,17.47q-19.45,1.41-25.08-15.84c-.26-.79-.43-1.6-.76-2.83l7.47-2.31c.64,1.54,1.24,3,1.87,4.49,2.75,6.29,8,9.19,15.37,8.56a13.44,13.44,0,0,0,12.51-10.42c1.59-6-.51-11.07-6.41-14.18-5.15-2.71-10.6-4.84-15.81-7.42-9-4.47-12.66-11.31-11-20.21,1.49-7.92,8.19-13.8,16.8-14.76C882.65,221.18,890.79,225.33,894.26,233.93Z"/><path class="cls-1" d="M44.19,231.17H26.62v-7.72H69.55v7.45H52.26v65H44.19Z"/><path class="cls-1" d="M514.36,223.48h7.55v64.86h19.92V296H514.36Z"/><path class="cls-1" d="M753.34,223.52h7.41v72.57h-7.41Z"/></g></g></svg>