<?xml version="1.0" encoding="UTF-8"?>
<svg id="Layer_2" data-name="Layer 2" xmlns="http://www.w3.org/2000/svg" viewBox="0 0 319.93 133.71">
  <defs>
    <style>
      .cls-1, .cls-2 {
        fill: #fff;
      }

      .cls-2 {
        fill-rule: evenodd;
      }

      .cls-3 {
        fill: #39b54a;
      }

      .cls-4 {
        fill: #0071bc;
      }

      .cls-5 {
        fill: #29abe2;
      }
    </style>
  </defs>
  <g id="Layer_19" data-name="Layer 19">
    <g id="Layer_2_copy" data-name="Layer 2 copy">
      <g id="Layer_2_copy_5" data-name="Layer 2 copy 5">
        <g>
          <path class="cls-2" d="M121.77,28.51h-8.01v-6.21l-4.55,.32c-6.7,.47-13.46-.08-20.04-1.44,4.78-8.4,1.91-17.95,1.78-18.37-.66-2.11-2.9-3.29-5.01-2.63s-3.29,2.9-2.63,5.01c.02,.07,2.12,7.29-1.5,12.71-.26,.39-.43,.82-.54,1.25-1.33-.41-2.66-.85-3.97-1.33-3.3-1.19-6.54-2.58-9.67-4.17-1.7-.87-3.39-1.76-5.09-2.64l-1.5-.78-1.49,.8c-1.73,.93-3.59,1.73-5.35,2.63-3.13,1.59-6.37,2.98-9.67,4.17-.92,.33-1.85,.65-2.79,.95-.11-.3-.24-.59-.43-.87-3.61-5.42-1.53-12.61-1.49-12.73,.65-2.1-.53-4.34-2.64-4.99-2.11-.66-4.35,.52-5.01,2.63-.13,.42-2.95,9.79,1.63,18.12-6.95,1.54-14.1,2.19-21.19,1.69l-4.55-.32v6.21H.06L0,32.7c-.06,4.01,.31,8.08,.76,12.06,1.07,9.5,3.07,18.95,6.04,28.04,8.26,25.28,23.64,46.21,47.55,57.95,2.16,1.06,4.36,2,6.57,2.96,2.12-.92,4.25-1.83,6.33-2.84,24.05-11.71,39.5-32.7,47.79-58.07,2.97-9.09,4.97-18.54,6.04-28.04,.45-3.98,.81-8.05,.76-12.06l-.06-4.19Zm-31.03,78.4v-18.79s.05-6.6,.05-6.6v-7.73l-26.74-26.74c-.89-.89-2.07-1.34-3.25-1.34s-2.36,.45-3.25,1.34l-26.51,26.51v33.28C4.74,76.12,5.32,33.04,5.32,33.04H13.38v-5.89c26.37,1.86,47.53-11.48,47.53-11.48h0s0,0,0,0c0,0,21.16,13.34,47.53,11.48v5.89h8.06s.58,43.14-25.77,73.86Z"/>
          <path class="cls-2" d="M87.95,57.52v-1.61s0-12.81,0-12.81c0-.65-.53-1.19-1.19-1.19h-7.15c-.65,0-1.19,.54-1.19,1.19v4.89l-8.93-8.93c-2.39-2.39-5.54-3.59-8.69-3.59s-6.3,1.2-8.69,3.59L19.27,71.9c-1.5,1.5-1.5,3.94,0,5.44,1.5,1.5,3.94,1.5,5.44,0L57.55,44.5c.89-.89,2.07-1.34,3.25-1.34s2.36,.45,3.25,1.34l33.07,33.07c1.5,1.5,3.94,1.5,5.44,0,1.5-1.5,1.5-3.94,0-5.44l-14.61-14.61Z"/>
        </g>
        <path class="cls-5" d="M90.74,106.9v-18.79s.05-6.6,.05-6.6v-7.73l-26.74-26.74c-.86-.86-2-1.31-3.14-1.33v-2.55c1.14,.03,2.27,.47,3.14,1.33l33.07,33.07c1.5,1.5,3.94,1.5,5.44,0,1.5-1.5,1.5-3.94,0-5.44l-14.61-14.61v-1.61s0-12.81,0-12.81c0-.65-.53-1.19-1.19-1.19h-7.15c-.65,0-1.19,.54-1.19,1.19v4.89l-8.93-8.93c-2.37-2.37-5.47-3.56-8.58-3.59V15.67h0s21.16,13.34,47.53,11.48v5.89h8.06s.58,43.14-25.77,73.86h0ZM60.91,26.58v0Z"/>
        <path class="cls-4" d="M31.09,106.9v-18.79s-.05-6.6-.05-6.6v-7.73l26.62-26.85c.86-.86,2.11-1.2,3.25-1.22v-2.55c-1.48,0-2.27,.26-3.37,1.33L24.7,77.34c-1.5,1.5-3.94,1.5-5.44,0-1.5-1.5-1.5-3.94,0-5.44,19.66-19.66,23.06-22.83,33.07-32.84,2.37-2.37,5.47-3.56,8.58-3.59V15.67h0s-21.16,13.34-47.53,11.48v5.89H5.32s-.58,43.14,25.77,73.86h0ZM60.91,26.58v0Z"/>
        <g>
          <path class="cls-3" d="M54.3,97.17c.41-.36,.61-.85,.61-1.29,0-.32-.1-.61-.3-.84l-1.19-1.35c-.24-.27-.58-.42-.98-.42-.39,0-.82,.15-1.17,.46l-6.06,5.35c-.41,.36-.61,.85-.61,1.29,0,.32,.1,.61,.31,.84l1.19,1.35c.24,.27,.59,.42,.98,.42,.39,0,.82-.15,1.17-.46l6.06-5.35Z"/>
          <path class="cls-3" d="M66.18,107.29c-.24-.26-.58-.4-.99-.4-.41,0-.89,.15-1.33,.49l-5.93,5.42c-.31,.35-.49,.82-.48,1.25,0,.36,.11,.67,.33,.91l1.22,1.33c.24,.26,.58,.4,.96,.4,.4,0,.83-.16,1.19-.48l5.97-5.46c.67-.61,.78-1.01,.78-1.23,0-.15-.04-.28-.14-.44-.09-.15-.23-.31-.37-.47l-.73-.8s0,0,0,0h0s.11-.11,.11-.11l.34-.34-.47,.43-.46-.5Z"/>
          <path class="cls-3" d="M63,104.91c0-.32-.1-.61-.31-.84l-1.19-1.35c-.24-.27-.59-.42-.98-.42-.39,0-.82,.15-1.17,.46l-6.06,5.36c-.41,.36-.61,.85-.61,1.29,0,.32,.1,.61,.31,.84l1.19,1.35c.24,.27,.59,.42,.98,.42,.39,0,.82-.15,1.17-.46l6.06-5.35c.41-.36,.61-.85,.61-1.29h0Z"/>
          <path class="cls-3" d="M54.57,84.42c-.33,.27-.73,.55-1.1,.85-.37,.3-.71,.63-.89,.92-.12,.19-.17,.35-.17,.49,0,.09,.02,.18,.07,.29,.19,.37,.39,.49,.85,.57,.79,.1,1.53,.25,2.26,.36,.31,.04,.61,.1,.84,.09,.21,0,.34-.04,.42-.09l9.48-7.79,.5-.41,.52,.63,.95,1h0s.07,.08,.12,.13c3.8,4.42,7.49,8.64,11.58,13.03h.01s.01,.02,.01,.02c.38,.45,.78,.98,1.07,1.6,1.17-1.77,1.68-3.9,2.03-5.55,.21-.99,.31-1.97,.31-2.93,0-6.44-4.47-12.04-10.52-13.11-.48-.09-.99-.13-1.51-.13-3.03-.01-6.53,1.42-8.58,2.98h0s-1.05,.9-1.05,.9c-2.36,2.12-4.8,4.13-7.22,6.14h0Z"/>
          <path class="cls-3" d="M57.69,88.86h0s-.08,.07-.12,.09c-.37,.25-.79,.31-1.13,.31h0c-.39,0-.74-.07-1.02-.11-.78-.11-1.52-.26-2.25-.35-.75-.08-1.48-.51-1.83-1.28-.13-.27-.2-.56-.2-.84,0-.44,.15-.83,.36-1.16,.21-.33,.47-.61,.75-.87,.55-.5,1.17-.91,1.51-1.2,2.42-2.02,4.86-4.02,7.18-6.11,.03-.03,.06-.05,.07-.07h0s.49-.41,.49-.41c-1.91-1.39-4.4-2-6.18-2.33-.87-.16-1.73-.24-2.58-.24-6.59,0-12.27,4.67-13.19,10.86-.07,.49-.11,.98-.11,1.48,0,3.53,1.81,7.28,4.33,9.79l.02-.02,.47,.47h0s.71,.73,.71,.73l5.44-4.81c.58-.52,1.3-.78,2.01-.78,.71,0,1.43,.28,1.93,.85l1.2,1.35c.42,.48,.62,1.08,.62,1.68,0,.23-.03,.46-.09,.68,.11-.01,.23-.02,.34-.02,.71,0,1.43,.28,1.93,.85l1.19,1.35c.42,.48,.63,1.08,.62,1.68,0,.22-.03,.43-.08,.65,.14-.02,.28-.03,.42-.03,.71,0,1.43,.28,1.93,.85l1.19,1.35c.42,.48,.63,1.08,.63,1.68,0,.3-.05,.61-.15,.9,.35-.12,.71-.19,1.07-.19,.71,0,1.42,.26,1.92,.82l.45,.49s0,0,0,0c.46,.47,.89,.83,1.25,1.06,.36,.23,.65,.31,.81,.31,.14,0,.21-.03,.33-.13l1.34-1.21c.1-.09,.19-.26,.19-.62,.01-.71-.44-1.92-1.2-3.04l-.02-.02-.19-.35-7.66-8.5-.02,.02-.13-.15h.02s-.21-.24-.21-.24l.94-.85,8.04,8.94,.11,.12c.5,.56,1.05,1,1.57,1.29,.51,.29,.99,.43,1.3,.43,.23,0,.35-.06,.44-.13l1.34-1.21c.1-.09,.18-.25,.18-.57,.01-.6-.37-1.6-1.11-2.52,0,0-.01-.01-.02-.02-.02-.02-.04-.05-.06-.08-.06-.08-.13-.15-.19-.22l-8.2-9.04,.94-.85,8.2,9.04c.08,.09,.17,.19,.24,.28l.03,.04c.33,.34,.69,.67,1.04,.9,.36,.25,.71,.38,1.02,.37,.19,0,.38-.04,.61-.17h.02s.02-.02,.02-.02c.45-.21,.89-.51,1.21-.85,.31-.35,.49-.73,.49-1.16v-.04c0-.06,0-.12-.01-.17-.09-.82-.57-1.54-1.15-2.22-4.1-4.4-7.79-8.62-11.59-13.04l-.8-.84-9,7.4Z"/>
          <path class="cls-3" d="M49.2,103.62c-.41,.36-.61,.85-.61,1.29,0,.32,.1,.61,.31,.84l1.19,1.35c.24,.27,.59,.42,.98,.42,.39,0,.82-.15,1.17-.46l6.06-5.36c.41-.36,.61-.85,.61-1.29,0-.32-.1-.61-.31-.84l-1.19-1.35c-.24-.27-.58-.42-.98-.42-.39,0-.82,.15-1.17,.46l-6.06,5.36-.13-.15,.13,.15Z"/>
          <polygon class="cls-3" points="66.65 107.81 66.76 107.7 66.65 107.81 66.65 107.81"/>
          <path class="cls-3" d="M74.86,99.49s-.02-.02-.03-.03h-.01s.04,.04,.06,.07c0-.01-.02-.02-.03-.03Z"/>
        </g>
      </g>
      <g id="Layer_7_copy" data-name="Layer 7 copy">
        <g>
          <path class="cls-1" d="M179.2,85.95l-.84,3.92c-.73-.21-1.53-.31-2.38-.31-2.08,0-3.12,.97-3.12,2.9v3.52h5.37v4.49h-5.37v18.57h-5.32v-18.57h-3.34v-4.49h3.34v-3.61c0-2.26,.67-4,2-5.24,1.33-1.23,3.22-1.85,5.65-1.85,1.7,0,3.04,.22,4,.66Z"/>
          <path class="cls-1" d="M183.86,95.99h4.05l.88,3.39h.13c1.14-2.7,2.99-4.05,5.54-4.05,1.08,0,2.02,.22,2.82,.66l-.92,4.75c-.79-.29-1.56-.44-2.29-.44-1.09,0-2.04,.38-2.86,1.14s-1.5,1.98-2.02,3.65v13.95h-5.32v-23.06Z"/>
          <path class="cls-1" d="M207.71,87.52c.65,.51,.97,1.27,.97,2.27s-.32,1.75-.97,2.24-1.42,.75-2.33,.75-1.67-.25-2.29-.75c-.62-.5-.92-1.25-.92-2.24s.32-1.75,.95-2.27c.63-.51,1.39-.77,2.27-.77s1.69,.26,2.33,.77Zm.31,31.53h-5.28v-23.06h5.28v23.06Z"/>
          <path class="cls-1" d="M233.84,113.15l2.11,3.43c-2.61,2.08-5.84,3.12-9.68,3.12-2.17,0-4.12-.45-5.85-1.34s-3.1-2.25-4.11-4.07c-1.01-1.82-1.52-4.05-1.52-6.69,0-2.46,.46-4.62,1.39-6.47,.92-1.85,2.23-3.28,3.92-4.29,1.69-1.01,3.63-1.52,5.83-1.52s4.11,.49,5.65,1.47c1.54,.98,2.69,2.3,3.45,3.94s1.14,3.43,1.14,5.37c0,1.29-.09,2.3-.26,3.04h-15.8c.53,4.22,2.82,6.34,6.86,6.34,2.61,0,4.9-.78,6.86-2.33Zm-11.9-12.21c-1.04,1.04-1.67,2.59-1.87,4.64h11.22c-.06-1.96-.54-3.49-1.43-4.58-.9-1.08-2.16-1.63-3.81-1.63s-3.07,.52-4.11,1.56Z"/>
          <path class="cls-1" d="M242.95,95.99h3.61l.84,3.43h.18c1.11-1.35,2.29-2.37,3.52-3.06,1.23-.69,2.71-1.03,4.44-1.03,2.46,0,4.38,.67,5.76,2.02,1.38,1.35,2.07,3.29,2.07,5.81v15.88h-5.28v-14.21c0-1.64-.32-2.8-.95-3.48-.63-.67-1.55-1.01-2.75-1.01-2.38,0-4.44,1.26-6.2,3.78v14.92h-5.24v-23.06Z"/>
          <path class="cls-1" d="M275.01,118.43c-1.54-.85-2.81-2.2-3.81-4.05s-1.5-4.15-1.5-6.91,.47-4.88,1.41-6.71c.94-1.83,2.18-3.2,3.72-4.09,1.54-.89,3.19-1.34,4.95-1.34,2.52,0,4.62,.73,6.29,2.2v-11.57h5.28v33.09h-3.78l-.7-2.68h-.09c-.82,1.03-1.83,1.84-3.01,2.44-1.19,.6-2.47,.9-3.85,.9-1.73,0-3.37-.43-4.91-1.28Zm8.82-4.36c.91-.53,1.66-1.23,2.24-2.11v-9.46c-1.35-1.58-3.08-2.38-5.19-2.38-1.64,0-3.02,.62-4.14,1.87-1.12,1.25-1.67,3.06-1.67,5.43,0,1.61,.28,2.99,.84,4.11,.56,1.13,1.28,1.97,2.16,2.51,.88,.54,1.82,.81,2.82,.81,1.06,0,2.04-.26,2.95-.79Z"/>
          <path class="cls-1" d="M311.66,95.92c1.36,.4,2.53,.93,3.5,1.61l-1.63,3.7c-.82-.5-1.78-.9-2.88-1.21-1.1-.31-2.15-.46-3.15-.46-1.14,0-2.05,.24-2.73,.7-.67,.47-1.01,1.07-1.01,1.8,0,.79,.36,1.39,1.08,1.78,.72,.4,1.87,.84,3.45,1.34,1.58,.47,2.88,.93,3.87,1.39s1.86,1.13,2.57,2.02c.72,.9,1.08,2.09,1.08,3.59,0,2.35-.87,4.19-2.6,5.52-1.73,1.33-4,2-6.82,2-1.64,0-3.19-.23-4.64-.68-1.45-.45-2.68-1.06-3.67-1.83l1.41-4.09c.91,.68,1.94,1.19,3.08,1.54,1.14,.35,2.3,.53,3.48,.53,1.38,0,2.46-.26,3.26-.79s1.19-1.2,1.19-2.02-.37-1.41-1.1-1.85c-.73-.44-1.89-.91-3.48-1.41-1.53-.47-2.77-.93-3.74-1.39-.97-.45-1.8-1.12-2.49-2-.69-.88-1.03-2.02-1.03-3.43,0-2.14,.79-3.83,2.38-5.08s3.7-1.87,6.34-1.87c1.5,0,2.93,.2,4.29,.59Z"/>
        </g>
        <g>
          <path class="cls-1" d="M167.58,30.41c3.17,1.94,5.72,4.84,7.63,8.7,1.91,3.85,2.87,8.5,2.87,13.94s-1.07,10.69-3.21,14.96-5.02,7.56-8.65,9.86c-3.63,2.3-7.61,3.45-11.95,3.45s-8.39-.94-11.56-2.82v21.38h-11.66V28.95h8.26l2.14,6.61h.19c2.14-2.78,4.42-4.82,6.85-6.12,2.43-1.29,5.3-1.94,8.6-1.94,3.82,0,7.32,.97,10.49,2.92Zm-19.58,9.28c-1.85,1.26-3.61,3.16-5.3,5.68v23.22c1.42,1.1,2.85,1.89,4.28,2.38,1.42,.49,3.14,.73,5.15,.73,2.53,0,4.86-.7,7-2.09,2.14-1.39,3.84-3.43,5.1-6.12,1.26-2.69,1.89-5.85,1.89-9.47,0-5.38-1.1-9.43-3.3-12.15-2.2-2.72-5.02-4.08-8.45-4.08-2.4,0-4.52,.63-6.36,1.9Z"/>
          <path class="cls-1" d="M228.11,66.84l4.66,7.58c-5.77,4.6-12.89,6.9-21.38,6.9-4.79,0-9.1-.99-12.92-2.96-3.82-1.98-6.85-4.97-9.09-8.99-2.23-4.02-3.35-8.94-3.35-14.77,0-5.44,1.02-10.2,3.06-14.28,2.04-4.08,4.92-7.24,8.65-9.47,3.72-2.23,8.02-3.35,12.88-3.35s9.09,1.09,12.49,3.26c3.4,2.17,5.94,5.07,7.63,8.7,1.68,3.63,2.53,7.58,2.53,11.85,0,2.85-.19,5.09-.58,6.7h-34.88c1.17,9.33,6.22,13.99,15.16,13.99,5.76,0,10.82-1.71,15.16-5.15Zm-26.28-26.96c-2.3,2.3-3.68,5.72-4.13,10.25h24.78c-.13-4.34-1.18-7.71-3.16-10.11-1.98-2.4-4.78-3.6-8.41-3.6s-6.79,1.15-9.09,3.45Z"/>
          <path class="cls-1" d="M271.5,28.8c3.01,.87,5.59,2.06,7.72,3.55l-3.59,8.16c-1.81-1.1-3.94-1.99-6.37-2.67-2.43-.68-4.75-1.02-6.95-1.02-2.53,0-4.54,.52-6.02,1.55-1.49,1.04-2.23,2.37-2.23,3.98,0,1.75,.79,3.06,2.38,3.94,1.59,.87,4.13,1.86,7.63,2.96,3.5,1.04,6.35,2.06,8.55,3.06,2.2,1.01,4.1,2.49,5.68,4.47,1.59,1.98,2.38,4.62,2.38,7.92,0,5.18-1.91,9.25-5.73,12.19-3.82,2.95-8.84,4.42-15.06,4.42-3.63,0-7.04-.5-10.25-1.51-3.21-1-5.91-2.35-8.11-4.03l3.11-9.04c2.01,1.49,4.28,2.62,6.8,3.4s5.08,1.17,7.68,1.17c3.04,0,5.44-.58,7.19-1.75s2.62-2.66,2.62-4.47-.81-3.11-2.43-4.08c-1.62-.97-4.18-2.01-7.68-3.11-3.37-1.04-6.12-2.06-8.26-3.06-2.14-1-3.97-2.48-5.49-4.42-1.52-1.94-2.28-4.47-2.28-7.58,0-4.73,1.75-8.47,5.25-11.22,3.5-2.75,8.16-4.13,13.99-4.13,3.3,0,6.46,.44,9.47,1.31Z"/>
          <path class="cls-1" d="M294.57,68.69v-29.83h-7.97v-9.91h7.97v-6.51l5.25-6.7h6.51v13.21h12.44v9.91h-12.44v27.5c0,2.98,1.33,4.47,3.98,4.47,2.01,0,4.24-.45,6.7-1.36l2.92,8.36c-3.82,2.33-7.97,3.5-12.44,3.5-8.62,0-12.92-4.21-12.92-12.63Z"/>
        </g>
      </g>
    </g>
  </g>
</svg>