<svg width="774" height="774" viewBox="0 0 774 774" fill="none" xmlns="http://www.w3.org/2000/svg">
<path d="M387.1 746.71C585.978 746.71 747.2 585.488 747.2 386.61C747.2 187.732 585.978 26.51 387.1 26.51C188.222 26.51 27 187.732 27 386.61C27 585.488 188.222 746.71 387.1 746.71Z" stroke="#00E0FF" stroke-opacity="0.2" stroke-width="4" stroke-miterlimit="10"/>
<path d="M131.63 260.26C202.67 260.26 260.26 202.67 260.26 131.63C260.26 60.5896 202.67 3 131.63 3C60.5896 3 3 60.5896 3 131.63C3 202.67 60.5896 260.26 131.63 260.26Z" fill="#0094FF" fill-opacity="0.2"/>
<path d="M641.9 697.8C672.773 697.8 697.8 672.773 697.8 641.9C697.8 611.027 672.773 586 641.9 586C611.027 586 586 611.027 586 641.9C586 672.773 611.027 697.8 641.9 697.8Z" fill="#0094FF" fill-opacity="0.2"/>
</svg>
