<?xml version="1.0" encoding="UTF-8"?>
<svg id="Layer_2" data-name="Layer 2" xmlns="http://www.w3.org/2000/svg" xmlns:xlink="http://www.w3.org/1999/xlink" viewBox="0 0 586.76 720">
  <defs>
    <style>
      .cls-1 {
        stroke-width: 0px;
      }

      .cls-1, .cls-2 {
        fill: none;
      }

      .cls-3 {
        clip-path: url(#clippath-1);
      }

      .cls-2 {
        stroke: rgba(0, 0, 0, 0.1);
        stroke-miterlimit: 10;
        stroke-width: 1.87px;
      }
      @media(prefers-color-scheme: dark) {
        .cls-2 {
          stroke: rgba(255, 255, 255, 0.1);
        }
      }
    </style>
    <clipPath id="clippath-1">
      <path class="cls-1" d="m293.38,617.78l88.89,59.36-88.89,42.87-88.89-42.87,88.89-59.36Zm262.22-368.89L547.47,0l-77.2,104.37-56.89,40.14,28.44,20.07,48.76-28.1,24.38-36.13,8.13,44.16v80.29l32.51,24.09Zm-491.94-24.09v-80.29l8.13-44.16,24.38,36.13,48.76,28.1,28.44-20.07-56.89-40.14L39.29,0l-8.13,248.89,32.51-24.09Zm316,192.5l148.42,176.03-27.61,41.42-55.23,72.48-48.32-37.97-96.64-62.13v-41.42l28.65-54.61-17.78-17.78,6.67-11.11,16.97,21.37,37.97-13.8,6.9-24.16-34.52-34.52h-103.55l-34.52,34.52,6.9,24.16,37.97,13.8,16.97-21.37,6.67,11.11-17.78,17.78,28.65,54.61v41.42l-96.64,62.13-48.32,37.97-55.22-72.48-27.61-41.42,148.41-176.03-141.51,138.06L0,472.53l31.06-103.55v-110.45l151.87-113.9h69.03l27.61,37.97,6.9,62.13-55.22-13.81,55.22,44.87v51.77l-10.35,55.22-37.96,24.16,31.06-10.35h48.32l31.06,10.35-37.96-24.16-10.35-55.22v-51.77l55.22-44.87-55.22,13.81,6.9-62.13,27.61-37.97h69.03l151.87,113.9v110.45l31.07,103.55-65.58,82.84-141.51-138.06Zm-139.62-49.23l-27.05-25.86h-94.69l-33.82,25.86,56.09,45.25,99.47-45.25Zm206.14,45.25l56.08-45.25-33.82-25.86h-94.68l-27.05,25.86,99.47,45.25Z"/>
    </clipPath>
  </defs>
  <g id="ChromeDog_Font_Mix_copy" data-name="ChromeDog Font Mix copy">
    <g id="Loco-Icon">
      <g class="cls-3">
        <path class="cls-2" d="m293.38,614.94h295.03m-295.03-8.66h295.03m-295.03-8.66h295.03m-295.03-8.66h295.03m-295.03-8.66h295.03m-295.03,77.95h295.03m-295.03-8.66h295.03m-295.03-8.66h295.03m-295.03-8.66h295.03m-295.03-8.66h295.03m-295.03,77.95h295.03m-295.03-8.66h295.03m-295.03-8.66h295.03m-295.03-8.66h295.03m-295.03-8.66h295.03m-295.03,51.97h295.03m-295.03-8.66h295.03M-1.65,614.94h295.03M-1.65,606.28h295.03M-1.65,597.62h295.03M-1.65,588.96h295.03M-1.65,580.29h295.03M-1.65,658.24h295.03M-1.65,649.58h295.03M-1.65,640.92h295.03M-1.65,632.26h295.03M-1.65,623.6h295.03M-1.65,701.55h295.03M-1.65,692.89h295.03M-1.65,684.23h295.03M-1.65,675.57h295.03M-1.65,666.91h295.03M-1.65,718.87h295.03M-1.65,710.21h295.03m0-701.55h295.03M293.38,0h295.03m-295.03,51.97h295.03m-295.03-8.66h295.03m-295.03-8.66h295.03m-295.03-8.66h295.03m-295.03-8.66h295.03m-295.03,77.95h295.03m-295.03-8.66h295.03m-295.03-8.66h295.03m-295.03-8.66h295.03m-295.03-8.66h295.03m-295.03,77.95h295.03m-295.03-8.66h295.03m-295.03-8.66h295.03m-295.03-8.66h295.03m-295.03-8.66h295.03m-295.03,77.95h295.03m-295.03-8.66h295.03m-295.03-8.66h295.03m-295.03-8.66h295.03m-295.03-8.66h295.03m-295.03,77.95h295.03m-295.03-8.66h295.03m-295.03-8.66h295.03m-295.03-8.66h295.03m-295.03-8.66h295.03m-295.03,77.95h295.03m-295.03-8.66h295.03m-295.03-8.66h295.03m-295.03-8.66h295.03m-295.03-8.66h295.03M-1.65,8.66h295.03M-1.65,0h295.03M-1.65,51.97h295.03M-1.65,43.31h295.03M-1.65,34.64h295.03M-1.65,25.98h295.03M-1.65,17.32h295.03M-1.65,95.27h295.03M-1.65,86.61h295.03M-1.65,77.95h295.03M-1.65,69.29h295.03M-1.65,60.63h295.03M-1.65,138.58h295.03M-1.65,129.92h295.03M-1.65,121.26h295.03M-1.65,112.59h295.03M-1.65,103.93h295.03M-1.65,181.88h295.03M-1.65,173.22h295.03M-1.65,164.56h295.03M-1.65,155.9h295.03M-1.65,147.24h295.03M-1.65,225.19h295.03M-1.65,216.53h295.03M-1.65,207.87h295.03M-1.65,199.21h295.03M-1.65,190.54h295.03M-1.65,268.49h295.03M-1.65,259.83h295.03M-1.65,251.17h295.03M-1.65,242.51h295.03M-1.65,233.85h295.03m0-95.27h295.03m-295.03-8.66h295.03m-295.03-8.66h295.03m-295.03-8.66h295.03m-295.03-8.66h295.03m-295.03,77.95h295.03m-295.03-8.66h295.03m-295.03-8.66h295.03m-295.03-8.66h295.03m-295.03-8.66h295.03m-295.03,77.95h295.03m-295.03-8.66h295.03m-295.03-8.66h295.03m-295.03-8.66h295.03m-295.03-8.66h295.03m-295.03,77.95h295.03m-295.03-8.66h295.03m-295.03-8.66h295.03m-295.03-8.66h295.03m-295.03-8.66h295.03m-295.03,77.95h295.03m-295.03-8.66h295.03m-295.03-8.66h295.03m-295.03-8.66h295.03m-295.03-8.66h295.03m-295.03,77.95h295.03m-295.03-8.66h295.03m-295.03-8.66h295.03m-295.03-8.66h295.03m-295.03-8.66h295.03m-295.03,77.95h295.03m-295.03-8.66h295.03m-295.03-8.66h295.03m-295.03-8.66h295.03m-295.03-8.66h295.03m-295.03,77.95h295.03m-295.03-8.66h295.03m-295.03-8.66h295.03m-295.03-8.66h295.03m-295.03-8.66h295.03m-295.03,77.95h295.03m-295.03-8.66h295.03m-295.03-8.66h295.03m-295.03-8.66h295.03m-295.03-8.66h295.03m-295.03,77.95h295.03m-295.03-8.66h295.03m-295.03-8.66h295.03m-295.03-8.66h295.03m-295.03-8.66h295.03m-295.03,77.95h295.03m-295.03-8.66h295.03m-295.03-8.66h295.03m-295.03-8.66h295.03m-295.03-8.66h295.03m-295.03,77.95h295.03m-295.03-8.66h295.03m-295.03-8.66h295.03m-295.03-8.66h295.03m-295.03-8.66h295.03m-295.03,77.95h295.03m-295.03-8.66h295.03m-295.03-8.66h295.03m-295.03-8.66h295.03m-295.03-8.66h295.03m-295.03,77.95h295.03m-295.03-8.66h295.03m-295.03-8.66h295.03m-295.03-8.66h295.03m-295.03-8.66h295.03M-1.65,138.58h295.03M-1.65,129.92h295.03M-1.65,121.26h295.03M-1.65,112.59h295.03M-1.65,103.93h295.03M-1.65,181.88h295.03M-1.65,173.22h295.03M-1.65,164.56h295.03M-1.65,155.9h295.03M-1.65,147.24h295.03M-1.65,225.19h295.03M-1.65,216.53h295.03M-1.65,207.87h295.03M-1.65,199.21h295.03M-1.65,190.54h295.03M-1.65,268.49h295.03M-1.65,259.83h295.03M-1.65,251.17h295.03M-1.65,242.51h295.03M-1.65,233.85h295.03M-1.65,311.8h295.03M-1.65,303.14h295.03M-1.65,294.48h295.03M-1.65,285.82h295.03M-1.65,277.16h295.03M-1.65,355.11h295.03M-1.65,346.44h295.03M-1.65,337.78h295.03M-1.65,329.12h295.03M-1.65,320.46h295.03M-1.65,398.41h295.03M-1.65,389.75h295.03M-1.65,381.09h295.03M-1.65,372.43h295.03M-1.65,363.77h295.03M-1.65,441.72h295.03M-1.65,433.06h295.03M-1.65,424.39h295.03M-1.65,415.73h295.03M-1.65,407.07h295.03M-1.65,485.02h295.03M-1.65,476.36h295.03M-1.65,467.7h295.03M-1.65,459.04h295.03M-1.65,450.38h295.03M-1.65,528.33h295.03M-1.65,519.67h295.03M-1.65,511.01h295.03M-1.65,502.34h295.03M-1.65,493.68h295.03M-1.65,571.63h295.03M-1.65,562.97h295.03M-1.65,554.31h295.03M-1.65,545.65h295.03M-1.65,536.99h295.03M-1.65,614.94h295.03M-1.65,606.28h295.03M-1.65,597.62h295.03M-1.65,588.96h295.03M-1.65,580.29h295.03M-1.65,658.24h295.03M-1.65,649.58h295.03M-1.65,640.92h295.03M-1.65,632.26h295.03M-1.65,623.6h295.03M-1.65,701.55h295.03M-1.65,692.89h295.03M-1.65,684.23h295.03M-1.65,675.57h295.03M-1.65,666.91h295.03M-1.65,355.11h295.03M-1.65,346.44h295.03M-1.65,337.78h295.03M-1.65,329.12h295.03M-1.65,320.46h295.03M-1.65,398.41h295.03M-1.65,389.75h295.03M-1.65,381.09h295.03M-1.65,372.43h295.03M-1.65,363.77h295.03M-1.65,441.72h295.03M-1.65,433.06h295.03M-1.65,424.39h295.03M-1.65,415.73h295.03M-1.65,407.07h295.03m0-51.97h295.03m-295.03-8.66h295.03m-295.03-8.66h295.03m-295.03-8.66h295.03m-295.03-8.66h295.03m-295.03,77.95h295.03m-295.03-8.66h295.03m-295.03-8.66h295.03m-295.03-8.66h295.03m-295.03-8.66h295.03m-295.03,77.95h295.03m-295.03-8.66h295.03m-295.03-8.66h295.03m-295.03-8.66h295.03m-295.03-8.66h295.03M-1.65,355.11h295.03M-1.65,346.44h295.03M-1.65,337.78h295.03M-1.65,329.12h295.03M-1.65,320.46h295.03M-1.65,398.41h295.03M-1.65,389.75h295.03M-1.65,381.09h295.03M-1.65,372.43h295.03M-1.65,363.77h295.03M-1.65,441.72h295.03M-1.65,433.06h295.03M-1.65,424.39h295.03M-1.65,415.73h295.03M-1.65,407.07h295.03"/>
      </g>
    </g>
  </g>
</svg>