<?xml version="1.0" encoding="UTF-8"?>
<svg id="Layer_2" data-name="Layer 2" xmlns="http://www.w3.org/2000/svg" xmlns:xlink="http://www.w3.org/1999/xlink" viewBox="0 0 314.21 385.55">
  <defs>
    <style>
    .cls-25 {
        fill: rgba(255, 255, 255, 0.1);
      }
      .cls-1 {
        clip-path: url(#clippath-73);
      }

      .cls-2 {
        clip-path: url(#clippath-72);
      }

      .cls-3 {
        clip-path: url(#clippath-62);
      }

      .cls-4 {
        clip-path: url(#clippath-45);
      }

      .cls-5 {
        clip-path: url(#clippath-63);
      }

      .cls-6 {
        clip-path: url(#clippath-11);
      }

      .cls-7 {
        clip-path: url(#clippath-16);
      }

      .cls-8 {
        clip-path: url(#clippath-59);
      }

      .cls-9 {
        clip-path: url(#clippath-33);
      }

      .cls-10 {
        clip-path: url(#clippath-64);
      }

      .cls-11 {
        clip-path: url(#clippath-47);
      }

      .cls-12 {
        clip-path: url(#clippath-41);
      }

      .cls-13 {
        clip-path: url(#clippath-32);
      }

      .cls-14 {
        clip-path: url(#clippath-2);
      }

      .cls-15 {
        clip-path: url(#clippath-13);
      }

      .cls-16 {
        clip-path: url(#clippath-37);
      }

      .cls-17 {
        clip-path: url(#clippath-46);
      }

      .cls-18 {
        clip-path: url(#clippath-25);
      }

      .cls-19 {
        clip-path: url(#clippath-15);
      }

      .cls-20 {
        clip-path: url(#clippath-6);
      }

      .cls-21 {
        clip-path: url(#clippath-40);
      }

      .cls-22 {
        clip-path: url(#clippath-26);
      }

      .cls-23 {
        clip-path: url(#clippath-75);
      }

      .cls-24 {
        fill: none;
      }

      .cls-24, .cls-25 {
        stroke-width: 0px;
      }

      .cls-26 {
        clip-path: url(#clippath-7);
      }

      .cls-27 {
        clip-path: url(#clippath-21);
      }

      .cls-28 {
        clip-path: url(#clippath-34);
      }

      .cls-29 {
        clip-path: url(#clippath-57);
      }

      .cls-30 {
        clip-path: url(#clippath-1);
      }

      .cls-31 {
        clip-path: url(#clippath-4);
      }

      .cls-32 {
        clip-path: url(#clippath-38);
      }

      .cls-33 {
        clip-path: url(#clippath-36);
      }

      .cls-34 {
        clip-path: url(#clippath-27);
      }

      .cls-35 {
        clip-path: url(#clippath-60);
      }

      .cls-36 {
        clip-path: url(#clippath-44);
      }

      .cls-37 {
        clip-path: url(#clippath-12);
      }

      .cls-38 {
        clip-path: url(#clippath-24);
      }

      .cls-39 {
        clip-path: url(#clippath-30);
      }

      .cls-40 {
        clip-path: url(#clippath-22);
      }

      .cls-41 {
        clip-path: url(#clippath-52);
      }

      .cls-42 {
        clip-path: url(#clippath);
      }

      .cls-43 {
        clip-path: url(#clippath-50);
      }

      .cls-44 {
        clip-path: url(#clippath-48);
      }

      .cls-45 {
        clip-path: url(#clippath-61);
      }

      .cls-46 {
        clip-path: url(#clippath-39);
      }

      .cls-47 {
        clip-path: url(#clippath-19);
      }

      .cls-48 {
        clip-path: url(#clippath-31);
      }

      .cls-49 {
        clip-path: url(#clippath-54);
      }

      .cls-50 {
        clip-path: url(#clippath-3);
      }

      .cls-51 {
        clip-path: url(#clippath-43);
      }

      .cls-52 {
        clip-path: url(#clippath-70);
      }

      .cls-53 {
        clip-path: url(#clippath-8);
      }

      .cls-54 {
        clip-path: url(#clippath-55);
      }

      .cls-55 {
        clip-path: url(#clippath-69);
      }

      .cls-56 {
        clip-path: url(#clippath-29);
      }

      .cls-57 {
        clip-path: url(#clippath-18);
      }

      .cls-58 {
        clip-path: url(#clippath-14);
      }

      .cls-59 {
        clip-path: url(#clippath-17);
      }

      .cls-60 {
        clip-path: url(#clippath-5);
      }

      .cls-61 {
        clip-path: url(#clippath-58);
      }

      .cls-62 {
        clip-path: url(#clippath-42);
      }

      .cls-63 {
        clip-path: url(#clippath-65);
      }

      .cls-64 {
        clip-path: url(#clippath-10);
      }

      .cls-65 {
        clip-path: url(#clippath-23);
      }

      .cls-66 {
        clip-path: url(#clippath-74);
      }

      .cls-67 {
        clip-path: url(#clippath-56);
      }

      .cls-68 {
        clip-path: url(#clippath-53);
      }

      .cls-69 {
        clip-path: url(#clippath-49);
      }

      .cls-70 {
        clip-path: url(#clippath-67);
      }

      .cls-71 {
        clip-path: url(#clippath-51);
      }

      .cls-72 {
        clip-path: url(#clippath-28);
      }

      .cls-73 {
        clip-path: url(#clippath-71);
      }

      .cls-74 {
        clip-path: url(#clippath-68);
      }

      .cls-75 {
        clip-path: url(#clippath-35);
      }

      .cls-76 {
        clip-path: url(#clippath-66);
      }
    </style>
    <clipPath id="clippath">
      <path class="cls-24" d="m157.1,330.82l47.6,31.78-47.6,22.95-47.6-22.95,47.6-31.78Zm140.42-197.54L293.17,0l-41.34,55.89-30.46,21.5,15.23,10.75,26.11-15.05,13.06-19.35,4.35,23.65v42.99l17.41,12.9Zm-65.79,76.16l13.43-10.71-8.92-10.71h-13.45l-13.32,11.92,22.27,9.5ZM34.09,120.38v-42.99l4.35-23.65,13.06,19.35,26.11,15.05,15.23-10.75-30.46-21.5L21.04,0l-4.35,133.28,17.41-12.9Zm169.22,103.08l79.48,94.26-14.79,22.18-29.57,38.81-25.88-20.33-51.75-33.27v-22.18l15.34-29.24-9.52-9.52,3.57-5.95,9.09,11.44,20.33-7.39,3.7-12.94-18.48-18.48h-55.45l-18.48,18.48,3.7,12.94,20.33,7.39,9.09-11.44,3.57,5.95-9.52,9.52,15.34,29.24v22.18l-51.75,33.27-25.88,20.33-29.57-38.81-14.79-22.18,79.47-94.26-75.78,73.93L0,253.04l16.63-55.45v-59.14l81.32-60.99h36.97l14.79,20.33,3.7,33.27-29.57-7.39,29.57,24.03v27.72l-5.54,29.57-20.33,12.94,16.63-5.54h25.88l16.63,5.54-20.33-12.94-5.54-29.57v-27.72l29.57-24.03-29.57,7.39,3.7-33.27,14.79-20.33h36.97l81.32,60.99v59.14l16.64,55.45-35.12,44.36-75.78-73.93Zm-74.77-26.36l-14.49-13.85h-50.7l-18.11,13.85,30.03,24.23,53.27-24.23Zm110.39,24.23l30.03-24.23-18.11-13.85h-50.7l-14.49,13.85,53.27,24.23Zm-134.18-21.4l-13.32-11.92h-13.45l-8.92,10.71,13.43,10.71,22.27-9.5Z"/>
    </clipPath>
    <clipPath id="clippath-1">
      <rect class="cls-24" x="198.64" y="318.09" width="360" height="17.62"/>
    </clipPath>
    <clipPath id="clippath-2">
      <rect class="cls-24" x="198.64" y="335.7" width="360" height="17.62"/>
    </clipPath>
    <clipPath id="clippath-3">
      <rect class="cls-24" x="198.64" y="353.32" width="360" height="17.62"/>
    </clipPath>
    <clipPath id="clippath-4">
      <rect class="cls-24" x="198.64" y="370.94" width="360" height="17.62"/>
    </clipPath>
    <clipPath id="clippath-5">
      <rect class="cls-24" x="-161.36" y="318.09" width="360" height="17.62"/>
    </clipPath>
    <clipPath id="clippath-6">
      <rect class="cls-24" x="-161.36" y="335.7" width="360" height="17.62"/>
    </clipPath>
    <clipPath id="clippath-7">
      <rect class="cls-24" x="-161.36" y="353.32" width="360" height="17.62"/>
    </clipPath>
    <clipPath id="clippath-8">
      <rect class="cls-24" x="-161.36" y="370.94" width="360" height="17.62"/>
    </clipPath>
    <clipPath id="clippath-10">
      <rect class="cls-24" x="198.64" y=".97" width="360" height="17.62"/>
    </clipPath>
    <clipPath id="clippath-11">
      <rect class="cls-24" x="198.64" y="18.58" width="360" height="17.62"/>
    </clipPath>
    <clipPath id="clippath-12">
      <rect class="cls-24" x="198.64" y="36.2" width="360" height="17.62"/>
    </clipPath>
    <clipPath id="clippath-13">
      <rect class="cls-24" x="198.64" y="53.82" width="360" height="17.62"/>
    </clipPath>
    <clipPath id="clippath-14">
      <rect class="cls-24" x="198.64" y="71.44" width="360" height="17.62"/>
    </clipPath>
    <clipPath id="clippath-15">
      <rect class="cls-24" x="198.64" y="89.06" width="360" height="17.62"/>
    </clipPath>
    <clipPath id="clippath-16">
      <rect class="cls-24" x="198.64" y="106.67" width="360" height="17.62"/>
    </clipPath>
    <clipPath id="clippath-17">
      <rect class="cls-24" x="198.64" y="124.29" width="360" height="17.62"/>
    </clipPath>
    <clipPath id="clippath-18">
      <rect class="cls-24" x="198.64" y="177.14" width="360" height="17.62"/>
    </clipPath>
    <clipPath id="clippath-19">
      <rect class="cls-24" x="198.64" y="194.76" width="360" height="17.62"/>
    </clipPath>
    <clipPath id="clippath-21">
      <rect class="cls-24" x="-161.36" y=".97" width="360" height="17.62"/>
    </clipPath>
    <clipPath id="clippath-22">
      <rect class="cls-24" x="-161.36" y="18.58" width="360" height="17.62"/>
    </clipPath>
    <clipPath id="clippath-23">
      <rect class="cls-24" x="-161.36" y="36.2" width="360" height="17.62"/>
    </clipPath>
    <clipPath id="clippath-24">
      <rect class="cls-24" x="-161.36" y="53.82" width="360" height="17.62"/>
    </clipPath>
    <clipPath id="clippath-25">
      <rect class="cls-24" x="-161.36" y="71.44" width="360" height="17.62"/>
    </clipPath>
    <clipPath id="clippath-26">
      <rect class="cls-24" x="-161.36" y="89.06" width="360" height="17.62"/>
    </clipPath>
    <clipPath id="clippath-27">
      <rect class="cls-24" x="-161.36" y="106.67" width="360" height="17.62"/>
    </clipPath>
    <clipPath id="clippath-28">
      <rect class="cls-24" x="-161.36" y="124.29" width="360" height="17.62"/>
    </clipPath>
    <clipPath id="clippath-29">
      <rect class="cls-24" x="198.64" y="71.44" width="360" height="17.62"/>
    </clipPath>
    <clipPath id="clippath-30">
      <rect class="cls-24" x="198.64" y="89.06" width="360" height="17.62"/>
    </clipPath>
    <clipPath id="clippath-31">
      <rect class="cls-24" x="198.64" y="106.67" width="360" height="17.62"/>
    </clipPath>
    <clipPath id="clippath-32">
      <rect class="cls-24" x="198.64" y="124.29" width="360" height="17.62"/>
    </clipPath>
    <clipPath id="clippath-33">
      <rect class="cls-24" x="198.64" y="141.91" width="360" height="17.62"/>
    </clipPath>
    <clipPath id="clippath-34">
      <rect class="cls-24" x="198.64" y="159.53" width="360" height="17.62"/>
    </clipPath>
    <clipPath id="clippath-35">
      <rect class="cls-24" x="198.64" y="177.14" width="360" height="17.62"/>
    </clipPath>
    <clipPath id="clippath-36">
      <rect class="cls-24" x="198.64" y="194.76" width="360" height="17.62"/>
    </clipPath>
    <clipPath id="clippath-37">
      <rect class="cls-24" x="198.64" y="212.38" width="360" height="17.62"/>
    </clipPath>
    <clipPath id="clippath-38">
      <rect class="cls-24" x="198.64" y="230" width="360" height="17.62"/>
    </clipPath>
    <clipPath id="clippath-39">
      <rect class="cls-24" x="198.64" y="247.62" width="360" height="17.62"/>
    </clipPath>
    <clipPath id="clippath-40">
      <rect class="cls-24" x="198.64" y="265.23" width="360" height="17.62"/>
    </clipPath>
    <clipPath id="clippath-41">
      <rect class="cls-24" x="198.64" y="282.85" width="360" height="17.62"/>
    </clipPath>
    <clipPath id="clippath-42">
      <rect class="cls-24" x="198.64" y="300.47" width="360" height="17.62"/>
    </clipPath>
    <clipPath id="clippath-43">
      <rect class="cls-24" x="198.64" y="318.09" width="360" height="17.62"/>
    </clipPath>
    <clipPath id="clippath-44">
      <rect class="cls-24" x="198.64" y="335.7" width="360" height="17.62"/>
    </clipPath>
    <clipPath id="clippath-45">
      <rect class="cls-24" x="198.64" y="353.32" width="360" height="17.62"/>
    </clipPath>
    <clipPath id="clippath-46">
      <rect class="cls-24" x="198.64" y="370.94" width="360" height="17.62"/>
    </clipPath>
    <clipPath id="clippath-47">
      <rect class="cls-24" x="-161.36" y="71.44" width="360" height="17.62"/>
    </clipPath>
    <clipPath id="clippath-48">
      <rect class="cls-24" x="-161.36" y="89.06" width="360" height="17.62"/>
    </clipPath>
    <clipPath id="clippath-49">
      <rect class="cls-24" x="-161.36" y="106.67" width="360" height="17.62"/>
    </clipPath>
    <clipPath id="clippath-50">
      <rect class="cls-24" x="-161.36" y="124.29" width="360" height="17.62"/>
    </clipPath>
    <clipPath id="clippath-51">
      <rect class="cls-24" x="-161.36" y="141.91" width="360" height="17.62"/>
    </clipPath>
    <clipPath id="clippath-52">
      <rect class="cls-24" x="-161.36" y="159.53" width="360" height="17.62"/>
    </clipPath>
    <clipPath id="clippath-53">
      <rect class="cls-24" x="-161.36" y="177.14" width="360" height="17.62"/>
    </clipPath>
    <clipPath id="clippath-54">
      <rect class="cls-24" x="-161.36" y="194.76" width="360" height="17.62"/>
    </clipPath>
    <clipPath id="clippath-55">
      <rect class="cls-24" x="-161.36" y="212.38" width="360" height="17.62"/>
    </clipPath>
    <clipPath id="clippath-56">
      <rect class="cls-24" x="-161.36" y="230" width="360" height="17.62"/>
    </clipPath>
    <clipPath id="clippath-57">
      <rect class="cls-24" x="-161.36" y="247.62" width="360" height="17.62"/>
    </clipPath>
    <clipPath id="clippath-58">
      <rect class="cls-24" x="-161.36" y="265.23" width="360" height="17.62"/>
    </clipPath>
    <clipPath id="clippath-59">
      <rect class="cls-24" x="-161.36" y="282.85" width="360" height="17.62"/>
    </clipPath>
    <clipPath id="clippath-60">
      <rect class="cls-24" x="-161.36" y="300.47" width="360" height="17.62"/>
    </clipPath>
    <clipPath id="clippath-61">
      <rect class="cls-24" x="-161.36" y="318.09" width="360" height="17.62"/>
    </clipPath>
    <clipPath id="clippath-62">
      <rect class="cls-24" x="-161.36" y="335.7" width="360" height="17.62"/>
    </clipPath>
    <clipPath id="clippath-63">
      <rect class="cls-24" x="-161.36" y="353.32" width="360" height="17.62"/>
    </clipPath>
    <clipPath id="clippath-64">
      <rect class="cls-24" x="-161.36" y="370.94" width="360" height="17.62"/>
    </clipPath>
    <clipPath id="clippath-65">
      <rect class="cls-24" x="-161.36" y="177.14" width="360" height="17.62"/>
    </clipPath>
    <clipPath id="clippath-66">
      <rect class="cls-24" x="-161.36" y="194.76" width="360" height="17.62"/>
    </clipPath>
    <clipPath id="clippath-67">
      <rect class="cls-24" x="-161.36" y="212.38" width="360" height="17.62"/>
    </clipPath>
    <clipPath id="clippath-68">
      <rect class="cls-24" x="198.64" y="177.14" width="360" height="17.62"/>
    </clipPath>
    <clipPath id="clippath-69">
      <rect class="cls-24" x="198.64" y="194.76" width="360" height="17.62"/>
    </clipPath>
    <clipPath id="clippath-70">
      <rect class="cls-24" x="198.64" y="212.38" width="360" height="17.62"/>
    </clipPath>
    <clipPath id="clippath-71">
      <rect class="cls-24" x="-161.36" y="177.14" width="360" height="17.62"/>
    </clipPath>
    <clipPath id="clippath-72">
      <rect class="cls-24" x="-161.36" y="194.76" width="360" height="17.62"/>
    </clipPath>
    <clipPath id="clippath-73">
      <rect class="cls-24" x="-161.36" y="212.38" width="360" height="17.62"/>
    </clipPath>
    <clipPath id="clippath-74">
      <rect class="cls-24" x="-161.36" y="177.14" width="360" height="17.62"/>
    </clipPath>
    <clipPath id="clippath-75">
      <rect class="cls-24" x="-161.36" y="194.76" width="360" height="17.62"/>
    </clipPath>
  </defs>
  <g id="ChromeDog_Font_Mix_copy" data-name="ChromeDog Font Mix copy">
    <g id="Loco-Icon">
      <g class="cls-42">
        <g class="cls-30">
          <rect class="cls-25" x="198.64" y="332.18" width="360" height=".9"/>
          <rect class="cls-25" x="198.64" y="328.66" width="360" height=".9"/>
          <rect class="cls-25" x="198.64" y="325.13" width="360" height=".9"/>
          <rect class="cls-25" x="198.64" y="321.61" width="360" height=".9"/>
          <rect class="cls-25" x="198.64" y="318.09" width="360" height=".9"/>
        </g>
        <g class="cls-14">
          <rect class="cls-25" x="198.64" y="349.8" width="360" height=".9"/>
          <rect class="cls-25" x="198.64" y="346.27" width="360" height=".9"/>
          <rect class="cls-25" x="198.64" y="342.75" width="360" height=".9"/>
          <rect class="cls-25" x="198.64" y="339.23" width="360" height=".9"/>
          <rect class="cls-25" x="198.64" y="335.7" width="360" height=".9"/>
        </g>
        <g class="cls-50">
          <rect class="cls-25" x="198.64" y="367.42" width="360" height=".9"/>
          <rect class="cls-25" x="198.64" y="363.89" width="360" height=".9"/>
          <rect class="cls-25" x="198.64" y="360.37" width="360" height=".9"/>
          <rect class="cls-25" x="198.64" y="356.85" width="360" height=".9"/>
          <rect class="cls-25" x="198.64" y="353.32" width="360" height=".9"/>
        </g>
        <g class="cls-31">
          <rect class="cls-25" x="198.64" y="385.03" width="360" height=".9"/>
          <rect class="cls-25" x="198.64" y="381.51" width="360" height=".9"/>
          <rect class="cls-25" x="198.64" y="377.99" width="360" height=".9"/>
          <rect class="cls-25" x="198.64" y="374.46" width="360" height=".9"/>
          <rect class="cls-25" x="198.64" y="370.94" width="360" height=".9"/>
        </g>
        <g class="cls-60">
          <rect class="cls-25" x="-161.36" y="332.18" width="360" height=".9"/>
          <rect class="cls-25" x="-161.36" y="328.66" width="360" height=".9"/>
          <rect class="cls-25" x="-161.36" y="325.13" width="360" height=".9"/>
          <rect class="cls-25" x="-161.36" y="321.61" width="360" height=".9"/>
          <rect class="cls-25" x="-161.36" y="318.09" width="360" height=".9"/>
        </g>
        <g class="cls-20">
          <rect class="cls-25" x="-161.36" y="349.8" width="360" height=".9"/>
          <rect class="cls-25" x="-161.36" y="346.27" width="360" height=".9"/>
          <rect class="cls-25" x="-161.36" y="342.75" width="360" height=".9"/>
          <rect class="cls-25" x="-161.36" y="339.23" width="360" height=".9"/>
          <rect class="cls-25" x="-161.36" y="335.7" width="360" height=".9"/>
        </g>
        <g class="cls-26">
          <rect class="cls-25" x="-161.36" y="367.42" width="360" height=".9"/>
          <rect class="cls-25" x="-161.36" y="363.89" width="360" height=".9"/>
          <rect class="cls-25" x="-161.36" y="360.37" width="360" height=".9"/>
          <rect class="cls-25" x="-161.36" y="356.85" width="360" height=".9"/>
          <rect class="cls-25" x="-161.36" y="353.32" width="360" height=".9"/>
        </g>
        <g class="cls-53">
          <rect class="cls-25" x="-161.36" y="385.03" width="360" height=".9"/>
          <rect class="cls-25" x="-161.36" y="381.51" width="360" height=".9"/>
          <rect class="cls-25" x="-161.36" y="377.99" width="360" height=".9"/>
          <rect class="cls-25" x="-161.36" y="374.46" width="360" height=".9"/>
          <rect class="cls-25" x="-161.36" y="370.94" width="360" height=".9"/>
        </g>
        <g class="cls-64">
          <rect class="cls-25" x="198.64" y="15.06" width="360" height=".9"/>
          <rect class="cls-25" x="198.64" y="11.54" width="360" height=".9"/>
          <rect class="cls-25" x="198.64" y="8.01" width="360" height=".9"/>
          <rect class="cls-25" x="198.64" y="4.49" width="360" height=".9"/>
          <rect class="cls-25" x="198.64" y=".97" width="360" height=".9"/>
        </g>
        <g class="cls-6">
          <rect class="cls-25" x="198.64" y="32.68" width="360" height=".9"/>
          <rect class="cls-25" x="198.64" y="29.16" width="360" height=".9"/>
          <rect class="cls-25" x="198.64" y="25.63" width="360" height=".9"/>
          <rect class="cls-25" x="198.64" y="22.11" width="360" height=".9"/>
          <rect class="cls-25" x="198.64" y="18.58" width="360" height=".9"/>
        </g>
        <g class="cls-37">
          <rect class="cls-25" x="198.64" y="50.3" width="360" height=".9"/>
          <rect class="cls-25" x="198.64" y="46.77" width="360" height=".9"/>
          <rect class="cls-25" x="198.64" y="43.25" width="360" height=".9"/>
          <rect class="cls-25" x="198.64" y="39.73" width="360" height=".9"/>
          <rect class="cls-25" x="198.64" y="36.2" width="360" height=".9"/>
        </g>
        <g class="cls-15">
          <rect class="cls-25" x="198.64" y="67.91" width="360" height=".9"/>
          <rect class="cls-25" x="198.64" y="64.39" width="360" height=".9"/>
          <rect class="cls-25" x="198.64" y="60.87" width="360" height=".9"/>
          <rect class="cls-25" x="198.64" y="57.34" width="360" height=".9"/>
          <rect class="cls-25" x="198.64" y="53.82" width="360" height=".9"/>
        </g>
        <g class="cls-58">
          <rect class="cls-25" x="198.64" y="85.53" width="360" height=".9"/>
          <rect class="cls-25" x="198.64" y="82.01" width="360" height=".9"/>
          <rect class="cls-25" x="198.64" y="78.48" width="360" height=".9"/>
          <rect class="cls-25" x="198.64" y="74.96" width="360" height=".9"/>
          <rect class="cls-25" x="198.64" y="71.44" width="360" height=".9"/>
        </g>
        <g class="cls-19">
          <rect class="cls-25" x="198.64" y="103.15" width="360" height=".9"/>
          <rect class="cls-25" x="198.64" y="99.63" width="360" height=".9"/>
          <rect class="cls-25" x="198.64" y="96.1" width="360" height=".9"/>
          <rect class="cls-25" x="198.64" y="92.58" width="360" height=".9"/>
          <rect class="cls-25" x="198.64" y="89.06" width="360" height=".9"/>
        </g>
        <g class="cls-7">
          <rect class="cls-25" x="198.64" y="120.77" width="360" height=".9"/>
          <rect class="cls-25" x="198.64" y="117.24" width="360" height=".9"/>
          <rect class="cls-25" x="198.64" y="113.72" width="360" height=".9"/>
          <rect class="cls-25" x="198.64" y="110.2" width="360" height=".9"/>
          <rect class="cls-25" x="198.64" y="106.67" width="360" height=".9"/>
        </g>
        <g class="cls-59">
          <rect class="cls-25" x="198.64" y="138.39" width="360" height=".9"/>
          <rect class="cls-25" x="198.64" y="134.86" width="360" height=".9"/>
          <rect class="cls-25" x="198.64" y="131.34" width="360" height=".9"/>
          <rect class="cls-25" x="198.64" y="127.81" width="360" height=".9"/>
          <rect class="cls-25" x="198.64" y="124.29" width="360" height=".9"/>
        </g>
        <g class="cls-57">
          <rect class="cls-25" x="198.64" y="191.24" width="360" height=".9"/>
          <rect class="cls-25" x="198.64" y="187.71" width="360" height=".9"/>
          <rect class="cls-25" x="198.64" y="184.19" width="360" height=".9"/>
          <rect class="cls-25" x="198.64" y="180.67" width="360" height=".9"/>
          <rect class="cls-25" x="198.64" y="177.14" width="360" height=".9"/>
        </g>
        <g class="cls-47">
          <rect class="cls-25" x="198.64" y="208.86" width="360" height=".9"/>
          <rect class="cls-25" x="198.64" y="205.33" width="360" height=".9"/>
          <rect class="cls-25" x="198.64" y="201.81" width="360" height=".9"/>
          <rect class="cls-25" x="198.64" y="198.29" width="360" height=".9"/>
          <rect class="cls-25" x="198.64" y="194.76" width="360" height=".9"/>
        </g>
        <g class="cls-27">
          <rect class="cls-25" x="-161.36" y="15.06" width="360" height=".9"/>
          <rect class="cls-25" x="-161.36" y="11.54" width="360" height=".9"/>
          <rect class="cls-25" x="-161.36" y="8.01" width="360" height=".9"/>
          <rect class="cls-25" x="-161.36" y="4.49" width="360" height=".9"/>
          <rect class="cls-25" x="-161.36" y=".97" width="360" height=".9"/>
        </g>
        <g class="cls-40">
          <rect class="cls-25" x="-161.36" y="32.68" width="360" height=".9"/>
          <rect class="cls-25" x="-161.36" y="29.16" width="360" height=".9"/>
          <rect class="cls-25" x="-161.36" y="25.63" width="360" height=".9"/>
          <rect class="cls-25" x="-161.36" y="22.11" width="360" height=".9"/>
          <rect class="cls-25" x="-161.36" y="18.58" width="360" height=".9"/>
        </g>
        <g class="cls-65">
          <rect class="cls-25" x="-161.36" y="50.3" width="360" height=".9"/>
          <rect class="cls-25" x="-161.36" y="46.77" width="360" height=".9"/>
          <rect class="cls-25" x="-161.36" y="43.25" width="360" height=".9"/>
          <rect class="cls-25" x="-161.36" y="39.73" width="360" height=".9"/>
          <rect class="cls-25" x="-161.36" y="36.2" width="360" height=".9"/>
        </g>
        <g class="cls-38">
          <rect class="cls-25" x="-161.36" y="67.91" width="360" height=".9"/>
          <rect class="cls-25" x="-161.36" y="64.39" width="360" height=".9"/>
          <rect class="cls-25" x="-161.36" y="60.87" width="360" height=".9"/>
          <rect class="cls-25" x="-161.36" y="57.34" width="360" height=".9"/>
          <rect class="cls-25" x="-161.36" y="53.82" width="360" height=".9"/>
        </g>
        <g class="cls-18">
          <rect class="cls-25" x="-161.36" y="85.53" width="360" height=".9"/>
          <rect class="cls-25" x="-161.36" y="82.01" width="360" height=".9"/>
          <rect class="cls-25" x="-161.36" y="78.48" width="360" height=".9"/>
          <rect class="cls-25" x="-161.36" y="74.96" width="360" height=".9"/>
          <rect class="cls-25" x="-161.36" y="71.44" width="360" height=".9"/>
        </g>
        <g class="cls-22">
          <rect class="cls-25" x="-161.36" y="103.15" width="360" height=".9"/>
          <rect class="cls-25" x="-161.36" y="99.63" width="360" height=".9"/>
          <rect class="cls-25" x="-161.36" y="96.1" width="360" height=".9"/>
          <rect class="cls-25" x="-161.36" y="92.58" width="360" height=".9"/>
          <rect class="cls-25" x="-161.36" y="89.06" width="360" height=".9"/>
        </g>
        <g class="cls-34">
          <rect class="cls-25" x="-161.36" y="120.77" width="360" height=".9"/>
          <rect class="cls-25" x="-161.36" y="117.24" width="360" height=".9"/>
          <rect class="cls-25" x="-161.36" y="113.72" width="360" height=".9"/>
          <rect class="cls-25" x="-161.36" y="110.2" width="360" height=".9"/>
          <rect class="cls-25" x="-161.36" y="106.67" width="360" height=".9"/>
        </g>
        <g class="cls-72">
          <rect class="cls-25" x="-161.36" y="138.39" width="360" height=".9"/>
          <rect class="cls-25" x="-161.36" y="134.86" width="360" height=".9"/>
          <rect class="cls-25" x="-161.36" y="131.34" width="360" height=".9"/>
          <rect class="cls-25" x="-161.36" y="127.81" width="360" height=".9"/>
          <rect class="cls-25" x="-161.36" y="124.29" width="360" height=".9"/>
        </g>
        <g class="cls-56">
          <rect class="cls-25" x="198.64" y="85.53" width="360" height=".9"/>
          <rect class="cls-25" x="198.64" y="82.01" width="360" height=".9"/>
          <rect class="cls-25" x="198.64" y="78.48" width="360" height=".9"/>
          <rect class="cls-25" x="198.64" y="74.96" width="360" height=".9"/>
          <rect class="cls-25" x="198.64" y="71.44" width="360" height=".9"/>
        </g>
        <g class="cls-39">
          <rect class="cls-25" x="198.64" y="103.15" width="360" height=".9"/>
          <rect class="cls-25" x="198.64" y="99.63" width="360" height=".9"/>
          <rect class="cls-25" x="198.64" y="96.1" width="360" height=".9"/>
          <rect class="cls-25" x="198.64" y="92.58" width="360" height=".9"/>
          <rect class="cls-25" x="198.64" y="89.06" width="360" height=".9"/>
        </g>
        <g class="cls-48">
          <rect class="cls-25" x="198.64" y="120.77" width="360" height=".9"/>
          <rect class="cls-25" x="198.64" y="117.24" width="360" height=".9"/>
          <rect class="cls-25" x="198.64" y="113.72" width="360" height=".9"/>
          <rect class="cls-25" x="198.64" y="110.2" width="360" height=".9"/>
          <rect class="cls-25" x="198.64" y="106.67" width="360" height=".9"/>
        </g>
        <g class="cls-13">
          <rect class="cls-25" x="198.64" y="138.39" width="360" height=".9"/>
          <rect class="cls-25" x="198.64" y="134.86" width="360" height=".9"/>
          <rect class="cls-25" x="198.64" y="131.34" width="360" height=".9"/>
          <rect class="cls-25" x="198.64" y="127.81" width="360" height=".9"/>
          <rect class="cls-25" x="198.64" y="124.29" width="360" height=".9"/>
        </g>
        <g class="cls-9">
          <rect class="cls-25" x="198.64" y="156" width="360" height=".9"/>
          <rect class="cls-25" x="198.64" y="152.48" width="360" height=".9"/>
          <rect class="cls-25" x="198.64" y="148.96" width="360" height=".9"/>
          <rect class="cls-25" x="198.64" y="145.43" width="360" height=".9"/>
          <rect class="cls-25" x="198.64" y="141.91" width="360" height=".9"/>
        </g>
        <g class="cls-28">
          <rect class="cls-25" x="198.64" y="173.62" width="360" height=".9"/>
          <rect class="cls-25" x="198.64" y="170.1" width="360" height=".9"/>
          <rect class="cls-25" x="198.64" y="166.57" width="360" height=".9"/>
          <rect class="cls-25" x="198.64" y="163.05" width="360" height=".9"/>
          <rect class="cls-25" x="198.64" y="159.53" width="360" height=".9"/>
        </g>
        <g class="cls-75">
          <rect class="cls-25" x="198.64" y="191.24" width="360" height=".9"/>
          <rect class="cls-25" x="198.64" y="187.71" width="360" height=".9"/>
          <rect class="cls-25" x="198.64" y="184.19" width="360" height=".9"/>
          <rect class="cls-25" x="198.64" y="180.67" width="360" height=".9"/>
          <rect class="cls-25" x="198.64" y="177.14" width="360" height=".9"/>
        </g>
        <g class="cls-33">
          <rect class="cls-25" x="198.64" y="208.86" width="360" height=".9"/>
          <rect class="cls-25" x="198.64" y="205.33" width="360" height=".9"/>
          <rect class="cls-25" x="198.64" y="201.81" width="360" height=".9"/>
          <rect class="cls-25" x="198.64" y="198.29" width="360" height=".9"/>
          <rect class="cls-25" x="198.64" y="194.76" width="360" height=".9"/>
        </g>
        <g class="cls-16">
          <rect class="cls-25" x="198.64" y="226.47" width="360" height=".9"/>
          <rect class="cls-25" x="198.64" y="222.95" width="360" height=".9"/>
          <rect class="cls-25" x="198.64" y="219.43" width="360" height=".9"/>
          <rect class="cls-25" x="198.64" y="215.9" width="360" height=".9"/>
          <rect class="cls-25" x="198.64" y="212.38" width="360" height=".9"/>
        </g>
        <g class="cls-32">
          <rect class="cls-25" x="198.64" y="244.09" width="360" height=".9"/>
          <rect class="cls-25" x="198.64" y="240.57" width="360" height=".9"/>
          <rect class="cls-25" x="198.64" y="237.04" width="360" height=".9"/>
          <rect class="cls-25" x="198.64" y="233.52" width="360" height=".9"/>
          <rect class="cls-25" x="198.64" y="230" width="360" height=".9"/>
        </g>
        <g class="cls-46">
          <rect class="cls-25" x="198.64" y="261.71" width="360" height=".9"/>
          <rect class="cls-25" x="198.64" y="258.19" width="360" height=".9"/>
          <rect class="cls-25" x="198.64" y="254.66" width="360" height=".9"/>
          <rect class="cls-25" x="198.64" y="251.14" width="360" height=".9"/>
          <rect class="cls-25" x="198.64" y="247.62" width="360" height=".9"/>
        </g>
        <g class="cls-21">
          <rect class="cls-25" x="198.64" y="279.33" width="360" height=".9"/>
          <rect class="cls-25" x="198.64" y="275.8" width="360" height=".9"/>
          <rect class="cls-25" x="198.64" y="272.28" width="360" height=".9"/>
          <rect class="cls-25" x="198.64" y="268.76" width="360" height=".9"/>
          <rect class="cls-25" x="198.64" y="265.23" width="360" height=".9"/>
        </g>
        <g class="cls-12">
          <rect class="cls-25" x="198.64" y="296.95" width="360" height=".9"/>
          <rect class="cls-25" x="198.64" y="293.42" width="360" height=".9"/>
          <rect class="cls-25" x="198.64" y="289.9" width="360" height=".9"/>
          <rect class="cls-25" x="198.64" y="286.37" width="360" height=".9"/>
          <rect class="cls-25" x="198.64" y="282.85" width="360" height=".9"/>
        </g>
        <g class="cls-62">
          <rect class="cls-25" x="198.64" y="314.56" width="360" height=".9"/>
          <rect class="cls-25" x="198.64" y="311.04" width="360" height=".9"/>
          <rect class="cls-25" x="198.64" y="307.52" width="360" height=".9"/>
          <rect class="cls-25" x="198.64" y="303.99" width="360" height=".9"/>
          <rect class="cls-25" x="198.64" y="300.47" width="360" height=".9"/>
        </g>
        <g class="cls-51">
          <rect class="cls-25" x="198.64" y="332.18" width="360" height=".9"/>
          <rect class="cls-25" x="198.64" y="328.66" width="360" height=".9"/>
          <rect class="cls-25" x="198.64" y="325.13" width="360" height=".9"/>
          <rect class="cls-25" x="198.64" y="321.61" width="360" height=".9"/>
          <rect class="cls-25" x="198.64" y="318.09" width="360" height=".9"/>
        </g>
        <g class="cls-36">
          <rect class="cls-25" x="198.64" y="349.8" width="360" height=".9"/>
          <rect class="cls-25" x="198.64" y="346.27" width="360" height=".9"/>
          <rect class="cls-25" x="198.64" y="342.75" width="360" height=".9"/>
          <rect class="cls-25" x="198.64" y="339.23" width="360" height=".9"/>
          <rect class="cls-25" x="198.64" y="335.7" width="360" height=".9"/>
        </g>
        <g class="cls-4">
          <rect class="cls-25" x="198.64" y="367.42" width="360" height=".9"/>
          <rect class="cls-25" x="198.64" y="363.89" width="360" height=".9"/>
          <rect class="cls-25" x="198.64" y="360.37" width="360" height=".9"/>
          <rect class="cls-25" x="198.64" y="356.85" width="360" height=".9"/>
          <rect class="cls-25" x="198.64" y="353.32" width="360" height=".9"/>
        </g>
        <g class="cls-17">
          <rect class="cls-25" x="198.64" y="385.03" width="360" height=".9"/>
          <rect class="cls-25" x="198.64" y="381.51" width="360" height=".9"/>
          <rect class="cls-25" x="198.64" y="377.99" width="360" height=".9"/>
          <rect class="cls-25" x="198.64" y="374.46" width="360" height=".9"/>
          <rect class="cls-25" x="198.64" y="370.94" width="360" height=".9"/>
        </g>
        <g class="cls-11">
          <rect class="cls-25" x="-161.36" y="85.53" width="360" height=".9"/>
          <rect class="cls-25" x="-161.36" y="82.01" width="360" height=".9"/>
          <rect class="cls-25" x="-161.36" y="78.48" width="360" height=".9"/>
          <rect class="cls-25" x="-161.36" y="74.96" width="360" height=".9"/>
          <rect class="cls-25" x="-161.36" y="71.44" width="360" height=".9"/>
        </g>
        <g class="cls-44">
          <rect class="cls-25" x="-161.36" y="103.15" width="360" height=".9"/>
          <rect class="cls-25" x="-161.36" y="99.63" width="360" height=".9"/>
          <rect class="cls-25" x="-161.36" y="96.1" width="360" height=".9"/>
          <rect class="cls-25" x="-161.36" y="92.58" width="360" height=".9"/>
          <rect class="cls-25" x="-161.36" y="89.06" width="360" height=".9"/>
        </g>
        <g class="cls-69">
          <rect class="cls-25" x="-161.36" y="120.77" width="360" height=".9"/>
          <rect class="cls-25" x="-161.36" y="117.24" width="360" height=".9"/>
          <rect class="cls-25" x="-161.36" y="113.72" width="360" height=".9"/>
          <rect class="cls-25" x="-161.36" y="110.2" width="360" height=".9"/>
          <rect class="cls-25" x="-161.36" y="106.67" width="360" height=".9"/>
        </g>
        <g class="cls-43">
          <rect class="cls-25" x="-161.36" y="138.39" width="360" height=".9"/>
          <rect class="cls-25" x="-161.36" y="134.86" width="360" height=".9"/>
          <rect class="cls-25" x="-161.36" y="131.34" width="360" height=".9"/>
          <rect class="cls-25" x="-161.36" y="127.81" width="360" height=".9"/>
          <rect class="cls-25" x="-161.36" y="124.29" width="360" height=".9"/>
        </g>
        <g class="cls-71">
          <rect class="cls-25" x="-161.36" y="156" width="360" height=".9"/>
          <rect class="cls-25" x="-161.36" y="152.48" width="360" height=".9"/>
          <rect class="cls-25" x="-161.36" y="148.96" width="360" height=".9"/>
          <rect class="cls-25" x="-161.36" y="145.43" width="360" height=".9"/>
          <rect class="cls-25" x="-161.36" y="141.91" width="360" height=".9"/>
        </g>
        <g class="cls-41">
          <rect class="cls-25" x="-161.36" y="173.62" width="360" height=".9"/>
          <rect class="cls-25" x="-161.36" y="170.1" width="360" height=".9"/>
          <rect class="cls-25" x="-161.36" y="166.57" width="360" height=".9"/>
          <rect class="cls-25" x="-161.36" y="163.05" width="360" height=".9"/>
          <rect class="cls-25" x="-161.36" y="159.53" width="360" height=".9"/>
        </g>
        <g class="cls-68">
          <rect class="cls-25" x="-161.36" y="191.24" width="360" height=".9"/>
          <rect class="cls-25" x="-161.36" y="187.71" width="360" height=".9"/>
          <rect class="cls-25" x="-161.36" y="184.19" width="360" height=".9"/>
          <rect class="cls-25" x="-161.36" y="180.67" width="360" height=".9"/>
          <rect class="cls-25" x="-161.36" y="177.14" width="360" height=".9"/>
        </g>
        <g class="cls-49">
          <rect class="cls-25" x="-161.36" y="208.86" width="360" height=".9"/>
          <rect class="cls-25" x="-161.36" y="205.33" width="360" height=".9"/>
          <rect class="cls-25" x="-161.36" y="201.81" width="360" height=".9"/>
          <rect class="cls-25" x="-161.36" y="198.29" width="360" height=".9"/>
          <rect class="cls-25" x="-161.36" y="194.76" width="360" height=".9"/>
        </g>
        <g class="cls-54">
          <rect class="cls-25" x="-161.36" y="226.47" width="360" height=".9"/>
          <rect class="cls-25" x="-161.36" y="222.95" width="360" height=".9"/>
          <rect class="cls-25" x="-161.36" y="219.43" width="360" height=".9"/>
          <rect class="cls-25" x="-161.36" y="215.9" width="360" height=".9"/>
          <rect class="cls-25" x="-161.36" y="212.38" width="360" height=".9"/>
        </g>
        <g class="cls-67">
          <rect class="cls-25" x="-161.36" y="244.09" width="360" height=".9"/>
          <rect class="cls-25" x="-161.36" y="240.57" width="360" height=".9"/>
          <rect class="cls-25" x="-161.36" y="237.04" width="360" height=".9"/>
          <rect class="cls-25" x="-161.36" y="233.52" width="360" height=".9"/>
          <rect class="cls-25" x="-161.36" y="230" width="360" height=".9"/>
        </g>
        <g class="cls-29">
          <rect class="cls-25" x="-161.36" y="261.71" width="360" height=".9"/>
          <rect class="cls-25" x="-161.36" y="258.19" width="360" height=".9"/>
          <rect class="cls-25" x="-161.36" y="254.66" width="360" height=".9"/>
          <rect class="cls-25" x="-161.36" y="251.14" width="360" height=".9"/>
          <rect class="cls-25" x="-161.36" y="247.62" width="360" height=".9"/>
        </g>
        <g class="cls-61">
          <rect class="cls-25" x="-161.36" y="279.33" width="360" height=".9"/>
          <rect class="cls-25" x="-161.36" y="275.8" width="360" height=".9"/>
          <rect class="cls-25" x="-161.36" y="272.28" width="360" height=".9"/>
          <rect class="cls-25" x="-161.36" y="268.76" width="360" height=".9"/>
          <rect class="cls-25" x="-161.36" y="265.23" width="360" height=".9"/>
        </g>
        <g class="cls-8">
          <rect class="cls-25" x="-161.36" y="296.95" width="360" height=".9"/>
          <rect class="cls-25" x="-161.36" y="293.42" width="360" height=".9"/>
          <rect class="cls-25" x="-161.36" y="289.9" width="360" height=".9"/>
          <rect class="cls-25" x="-161.36" y="286.37" width="360" height=".9"/>
          <rect class="cls-25" x="-161.36" y="282.85" width="360" height=".9"/>
        </g>
        <g class="cls-35">
          <rect class="cls-25" x="-161.36" y="314.56" width="360" height=".9"/>
          <rect class="cls-25" x="-161.36" y="311.04" width="360" height=".9"/>
          <rect class="cls-25" x="-161.36" y="307.52" width="360" height=".9"/>
          <rect class="cls-25" x="-161.36" y="303.99" width="360" height=".9"/>
          <rect class="cls-25" x="-161.36" y="300.47" width="360" height=".9"/>
        </g>
        <g class="cls-45">
          <rect class="cls-25" x="-161.36" y="332.18" width="360" height=".9"/>
          <rect class="cls-25" x="-161.36" y="328.66" width="360" height=".9"/>
          <rect class="cls-25" x="-161.36" y="325.13" width="360" height=".9"/>
          <rect class="cls-25" x="-161.36" y="321.61" width="360" height=".9"/>
          <rect class="cls-25" x="-161.36" y="318.09" width="360" height=".9"/>
        </g>
        <g class="cls-3">
          <rect class="cls-25" x="-161.36" y="349.8" width="360" height=".9"/>
          <rect class="cls-25" x="-161.36" y="346.27" width="360" height=".9"/>
          <rect class="cls-25" x="-161.36" y="342.75" width="360" height=".9"/>
          <rect class="cls-25" x="-161.36" y="339.23" width="360" height=".9"/>
          <rect class="cls-25" x="-161.36" y="335.7" width="360" height=".9"/>
        </g>
        <g class="cls-5">
          <rect class="cls-25" x="-161.36" y="367.42" width="360" height=".9"/>
          <rect class="cls-25" x="-161.36" y="363.89" width="360" height=".9"/>
          <rect class="cls-25" x="-161.36" y="360.37" width="360" height=".9"/>
          <rect class="cls-25" x="-161.36" y="356.85" width="360" height=".9"/>
          <rect class="cls-25" x="-161.36" y="353.32" width="360" height=".9"/>
        </g>
        <g class="cls-10">
          <rect class="cls-25" x="-161.36" y="385.03" width="360" height=".9"/>
          <rect class="cls-25" x="-161.36" y="381.51" width="360" height=".9"/>
          <rect class="cls-25" x="-161.36" y="377.99" width="360" height=".9"/>
          <rect class="cls-25" x="-161.36" y="374.46" width="360" height=".9"/>
          <rect class="cls-25" x="-161.36" y="370.94" width="360" height=".9"/>
        </g>
        <g class="cls-63">
          <rect class="cls-25" x="-161.36" y="191.24" width="360" height=".9"/>
          <rect class="cls-25" x="-161.36" y="187.71" width="360" height=".9"/>
          <rect class="cls-25" x="-161.36" y="184.19" width="360" height=".9"/>
          <rect class="cls-25" x="-161.36" y="180.67" width="360" height=".9"/>
          <rect class="cls-25" x="-161.36" y="177.14" width="360" height=".9"/>
        </g>
        <g class="cls-76">
          <rect class="cls-25" x="-161.36" y="208.86" width="360" height=".9"/>
          <rect class="cls-25" x="-161.36" y="205.33" width="360" height=".9"/>
          <rect class="cls-25" x="-161.36" y="201.81" width="360" height=".9"/>
          <rect class="cls-25" x="-161.36" y="198.29" width="360" height=".9"/>
          <rect class="cls-25" x="-161.36" y="194.76" width="360" height=".9"/>
        </g>
        <g class="cls-70">
          <rect class="cls-25" x="-161.36" y="226.47" width="360" height=".9"/>
          <rect class="cls-25" x="-161.36" y="222.95" width="360" height=".9"/>
          <rect class="cls-25" x="-161.36" y="219.43" width="360" height=".9"/>
          <rect class="cls-25" x="-161.36" y="215.9" width="360" height=".9"/>
          <rect class="cls-25" x="-161.36" y="212.38" width="360" height=".9"/>
        </g>
        <g class="cls-74">
          <rect class="cls-25" x="198.64" y="191.24" width="360" height=".9"/>
          <rect class="cls-25" x="198.64" y="187.71" width="360" height=".9"/>
          <rect class="cls-25" x="198.64" y="184.19" width="360" height=".9"/>
          <rect class="cls-25" x="198.64" y="180.67" width="360" height=".9"/>
          <rect class="cls-25" x="198.64" y="177.14" width="360" height=".9"/>
        </g>
        <g class="cls-55">
          <rect class="cls-25" x="198.64" y="208.86" width="360" height=".9"/>
          <rect class="cls-25" x="198.64" y="205.33" width="360" height=".9"/>
          <rect class="cls-25" x="198.64" y="201.81" width="360" height=".9"/>
          <rect class="cls-25" x="198.64" y="198.29" width="360" height=".9"/>
          <rect class="cls-25" x="198.64" y="194.76" width="360" height=".9"/>
        </g>
        <g class="cls-52">
          <rect class="cls-25" x="198.64" y="226.47" width="360" height=".9"/>
          <rect class="cls-25" x="198.64" y="222.95" width="360" height=".9"/>
          <rect class="cls-25" x="198.64" y="219.43" width="360" height=".9"/>
          <rect class="cls-25" x="198.64" y="215.9" width="360" height=".9"/>
          <rect class="cls-25" x="198.64" y="212.38" width="360" height=".9"/>
        </g>
        <g class="cls-73">
          <rect class="cls-25" x="-161.36" y="191.24" width="360" height=".9"/>
          <rect class="cls-25" x="-161.36" y="187.71" width="360" height=".9"/>
          <rect class="cls-25" x="-161.36" y="184.19" width="360" height=".9"/>
          <rect class="cls-25" x="-161.36" y="180.67" width="360" height=".9"/>
          <rect class="cls-25" x="-161.36" y="177.14" width="360" height=".9"/>
        </g>
        <g class="cls-2">
          <rect class="cls-25" x="-161.36" y="208.86" width="360" height=".9"/>
          <rect class="cls-25" x="-161.36" y="205.33" width="360" height=".9"/>
          <rect class="cls-25" x="-161.36" y="201.81" width="360" height=".9"/>
          <rect class="cls-25" x="-161.36" y="198.29" width="360" height=".9"/>
          <rect class="cls-25" x="-161.36" y="194.76" width="360" height=".9"/>
        </g>
        <g class="cls-1">
          <rect class="cls-25" x="-161.36" y="226.47" width="360" height=".9"/>
          <rect class="cls-25" x="-161.36" y="222.95" width="360" height=".9"/>
          <rect class="cls-25" x="-161.36" y="219.43" width="360" height=".9"/>
          <rect class="cls-25" x="-161.36" y="215.9" width="360" height=".9"/>
          <rect class="cls-25" x="-161.36" y="212.38" width="360" height=".9"/>
        </g>
        <g class="cls-66">
          <rect class="cls-25" x="-161.36" y="191.24" width="360" height=".9"/>
          <rect class="cls-25" x="-161.36" y="187.71" width="360" height=".9"/>
          <rect class="cls-25" x="-161.36" y="184.19" width="360" height=".9"/>
          <rect class="cls-25" x="-161.36" y="180.67" width="360" height=".9"/>
          <rect class="cls-25" x="-161.36" y="177.14" width="360" height=".9"/>
        </g>
        <g class="cls-23">
          <rect class="cls-25" x="-161.36" y="208.86" width="360" height=".9"/>
          <rect class="cls-25" x="-161.36" y="205.33" width="360" height=".9"/>
          <rect class="cls-25" x="-161.36" y="201.81" width="360" height=".9"/>
          <rect class="cls-25" x="-161.36" y="198.29" width="360" height=".9"/>
          <rect class="cls-25" x="-161.36" y="194.76" width="360" height=".9"/>
        </g>
      </g>
    </g>
  </g>
</svg>