<svg width="524" height="524" viewBox="0 0 524 524" fill="none" xmlns="http://www.w3.org/2000/svg">
<defs>
<style>
#gridPath {
    fill: #202020;
    fill-opacity: 0.1;
}
@media(prefers-color-scheme: dark) {
    #gridPath {
        fill: #627BFF;
    }
}
</style>
</defs>
<mask id="path-1-inside-1_218_405" fill="white">
<path d="M0 0H524V524H0V0Z"/>
</mask>
<path d="M0 524H-0.5V524.5H0V524ZM-0.5 0V26.2H0.5V0H-0.5ZM0 26.7H26.2V25.7H0V26.7ZM25.7 4.73197e-07L25.7 26.2L26.7 26.2L26.7 -4.73197e-07L25.7 4.73197e-07ZM26.2 26.7H52.4V25.7H26.2V26.7ZM51.8999 4.36797e-07L51.9 26.2L52.9 26.2L52.8999 -4.36797e-07L51.8999 4.36797e-07ZM52.4 26.7H78.5999V25.7H52.4V26.7ZM78.1001 -2.18399e-06L78.0999 26.2L79.0999 26.2L79.1001 2.18399e-06L78.1001 -2.18399e-06ZM78.5999 26.7H104.8V25.7H78.5999V26.7ZM104.3 5.82397e-07L104.3 26.2L105.3 26.2L105.3 -5.82397e-07L104.3 5.82397e-07ZM104.8 26.7H131V25.7H104.8V26.7ZM130.5 5.82397e-07L130.5 26.2L131.5 26.2L131.5 -5.82397e-07L130.5 5.82397e-07ZM131 26.7H157.2V25.7H131V26.7ZM156.7 5.82397e-07L156.7 26.2L157.7 26.2L157.7 -5.82397e-07L156.7 5.82397e-07ZM157.2 26.7H183.4V25.7H157.2V26.7ZM182.9 2.91198e-07L182.9 26.2L183.9 26.2L183.9 -2.91198e-07L182.9 2.91198e-07ZM183.4 26.7H209.6V25.7H183.4V26.7ZM209.1 -2.03839e-06L209.1 26.2L210.1 26.2L210.1 2.03839e-06L209.1 -2.03839e-06ZM209.6 26.7H235.8V25.7H209.6V26.7ZM235.3 2.91198e-07L235.3 26.2L236.3 26.2L236.3 -2.91198e-07L235.3 2.91198e-07ZM235.8 26.7H262V25.7H235.8V26.7ZM261.5 5.82397e-07L261.5 26.2L262.5 26.2L262.5 -5.82397e-07L261.5 5.82397e-07ZM262 26.7H288.2V25.7H262V26.7ZM287.7 5.82397e-07L287.7 26.2L288.7 26.2L288.7 -5.82397e-07L287.7 5.82397e-07ZM288.2 26.7H314.4V25.7H288.2V26.7ZM313.9 1.16479e-06L313.9 26.2L314.9 26.2L314.9 -1.16479e-06L313.9 1.16479e-06ZM314.4 26.7H340.6V25.7H314.4V26.7ZM340.1 -2.32959e-06L340.1 26.2L341.1 26.2L341.1 2.32959e-06L340.1 -2.32959e-06ZM340.6 26.7H366.8V25.7H340.6V26.7ZM366.3 1.16479e-06L366.3 26.2L367.3 26.2L367.3 -1.16479e-06L366.3 1.16479e-06ZM366.8 26.7H393V25.7H366.8V26.7ZM392.5 5.82397e-07L392.5 26.2L393.5 26.2L393.5 -5.82397e-07L392.5 5.82397e-07ZM393 26.7H419.2V25.7H393V26.7ZM418.7 5.82397e-07L418.7 26.2L419.7 26.2L419.7 -5.82397e-07L418.7 5.82397e-07ZM419.2 26.7H445.4V25.7H419.2V26.7ZM444.9 1.16479e-06L444.9 26.2L445.9 26.2L445.9 -1.16479e-06L444.9 1.16479e-06ZM445.4 26.7H471.6V25.7H445.4V26.7ZM471.1 -2.32959e-06L471.1 26.2L472.1 26.2L472.1 2.32959e-06L471.1 -2.32959e-06ZM471.6 26.7H497.8V25.7H471.6V26.7ZM497.3 1.16479e-06L497.3 26.2L498.3 26.2L498.3 -1.16479e-06L497.3 1.16479e-06ZM497.8 26.7H524V25.7H497.8V26.7ZM-0.5 26.2V52.4H0.5V26.2H-0.5ZM0 52.9H26.2V51.9H0V52.9ZM25.7 26.2V52.4H26.7V26.2H25.7ZM26.2 52.9H52.4V51.9H26.2V52.9ZM51.9 26.2V52.4H52.9V26.2H51.9ZM52.4 52.9H78.5999V51.9H52.4V52.9ZM78.0999 26.2V52.4H79.0999V26.2H78.0999ZM78.5999 52.9H104.8V51.9H78.5999V52.9ZM104.3 26.2V52.4H105.3V26.2H104.3ZM104.8 52.9H131V51.9H104.8V52.9ZM130.5 26.2V52.4H131.5V26.2H130.5ZM131 52.9H157.2V51.9H131V52.9ZM156.7 26.2V52.4H157.7V26.2H156.7ZM157.2 52.9H183.4V51.9H157.2V52.9ZM182.9 26.2V52.4H183.9V26.2H182.9ZM183.4 52.9H209.6V51.9H183.4V52.9ZM209.1 26.2V52.4H210.1V26.2H209.1ZM209.6 52.9H235.8V51.9H209.6V52.9ZM235.3 26.2V52.4H236.3V26.2H235.3ZM235.8 52.9H262V51.9H235.8V52.9ZM261.5 26.2V52.4H262.5V26.2H261.5ZM262 52.9H288.2V51.9H262V52.9ZM287.7 26.2V52.4H288.7V26.2H287.7ZM288.2 52.9H314.4V51.9H288.2V52.9ZM313.9 26.2V52.4H314.9V26.2H313.9ZM314.4 52.9H340.6V51.9H314.4V52.9ZM340.1 26.2V52.4H341.1V26.2H340.1ZM340.6 52.9H366.8V51.9H340.6V52.9ZM366.3 26.2V52.4H367.3V26.2H366.3ZM366.8 52.9H393V51.9H366.8V52.9ZM392.5 26.2V52.4H393.5V26.2H392.5ZM393 52.9H419.2V51.9H393V52.9ZM418.7 26.2V52.4H419.7V26.2H418.7ZM419.2 52.9H445.4V51.9H419.2V52.9ZM444.9 26.2V52.4H445.9V26.2H444.9ZM445.4 52.9H471.6V51.9H445.4V52.9ZM471.1 26.2V52.4H472.1V26.2H471.1ZM471.6 52.9H497.8V51.9H471.6V52.9ZM497.3 26.2V52.4H498.3V26.2H497.3ZM497.8 52.9H524V51.9H497.8V52.9ZM-0.5 52.4V78.5999H0.5V52.4H-0.5ZM0 79.0999H26.2V78.0999H0V79.0999ZM25.7 52.4V78.5999H26.7V52.4H25.7ZM26.2 79.0999H52.4V78.0999H26.2V79.0999ZM51.9 52.4V78.5999H52.9V52.4H51.9ZM52.4 79.0999H78.5999V78.0999H52.4V79.0999ZM78.0999 52.4V78.5999H79.0999V52.4H78.0999ZM78.5999 79.0999H104.8V78.0999H78.5999V79.0999ZM104.3 52.4V78.5999H105.3V52.4H104.3ZM104.8 79.0999H131V78.0999H104.8V79.0999ZM130.5 52.4V78.5999H131.5V52.4H130.5ZM131 79.0999H157.2V78.0999H131V79.0999ZM156.7 52.4V78.5999H157.7V52.4H156.7ZM157.2 79.0999H183.4V78.0999H157.2V79.0999ZM182.9 52.4V78.5999H183.9V52.4H182.9ZM183.4 79.0999H209.6V78.0999H183.4V79.0999ZM209.1 52.4V78.5999H210.1V52.4H209.1ZM209.6 79.0999H235.8V78.0999H209.6V79.0999ZM235.3 52.4V78.5999H236.3V52.4H235.3ZM235.8 79.0999H262V78.0999H235.8V79.0999ZM261.5 52.4V78.5999H262.5V52.4H261.5ZM262 79.0999H288.2V78.0999H262V79.0999ZM287.7 52.4V78.5999H288.7V52.4H287.7ZM288.2 79.0999H314.4V78.0999H288.2V79.0999ZM313.9 52.4V78.5999H314.9V52.4H313.9ZM314.4 79.0999H340.6V78.0999H314.4V79.0999ZM340.1 52.4V78.5999H341.1V52.4H340.1ZM340.6 79.0999H366.8V78.0999H340.6V79.0999ZM366.3 52.4V78.5999H367.3V52.4H366.3ZM366.8 79.0999H393V78.0999H366.8V79.0999ZM392.5 52.4V78.5999H393.5V52.4H392.5ZM393 79.0999H419.2V78.0999H393V79.0999ZM418.7 52.4V78.5999H419.7V52.4H418.7ZM419.2 79.0999H445.4V78.0999H419.2V79.0999ZM444.9 52.4V78.5999H445.9V52.4H444.9ZM445.4 79.0999H471.6V78.0999H445.4V79.0999ZM471.1 52.4V78.5999H472.1V52.4H471.1ZM471.6 79.0999H497.8V78.0999H471.6V79.0999ZM497.3 52.4V78.5999H498.3V52.4H497.3ZM497.8 79.0999H524V78.0999H497.8V79.0999ZM-0.5 78.5999V104.8H0.5V78.5999H-0.5ZM0 105.3H26.2V104.3H0V105.3ZM25.7 78.5999V104.8H26.7V78.5999H25.7ZM26.2 105.3H52.4V104.3H26.2V105.3ZM51.9 78.5999V104.8H52.9V78.5999H51.9ZM52.4 105.3H78.5999V104.3H52.4V105.3ZM78.0999 78.5999V104.8H79.0999V78.5999H78.0999ZM78.5999 105.3H104.8V104.3H78.5999V105.3ZM104.3 78.5999V104.8H105.3V78.5999H104.3ZM104.8 105.3H131V104.3H104.8V105.3ZM130.5 78.5999V104.8H131.5V78.5999H130.5ZM131 105.3H157.2V104.3H131V105.3ZM156.7 78.5999V104.8H157.7V78.5999H156.7ZM157.2 105.3H183.4V104.3H157.2V105.3ZM182.9 78.5999V104.8H183.9V78.5999H182.9ZM183.4 105.3H209.6V104.3H183.4V105.3ZM209.1 78.5999V104.8H210.1V78.5999H209.1ZM209.6 105.3H235.8V104.3H209.6V105.3ZM235.3 78.5999V104.8H236.3V78.5999H235.3ZM235.8 105.3H262V104.3H235.8V105.3ZM261.5 78.5999V104.8H262.5V78.5999H261.5ZM262 105.3H288.2V104.3H262V105.3ZM287.7 78.5999V104.8H288.7V78.5999H287.7ZM288.2 105.3H314.4V104.3H288.2V105.3ZM313.9 78.5999V104.8H314.9V78.5999H313.9ZM314.4 105.3H340.6V104.3H314.4V105.3ZM340.1 78.5999V104.8H341.1V78.5999H340.1ZM340.6 105.3H366.8V104.3H340.6V105.3ZM366.3 78.5999V104.8H367.3V78.5999H366.3ZM366.8 105.3H393V104.3H366.8V105.3ZM392.5 78.5999V104.8H393.5V78.5999H392.5ZM393 105.3H419.2V104.3H393V105.3ZM418.7 78.5999V104.8H419.7V78.5999H418.7ZM419.2 105.3H445.4V104.3H419.2V105.3ZM444.9 78.5999V104.8H445.9V78.5999H444.9ZM445.4 105.3H471.6V104.3H445.4V105.3ZM471.1 78.5999V104.8H472.1V78.5999H471.1ZM471.6 105.3H497.8V104.3H471.6V105.3ZM497.3 78.5999V104.8H498.3V78.5999H497.3ZM497.8 105.3H524V104.3H497.8V105.3ZM-0.5 104.8V131H0.5V104.8H-0.5ZM0 131.5H26.2V130.5H0V131.5ZM25.7 104.8V131H26.7V104.8H25.7ZM26.2 131.5H52.4V130.5H26.2V131.5ZM51.9 104.8V131H52.9V104.8H51.9ZM52.4 131.5H78.5999V130.5H52.4V131.5ZM78.0999 104.8V131H79.0999V104.8H78.0999ZM78.5999 131.5H104.8V130.5H78.5999V131.5ZM104.3 104.8V131H105.3V104.8H104.3ZM104.8 131.5H131V130.5H104.8V131.5ZM130.5 104.8V131H131.5V104.8H130.5ZM131 131.5H157.2V130.5H131V131.5ZM156.7 104.8V131H157.7V104.8H156.7ZM157.2 131.5H183.4V130.5H157.2V131.5ZM182.9 104.8V131H183.9V104.8H182.9ZM183.4 131.5H209.6V130.5H183.4V131.5ZM209.1 104.8V131H210.1V104.8H209.1ZM209.6 131.5H235.8V130.5H209.6V131.5ZM235.3 104.8V131H236.3V104.8H235.3ZM235.8 131.5H262V130.5H235.8V131.5ZM261.5 104.8V131H262.5V104.8H261.5ZM262 131.5H288.2V130.5H262V131.5ZM287.7 104.8V131H288.7V104.8H287.7ZM288.2 131.5H314.4V130.5H288.2V131.5ZM313.9 104.8V131H314.9V104.8H313.9ZM314.4 131.5H340.6V130.5H314.4V131.5ZM340.1 104.8V131H341.1V104.8H340.1ZM340.6 131.5H366.8V130.5H340.6V131.5ZM366.3 104.8V131H367.3V104.8H366.3ZM366.8 131.5H393V130.5H366.8V131.5ZM392.5 104.8V131H393.5V104.8H392.5ZM393 131.5H419.2V130.5H393V131.5ZM418.7 104.8V131H419.7V104.8H418.7ZM419.2 131.5H445.4V130.5H419.2V131.5ZM444.9 104.8V131H445.9V104.8H444.9ZM445.4 131.5H471.6V130.5H445.4V131.5ZM471.1 104.8V131H472.1V104.8H471.1ZM471.6 131.5H497.8V130.5H471.6V131.5ZM497.3 104.8V131H498.3V104.8H497.3ZM497.8 131.5H524V130.5H497.8V131.5ZM-0.5 131V157.2H0.5V131H-0.5ZM0 157.7H26.2V156.7H0V157.7ZM25.7 131V157.2H26.7V131H25.7ZM26.2 157.7H52.4V156.7H26.2V157.7ZM51.9 131V157.2H52.9V131H51.9ZM52.4 157.7H78.5999V156.7H52.4V157.7ZM78.0999 131V157.2H79.0999V131H78.0999ZM78.5999 157.7H104.8V156.7H78.5999V157.7ZM104.3 131V157.2H105.3V131H104.3ZM104.8 157.7H131V156.7H104.8V157.7ZM130.5 131V157.2H131.5V131H130.5ZM131 157.7H157.2V156.7H131V157.7ZM156.7 131V157.2H157.7V131H156.7ZM157.2 157.7H183.4V156.7H157.2V157.7ZM182.9 131V157.2H183.9V131H182.9ZM183.4 157.7H209.6V156.7H183.4V157.7ZM209.1 131V157.2H210.1V131H209.1ZM209.6 157.7H235.8V156.7H209.6V157.7ZM235.3 131V157.2H236.3V131H235.3ZM235.8 157.7H262V156.7H235.8V157.7ZM261.5 131V157.2H262.5V131H261.5ZM262 157.7H288.2V156.7H262V157.7ZM287.7 131V157.2H288.7V131H287.7ZM288.2 157.7H314.4V156.7H288.2V157.7ZM313.9 131V157.2H314.9V131H313.9ZM314.4 157.7H340.6V156.7H314.4V157.7ZM340.1 131V157.2H341.1V131H340.1ZM340.6 157.7H366.8V156.7H340.6V157.7ZM366.3 131V157.2H367.3V131H366.3ZM366.8 157.7H393V156.7H366.8V157.7ZM392.5 131V157.2H393.5V131H392.5ZM393 157.7H419.2V156.7H393V157.7ZM418.7 131V157.2H419.7V131H418.7ZM419.2 157.7H445.4V156.7H419.2V157.7ZM444.9 131V157.2H445.9V131H444.9ZM445.4 157.7H471.6V156.7H445.4V157.7ZM471.1 131V157.2H472.1V131H471.1ZM471.6 157.7H497.8V156.7H471.6V157.7ZM497.3 131V157.2H498.3V131H497.3ZM497.8 157.7H524V156.7H497.8V157.7ZM-0.5 157.2V183.4H0.5V157.2H-0.5ZM0 183.9H26.2V182.9H0V183.9ZM25.7 157.2V183.4H26.7V157.2H25.7ZM26.2 183.9H52.4V182.9H26.2V183.9ZM51.9 157.2V183.4H52.9V157.2H51.9ZM52.4 183.9H78.5999V182.9H52.4V183.9ZM78.0999 157.2V183.4H79.0999V157.2H78.0999ZM78.5999 183.9H104.8V182.9H78.5999V183.9ZM104.3 157.2V183.4H105.3V157.2H104.3ZM104.8 183.9H131V182.9H104.8V183.9ZM130.5 157.2V183.4H131.5V157.2H130.5ZM131 183.9H157.2V182.9H131V183.9ZM156.7 157.2V183.4H157.7V157.2H156.7ZM157.2 183.9H183.4V182.9H157.2V183.9ZM182.9 157.2V183.4H183.9V157.2H182.9ZM183.4 183.9H209.6V182.9H183.4V183.9ZM209.1 157.2V183.4H210.1V157.2H209.1ZM209.6 183.9H235.8V182.9H209.6V183.9ZM235.3 157.2V183.4H236.3V157.2H235.3ZM235.8 183.9H262V182.9H235.8V183.9ZM261.5 157.2V183.4H262.5V157.2H261.5ZM262 183.9H288.2V182.9H262V183.9ZM287.7 157.2V183.4H288.7V157.2H287.7ZM288.2 183.9H314.4V182.9H288.2V183.9ZM313.9 157.2V183.4H314.9V157.2H313.9ZM314.4 183.9H340.6V182.9H314.4V183.9ZM340.1 157.2V183.4H341.1V157.2H340.1ZM340.6 183.9H366.8V182.9H340.6V183.9ZM366.3 157.2V183.4H367.3V157.2H366.3ZM366.8 183.9H393V182.9H366.8V183.9ZM392.5 157.2V183.4H393.5V157.2H392.5ZM393 183.9H419.2V182.9H393V183.9ZM418.7 157.2V183.4H419.7V157.2H418.7ZM419.2 183.9H445.4V182.9H419.2V183.9ZM444.9 157.2V183.4H445.9V157.2H444.9ZM445.4 183.9H471.6V182.9H445.4V183.9ZM471.1 157.2V183.4H472.1V157.2H471.1ZM471.6 183.9H497.8V182.9H471.6V183.9ZM497.3 157.2V183.4H498.3V157.2H497.3ZM497.8 183.9H524V182.9H497.8V183.9ZM-0.5 183.4V209.6H0.5V183.4H-0.5ZM0 210.1H26.2V209.1H0V210.1ZM25.7 183.4V209.6H26.7V183.4H25.7ZM26.2 210.1H52.4V209.1H26.2V210.1ZM51.9 183.4V209.6H52.9V183.4H51.9ZM52.4 210.1H78.5999V209.1H52.4V210.1ZM78.0999 183.4V209.6H79.0999V183.4H78.0999ZM78.5999 210.1H104.8V209.1H78.5999V210.1ZM104.3 183.4V209.6H105.3V183.4H104.3ZM104.8 210.1H131V209.1H104.8V210.1ZM130.5 183.4V209.6H131.5V183.4H130.5ZM131 210.1H157.2V209.1H131V210.1ZM156.7 183.4V209.6H157.7V183.4H156.7ZM157.2 210.1H183.4V209.1H157.2V210.1ZM182.9 183.4V209.6H183.9V183.4H182.9ZM183.4 210.1H209.6V209.1H183.4V210.1ZM209.1 183.4V209.6H210.1V183.4H209.1ZM209.6 210.1H235.8V209.1H209.6V210.1ZM235.3 183.4V209.6H236.3V183.4H235.3ZM235.8 210.1H262V209.1H235.8V210.1ZM261.5 183.4V209.6H262.5V183.4H261.5ZM262 210.1H288.2V209.1H262V210.1ZM287.7 183.4V209.6H288.7V183.4H287.7ZM288.2 210.1H314.4V209.1H288.2V210.1ZM313.9 183.4V209.6H314.9V183.4H313.9ZM314.4 210.1H340.6V209.1H314.4V210.1ZM340.1 183.4V209.6H341.1V183.4H340.1ZM340.6 210.1H366.8V209.1H340.6V210.1ZM366.3 183.4V209.6H367.3V183.4H366.3ZM366.8 210.1H393V209.1H366.8V210.1ZM392.5 183.4V209.6H393.5V183.4H392.5ZM393 210.1H419.2V209.1H393V210.1ZM418.7 183.4V209.6H419.7V183.4H418.7ZM419.2 210.1H445.4V209.1H419.2V210.1ZM444.9 183.4V209.6H445.9V183.4H444.9ZM445.4 210.1H471.6V209.1H445.4V210.1ZM471.1 183.4V209.6H472.1V183.4H471.1ZM471.6 210.1H497.8V209.1H471.6V210.1ZM497.3 183.4V209.6H498.3V183.4H497.3ZM497.8 210.1H524V209.1H497.8V210.1ZM-0.5 209.6V235.8H0.5V209.6H-0.5ZM0 236.3H26.2V235.3H0V236.3ZM25.7 209.6V235.8H26.7V209.6H25.7ZM26.2 236.3H52.4V235.3H26.2V236.3ZM51.9 209.6V235.8H52.9V209.6H51.9ZM52.4 236.3H78.5999V235.3H52.4V236.3ZM78.0999 209.6V235.8H79.0999V209.6H78.0999ZM78.5999 236.3H104.8V235.3H78.5999V236.3ZM104.3 209.6V235.8H105.3V209.6H104.3ZM104.8 236.3H131V235.3H104.8V236.3ZM130.5 209.6V235.8H131.5V209.6H130.5ZM131 236.3H157.2V235.3H131V236.3ZM156.7 209.6V235.8H157.7V209.6H156.7ZM157.2 236.3H183.4V235.3H157.2V236.3ZM182.9 209.6V235.8H183.9V209.6H182.9ZM183.4 236.3H209.6V235.3H183.4V236.3ZM209.1 209.6V235.8H210.1V209.6H209.1ZM209.6 236.3H235.8V235.3H209.6V236.3ZM235.3 209.6V235.8H236.3V209.6H235.3ZM235.8 236.3H262V235.3H235.8V236.3ZM261.5 209.6V235.8H262.5V209.6H261.5ZM262 236.3H288.2V235.3H262V236.3ZM287.7 209.6V235.8H288.7V209.6H287.7ZM288.2 236.3H314.4V235.3H288.2V236.3ZM313.9 209.6V235.8H314.9V209.6H313.9ZM314.4 236.3H340.6V235.3H314.4V236.3ZM340.1 209.6V235.8H341.1V209.6H340.1ZM340.6 236.3H366.8V235.3H340.6V236.3ZM366.3 209.6V235.8H367.3V209.6H366.3ZM366.8 236.3H393V235.3H366.8V236.3ZM392.5 209.6V235.8H393.5V209.6H392.5ZM393 236.3H419.2V235.3H393V236.3ZM418.7 209.6V235.8H419.7V209.6H418.7ZM419.2 236.3H445.4V235.3H419.2V236.3ZM444.9 209.6V235.8H445.9V209.6H444.9ZM445.4 236.3H471.6V235.3H445.4V236.3ZM471.1 209.6V235.8H472.1V209.6H471.1ZM471.6 236.3H497.8V235.3H471.6V236.3ZM497.3 209.6V235.8H498.3V209.6H497.3ZM497.8 236.3H524V235.3H497.8V236.3ZM-0.5 235.8V262H0.5V235.8H-0.5ZM0 262.5H26.2V261.5H0V262.5ZM25.7 235.8V262H26.7V235.8H25.7ZM26.2 262.5H52.4V261.5H26.2V262.5ZM51.9 235.8V262H52.9V235.8H51.9ZM52.4 262.5H78.5999V261.5H52.4V262.5ZM78.0999 235.8V262H79.0999V235.8H78.0999ZM78.5999 262.5H104.8V261.5H78.5999V262.5ZM104.3 235.8V262H105.3V235.8H104.3ZM104.8 262.5H131V261.5H104.8V262.5ZM130.5 235.8V262H131.5V235.8H130.5ZM131 262.5H157.2V261.5H131V262.5ZM156.7 235.8V262H157.7V235.8H156.7ZM157.2 262.5H183.4V261.5H157.2V262.5ZM182.9 235.8V262H183.9V235.8H182.9ZM183.4 262.5H209.6V261.5H183.4V262.5ZM209.1 235.8V262H210.1V235.8H209.1ZM209.6 262.5H235.8V261.5H209.6V262.5ZM235.3 235.8V262H236.3V235.8H235.3ZM235.8 262.5H262V261.5H235.8V262.5ZM261.5 235.8V262H262.5V235.8H261.5ZM262 262.5H288.2V261.5H262V262.5ZM287.7 235.8V262H288.7V235.8H287.7ZM288.2 262.5H314.4V261.5H288.2V262.5ZM313.9 235.8V262H314.9V235.8H313.9ZM314.4 262.5H340.6V261.5H314.4V262.5ZM340.1 235.8V262H341.1V235.8H340.1ZM340.6 262.5H366.8V261.5H340.6V262.5ZM366.3 235.8V262H367.3V235.8H366.3ZM366.8 262.5H393V261.5H366.8V262.5ZM392.5 235.8V262H393.5V235.8H392.5ZM393 262.5H419.2V261.5H393V262.5ZM418.7 235.8V262H419.7V235.8H418.7ZM419.2 262.5H445.4V261.5H419.2V262.5ZM444.9 235.8V262H445.9V235.8H444.9ZM445.4 262.5H471.6V261.5H445.4V262.5ZM471.1 235.8V262H472.1V235.8H471.1ZM471.6 262.5H497.8V261.5H471.6V262.5ZM497.3 235.8V262H498.3V235.8H497.3ZM497.8 262.5H524V261.5H497.8V262.5ZM-0.5 262V288.2H0.5V262H-0.5ZM0 288.7H26.2V287.7H0V288.7ZM25.7 262V288.2H26.7V262H25.7ZM26.2 288.7H52.4V287.7H26.2V288.7ZM51.9 262V288.2H52.9V262H51.9ZM52.4 288.7H78.5999V287.7H52.4V288.7ZM78.0999 262V288.2H79.0999V262H78.0999ZM78.5999 288.7H104.8V287.7H78.5999V288.7ZM104.3 262V288.2H105.3V262H104.3ZM104.8 288.7H131V287.7H104.8V288.7ZM130.5 262V288.2H131.5V262H130.5ZM131 288.7H157.2V287.7H131V288.7ZM156.7 262V288.2H157.7V262H156.7ZM157.2 288.7H183.4V287.7H157.2V288.7ZM182.9 262V288.2H183.9V262H182.9ZM183.4 288.7H209.6V287.7H183.4V288.7ZM209.1 262V288.2H210.1V262H209.1ZM209.6 288.7H235.8V287.7H209.6V288.7ZM235.3 262V288.2H236.3V262H235.3ZM235.8 288.7H262V287.7H235.8V288.7ZM261.5 262V288.2H262.5V262H261.5ZM262 288.7H288.2V287.7H262V288.7ZM287.7 262V288.2H288.7V262H287.7ZM288.2 288.7H314.4V287.7H288.2V288.7ZM313.9 262V288.2H314.9V262H313.9ZM314.4 288.7H340.6V287.7H314.4V288.7ZM340.1 262V288.2H341.1V262H340.1ZM340.6 288.7H366.8V287.7H340.6V288.7ZM366.3 262V288.2H367.3V262H366.3ZM366.8 288.7H393V287.7H366.8V288.7ZM392.5 262V288.2H393.5V262H392.5ZM393 288.7H419.2V287.7H393V288.7ZM418.7 262V288.2H419.7V262H418.7ZM419.2 288.7H445.4V287.7H419.2V288.7ZM444.9 262V288.2H445.9V262H444.9ZM445.4 288.7H471.6V287.7H445.4V288.7ZM471.1 262V288.2H472.1V262H471.1ZM471.6 288.7H497.8V287.7H471.6V288.7ZM497.3 262V288.2H498.3V262H497.3ZM497.8 288.7H524V287.7H497.8V288.7ZM-0.5 288.2V314.4H0.5V288.2H-0.5ZM0 314.9H26.2V313.9H0V314.9ZM25.7 288.2V314.4H26.7V288.2H25.7ZM26.2 314.9H52.4V313.9H26.2V314.9ZM51.9 288.2V314.4H52.9V288.2H51.9ZM52.4 314.9H78.5999V313.9H52.4V314.9ZM78.0999 288.2V314.4H79.0999V288.2H78.0999ZM78.5999 314.9H104.8V313.9H78.5999V314.9ZM104.3 288.2V314.4H105.3V288.2H104.3ZM104.8 314.9H131V313.9H104.8V314.9ZM130.5 288.2V314.4H131.5V288.2H130.5ZM131 314.9H157.2V313.9H131V314.9ZM156.7 288.2V314.4H157.7V288.2H156.7ZM157.2 314.9H183.4V313.9H157.2V314.9ZM182.9 288.2V314.4H183.9V288.2H182.9ZM183.4 314.9H209.6V313.9H183.4V314.9ZM209.1 288.2V314.4H210.1V288.2H209.1ZM209.6 314.9H235.8V313.9H209.6V314.9ZM235.3 288.2V314.4H236.3V288.2H235.3ZM235.8 314.9H262V313.9H235.8V314.9ZM261.5 288.2V314.4H262.5V288.2H261.5ZM262 314.9H288.2V313.9H262V314.9ZM287.7 288.2V314.4H288.7V288.2H287.7ZM288.2 314.9H314.4V313.9H288.2V314.9ZM313.9 288.2V314.4H314.9V288.2H313.9ZM314.4 314.9H340.6V313.9H314.4V314.9ZM340.1 288.2V314.4H341.1V288.2H340.1ZM340.6 314.9H366.8V313.9H340.6V314.9ZM366.3 288.2V314.4H367.3V288.2H366.3ZM366.8 314.9H393V313.9H366.8V314.9ZM392.5 288.2V314.4H393.5V288.2H392.5ZM393 314.9H419.2V313.9H393V314.9ZM418.7 288.2V314.4H419.7V288.2H418.7ZM419.2 314.9H445.4V313.9H419.2V314.9ZM444.9 288.2V314.4H445.9V288.2H444.9ZM445.4 314.9H471.6V313.9H445.4V314.9ZM471.1 288.2V314.4H472.1V288.2H471.1ZM471.6 314.9H497.8V313.9H471.6V314.9ZM497.3 288.2V314.4H498.3V288.2H497.3ZM497.8 314.9H524V313.9H497.8V314.9ZM-0.5 314.4V340.6H0.5V314.4H-0.5ZM0 341.1H26.2V340.1H0V341.1ZM25.7 314.4V340.6H26.7V314.4H25.7ZM26.2 341.1H52.4V340.1H26.2V341.1ZM51.9 314.4V340.6H52.9V314.4H51.9ZM52.4 341.1H78.5999V340.1H52.4V341.1ZM78.0999 314.4V340.6H79.0999V314.4H78.0999ZM78.5999 341.1H104.8V340.1H78.5999V341.1ZM104.3 314.4V340.6H105.3V314.4H104.3ZM104.8 341.1H131V340.1H104.8V341.1ZM130.5 314.4V340.6H131.5V314.4H130.5ZM131 341.1H157.2V340.1H131V341.1ZM156.7 314.4V340.6H157.7V314.4H156.7ZM157.2 341.1H183.4V340.1H157.2V341.1ZM182.9 314.4V340.6H183.9V314.4H182.9ZM183.4 341.1H209.6V340.1H183.4V341.1ZM209.1 314.4V340.6H210.1V314.4H209.1ZM209.6 341.1H235.8V340.1H209.6V341.1ZM235.3 314.4V340.6H236.3V314.4H235.3ZM235.8 341.1H262V340.1H235.8V341.1ZM261.5 314.4V340.6H262.5V314.4H261.5ZM262 341.1H288.2V340.1H262V341.1ZM287.7 314.4V340.6H288.7V314.4H287.7ZM288.2 341.1H314.4V340.1H288.2V341.1ZM313.9 314.4V340.6H314.9V314.4H313.9ZM314.4 341.1H340.6V340.1H314.4V341.1ZM340.1 314.4V340.6H341.1V314.4H340.1ZM340.6 341.1H366.8V340.1H340.6V341.1ZM366.3 314.4V340.6H367.3V314.4H366.3ZM366.8 341.1H393V340.1H366.8V341.1ZM392.5 314.4V340.6H393.5V314.4H392.5ZM393 341.1H419.2V340.1H393V341.1ZM418.7 314.4V340.6H419.7V314.4H418.7ZM419.2 341.1H445.4V340.1H419.2V341.1ZM444.9 314.4V340.6H445.9V314.4H444.9ZM445.4 341.1H471.6V340.1H445.4V341.1ZM471.1 314.4V340.6H472.1V314.4H471.1ZM471.6 341.1H497.8V340.1H471.6V341.1ZM497.3 314.4V340.6H498.3V314.4H497.3ZM497.8 341.1H524V340.1H497.8V341.1ZM-0.5 340.6V366.8H0.5V340.6H-0.5ZM0 367.3H26.2V366.3H0V367.3ZM25.7 340.6V366.8H26.7V340.6H25.7ZM26.2 367.3H52.4V366.3H26.2V367.3ZM51.9 340.6V366.8H52.9V340.6H51.9ZM52.4 367.3H78.5999V366.3H52.4V367.3ZM78.0999 340.6V366.8H79.0999V340.6H78.0999ZM78.5999 367.3H104.8V366.3H78.5999V367.3ZM104.3 340.6V366.8H105.3V340.6H104.3ZM104.8 367.3H131V366.3H104.8V367.3ZM130.5 340.6V366.8H131.5V340.6H130.5ZM131 367.3H157.2V366.3H131V367.3ZM156.7 340.6V366.8H157.7V340.6H156.7ZM157.2 367.3H183.4V366.3H157.2V367.3ZM182.9 340.6V366.8H183.9V340.6H182.9ZM183.4 367.3H209.6V366.3H183.4V367.3ZM209.1 340.6V366.8H210.1V340.6H209.1ZM209.6 367.3H235.8V366.3H209.6V367.3ZM235.3 340.6V366.8H236.3V340.6H235.3ZM235.8 367.3H262V366.3H235.8V367.3ZM261.5 340.6V366.8H262.5V340.6H261.5ZM262 367.3H288.2V366.3H262V367.3ZM287.7 340.6V366.8H288.7V340.6H287.7ZM288.2 367.3H314.4V366.3H288.2V367.3ZM313.9 340.6V366.8H314.9V340.6H313.9ZM314.4 367.3H340.6V366.3H314.4V367.3ZM340.1 340.6V366.8H341.1V340.6H340.1ZM340.6 367.3H366.8V366.3H340.6V367.3ZM366.3 340.6V366.8H367.3V340.6H366.3ZM366.8 367.3H393V366.3H366.8V367.3ZM392.5 340.6V366.8H393.5V340.6H392.5ZM393 367.3H419.2V366.3H393V367.3ZM418.7 340.6V366.8H419.7V340.6H418.7ZM419.2 367.3H445.4V366.3H419.2V367.3ZM444.9 340.6V366.8H445.9V340.6H444.9ZM445.4 367.3H471.6V366.3H445.4V367.3ZM471.1 340.6V366.8H472.1V340.6H471.1ZM471.6 367.3H497.8V366.3H471.6V367.3ZM497.3 340.6V366.8H498.3V340.6H497.3ZM497.8 367.3H524V366.3H497.8V367.3ZM-0.5 366.8V393H0.5V366.8H-0.5ZM0 393.5H26.2V392.5H0V393.5ZM25.7 366.8V393H26.7V366.8H25.7ZM26.2 393.5H52.4V392.5H26.2V393.5ZM51.9 366.8V393H52.9V366.8H51.9ZM52.4 393.5H78.5999V392.5H52.4V393.5ZM78.0999 366.8V393H79.0999V366.8H78.0999ZM78.5999 393.5H104.8V392.5H78.5999V393.5ZM104.3 366.8V393H105.3V366.8H104.3ZM104.8 393.5H131V392.5H104.8V393.5ZM130.5 366.8V393H131.5V366.8H130.5ZM131 393.5H157.2V392.5H131V393.5ZM156.7 366.8V393H157.7V366.8H156.7ZM157.2 393.5H183.4V392.5H157.2V393.5ZM182.9 366.8V393H183.9V366.8H182.9ZM183.4 393.5H209.6V392.5H183.4V393.5ZM209.1 366.8V393H210.1V366.8H209.1ZM209.6 393.5H235.8V392.5H209.6V393.5ZM235.3 366.8V393H236.3V366.8H235.3ZM235.8 393.5H262V392.5H235.8V393.5ZM261.5 366.8V393H262.5V366.8H261.5ZM262 393.5H288.2V392.5H262V393.5ZM287.7 366.8V393H288.7V366.8H287.7ZM288.2 393.5H314.4V392.5H288.2V393.5ZM313.9 366.8V393H314.9V366.8H313.9ZM314.4 393.5H340.6V392.5H314.4V393.5ZM340.1 366.8V393H341.1V366.8H340.1ZM340.6 393.5H366.8V392.5H340.6V393.5ZM366.3 366.8V393H367.3V366.8H366.3ZM366.8 393.5H393V392.5H366.8V393.5ZM392.5 366.8V393H393.5V366.8H392.5ZM393 393.5H419.2V392.5H393V393.5ZM418.7 366.8V393H419.7V366.8H418.7ZM419.2 393.5H445.4V392.5H419.2V393.5ZM444.9 366.8V393H445.9V366.8H444.9ZM445.4 393.5H471.6V392.5H445.4V393.5ZM471.1 366.8V393H472.1V366.8H471.1ZM471.6 393.5H497.8V392.5H471.6V393.5ZM497.3 366.8V393H498.3V366.8H497.3ZM497.8 393.5H524V392.5H497.8V393.5ZM-0.5 393V419.2H0.5V393H-0.5ZM0 419.7H26.2V418.7H0V419.7ZM25.7 393V419.2H26.7V393H25.7ZM26.2 419.7H52.4V418.7H26.2V419.7ZM51.9 393V419.2H52.9V393H51.9ZM52.4 419.7H78.5999V418.7H52.4V419.7ZM78.0999 393V419.2H79.0999V393H78.0999ZM78.5999 419.7H104.8V418.7H78.5999V419.7ZM104.3 393V419.2H105.3V393H104.3ZM104.8 419.7H131V418.7H104.8V419.7ZM130.5 393V419.2H131.5V393H130.5ZM131 419.7H157.2V418.7H131V419.7ZM156.7 393V419.2H157.7V393H156.7ZM157.2 419.7H183.4V418.7H157.2V419.7ZM182.9 393V419.2H183.9V393H182.9ZM183.4 419.7H209.6V418.7H183.4V419.7ZM209.1 393V419.2H210.1V393H209.1ZM209.6 419.7H235.8V418.7H209.6V419.7ZM235.3 393V419.2H236.3V393H235.3ZM235.8 419.7H262V418.7H235.8V419.7ZM261.5 393V419.2H262.5V393H261.5ZM262 419.7H288.2V418.7H262V419.7ZM287.7 393V419.2H288.7V393H287.7ZM288.2 419.7H314.4V418.7H288.2V419.7ZM313.9 393V419.2H314.9V393H313.9ZM314.4 419.7H340.6V418.7H314.4V419.7ZM340.1 393V419.2H341.1V393H340.1ZM340.6 419.7H366.8V418.7H340.6V419.7ZM366.3 393V419.2H367.3V393H366.3ZM366.8 419.7H393V418.7H366.8V419.7ZM392.5 393V419.2H393.5V393H392.5ZM393 419.7H419.2V418.7H393V419.7ZM418.7 393V419.2H419.7V393H418.7ZM419.2 419.7H445.4V418.7H419.2V419.7ZM444.9 393V419.2H445.9V393H444.9ZM445.4 419.7H471.6V418.7H445.4V419.7ZM471.1 393V419.2H472.1V393H471.1ZM471.6 419.7H497.8V418.7H471.6V419.7ZM497.3 393V419.2H498.3V393H497.3ZM497.8 419.7H524V418.7H497.8V419.7ZM-0.5 419.2V445.4H0.5V419.2H-0.5ZM0 445.9H26.2V444.9H0V445.9ZM25.7 419.2V445.4H26.7V419.2H25.7ZM26.2 445.9H52.4V444.9H26.2V445.9ZM51.9 419.2V445.4H52.9V419.2H51.9ZM52.4 445.9H78.5999V444.9H52.4V445.9ZM78.0999 419.2V445.4H79.0999V419.2H78.0999ZM78.5999 445.9H104.8V444.9H78.5999V445.9ZM104.3 419.2V445.4H105.3V419.2H104.3ZM104.8 445.9H131V444.9H104.8V445.9ZM130.5 419.2V445.4H131.5V419.2H130.5ZM131 445.9H157.2V444.9H131V445.9ZM156.7 419.2V445.4H157.7V419.2H156.7ZM157.2 445.9H183.4V444.9H157.2V445.9ZM182.9 419.2V445.4H183.9V419.2H182.9ZM183.4 445.9H209.6V444.9H183.4V445.9ZM209.1 419.2V445.4H210.1V419.2H209.1ZM209.6 445.9H235.8V444.9H209.6V445.9ZM235.3 419.2V445.4H236.3V419.2H235.3ZM235.8 445.9H262V444.9H235.8V445.9ZM261.5 419.2V445.4H262.5V419.2H261.5ZM262 445.9H288.2V444.9H262V445.9ZM287.7 419.2V445.4H288.7V419.2H287.7ZM288.2 445.9H314.4V444.9H288.2V445.9ZM313.9 419.2V445.4H314.9V419.2H313.9ZM314.4 445.9H340.6V444.9H314.4V445.9ZM340.1 419.2V445.4H341.1V419.2H340.1ZM340.6 445.9H366.8V444.9H340.6V445.9ZM366.3 419.2V445.4H367.3V419.2H366.3ZM366.8 445.9H393V444.9H366.8V445.9ZM392.5 419.2V445.4H393.5V419.2H392.5ZM393 445.9H419.2V444.9H393V445.9ZM418.7 419.2V445.4H419.7V419.2H418.7ZM419.2 445.9H445.4V444.9H419.2V445.9ZM444.9 419.2V445.4H445.9V419.2H444.9ZM445.4 445.9H471.6V444.9H445.4V445.9ZM471.1 419.2V445.4H472.1V419.2H471.1ZM471.6 445.9H497.8V444.9H471.6V445.9ZM497.3 419.2V445.4H498.3V419.2H497.3ZM497.8 445.9H524V444.9H497.8V445.9ZM-0.5 445.4V471.6H0.5V445.4H-0.5ZM0 472.1H26.2V471.1H0V472.1ZM25.7 445.4V471.6H26.7V445.4H25.7ZM26.2 472.1H52.4V471.1H26.2V472.1ZM51.9 445.4V471.6H52.9V445.4H51.9ZM52.4 472.1H78.5999V471.1H52.4V472.1ZM78.0999 445.4V471.6H79.0999V445.4H78.0999ZM78.5999 472.1H104.8V471.1H78.5999V472.1ZM104.3 445.4V471.6H105.3V445.4H104.3ZM104.8 472.1H131V471.1H104.8V472.1ZM130.5 445.4V471.6H131.5V445.4H130.5ZM131 472.1H157.2V471.1H131V472.1ZM156.7 445.4V471.6H157.7V445.4H156.7ZM157.2 472.1H183.4V471.1H157.2V472.1ZM182.9 445.4V471.6H183.9V445.4H182.9ZM183.4 472.1H209.6V471.1H183.4V472.1ZM209.1 445.4V471.6H210.1V445.4H209.1ZM209.6 472.1H235.8V471.1H209.6V472.1ZM235.3 445.4V471.6H236.3V445.4H235.3ZM235.8 472.1H262V471.1H235.8V472.1ZM261.5 445.4V471.6H262.5V445.4H261.5ZM262 472.1H288.2V471.1H262V472.1ZM287.7 445.4V471.6H288.7V445.4H287.7ZM288.2 472.1H314.4V471.1H288.2V472.1ZM313.9 445.4V471.6H314.9V445.4H313.9ZM314.4 472.1H340.6V471.1H314.4V472.1ZM340.1 445.4V471.6H341.1V445.4H340.1ZM340.6 472.1H366.8V471.1H340.6V472.1ZM366.3 445.4V471.6H367.3V445.4H366.3ZM366.8 472.1H393V471.1H366.8V472.1ZM392.5 445.4V471.6H393.5V445.4H392.5ZM393 472.1H419.2V471.1H393V472.1ZM418.7 445.4V471.6H419.7V445.4H418.7ZM419.2 472.1H445.4V471.1H419.2V472.1ZM444.9 445.4V471.6H445.9V445.4H444.9ZM445.4 472.1H471.6V471.1H445.4V472.1ZM471.1 445.4V471.6H472.1V445.4H471.1ZM471.6 472.1H497.8V471.1H471.6V472.1ZM497.3 445.4V471.6H498.3V445.4H497.3ZM497.8 472.1H524V471.1H497.8V472.1ZM-0.5 471.6V497.8H0.5V471.6H-0.5ZM0 498.3H26.2V497.3H0V498.3ZM25.7 471.6V497.8H26.7V471.6H25.7ZM26.2 498.3H52.4V497.3H26.2V498.3ZM51.9 471.6V497.8H52.9V471.6H51.9ZM52.4 498.3H78.5999V497.3H52.4V498.3ZM78.0999 471.6V497.8H79.0999V471.6H78.0999ZM78.5999 498.3H104.8V497.3H78.5999V498.3ZM104.3 471.6V497.8H105.3V471.6H104.3ZM104.8 498.3H131V497.3H104.8V498.3ZM130.5 471.6V497.8H131.5V471.6H130.5ZM131 498.3H157.2V497.3H131V498.3ZM156.7 471.6V497.8H157.7V471.6H156.7ZM157.2 498.3H183.4V497.3H157.2V498.3ZM182.9 471.6V497.8H183.9V471.6H182.9ZM183.4 498.3H209.6V497.3H183.4V498.3ZM209.1 471.6V497.8H210.1V471.6H209.1ZM209.6 498.3H235.8V497.3H209.6V498.3ZM235.3 471.6V497.8H236.3V471.6H235.3ZM235.8 498.3H262V497.3H235.8V498.3ZM261.5 471.6V497.8H262.5V471.6H261.5ZM262 498.3H288.2V497.3H262V498.3ZM287.7 471.6V497.8H288.7V471.6H287.7ZM288.2 498.3H314.4V497.3H288.2V498.3ZM313.9 471.6V497.8H314.9V471.6H313.9ZM314.4 498.3H340.6V497.3H314.4V498.3ZM340.1 471.6V497.8H341.1V471.6H340.1ZM340.6 498.3H366.8V497.3H340.6V498.3ZM366.3 471.6V497.8H367.3V471.6H366.3ZM366.8 498.3H393V497.3H366.8V498.3ZM392.5 471.6V497.8H393.5V471.6H392.5ZM393 498.3H419.2V497.3H393V498.3ZM418.7 471.6V497.8H419.7V471.6H418.7ZM419.2 498.3H445.4V497.3H419.2V498.3ZM444.9 471.6V497.8H445.9V471.6H444.9ZM445.4 498.3H471.6V497.3H445.4V498.3ZM471.1 471.6V497.8H472.1V471.6H471.1ZM471.6 498.3H497.8V497.3H471.6V498.3ZM497.3 471.6V497.8H498.3V471.6H497.3ZM497.8 498.3H524V497.3H497.8V498.3ZM-0.5 497.8V524H0.5V497.8H-0.5ZM0 524.5H26.2V523.5H0V524.5ZM25.7 497.8V524H26.7V497.8H25.7ZM26.2 524.5H52.4V523.5H26.2V524.5ZM51.9 497.8V524H52.9V497.8H51.9ZM52.4 524.5H78.5999V523.5H52.4V524.5ZM78.0999 497.8V524H79.0999V497.8H78.0999ZM78.5999 524.5H104.8V523.5H78.5999V524.5ZM104.3 497.8V524H105.3V497.8H104.3ZM104.8 524.5H131V523.5H104.8V524.5ZM130.5 497.8V524H131.5V497.8H130.5ZM131 524.5H157.2V523.5H131V524.5ZM156.7 497.8V524H157.7V497.8H156.7ZM157.2 524.5H183.4V523.5H157.2V524.5ZM182.9 497.8V524H183.9V497.8H182.9ZM183.4 524.5H209.6V523.5H183.4V524.5ZM209.1 497.8V524H210.1V497.8H209.1ZM209.6 524.5H235.8V523.5H209.6V524.5ZM235.3 497.8V524H236.3V497.8H235.3ZM235.8 524.5H262V523.5H235.8V524.5ZM261.5 497.8V524H262.5V497.8H261.5ZM262 524.5H288.2V523.5H262V524.5ZM287.7 497.8V524H288.7V497.8H287.7ZM288.2 524.5H314.4V523.5H288.2V524.5ZM313.9 497.8V524H314.9V497.8H313.9ZM314.4 524.5H340.6V523.5H314.4V524.5ZM340.1 497.8V524H341.1V497.8H340.1ZM340.6 524.5H366.8V523.5H340.6V524.5ZM366.3 497.8V524H367.3V497.8H366.3ZM366.8 524.5H393V523.5H366.8V524.5ZM392.5 497.8V524H393.5V497.8H392.5ZM393 524.5H419.2V523.5H393V524.5ZM418.7 497.8V524H419.7V497.8H418.7ZM419.2 524.5H445.4V523.5H419.2V524.5ZM444.9 497.8V524H445.9V497.8H444.9ZM445.4 524.5H471.6V523.5H445.4V524.5ZM471.1 497.8V524H472.1V497.8H471.1ZM471.6 524.5H497.8V523.5H471.6V524.5ZM497.3 497.8V524H498.3V497.8H497.3ZM497.8 524.5H524V523.5H497.8V524.5ZM0 0V-1H-1V0H0ZM0 524H-1V525H0V524ZM524 524V525H525V524H524ZM524 0H525V-1H524V0ZM0 1H524V-1H0V1ZM523 0V524H525V0H523ZM524 523H0V525H524V523ZM1 524V0H-1V524H1Z" mask="url(#path-1-inside-1_218_405)" id="gridPath" />
</svg>
