<svg width="354" height="353" viewBox="0 0 354 353" fill="none" xmlns="http://www.w3.org/2000/svg">
<rect x="1.48016" y="0.500061" width="351" height="351" stroke="#E8EAF0"/>
<path d="M0.980164 22.0001H22.9802M22.9802 22.0001V6.10352e-05M22.9802 22.0001H44.9802M22.9802 22.0001V44.0001M44.9802 22.0001V6.10352e-05M44.9802 22.0001H66.9802M44.9802 22.0001V44.0001M66.9802 22.0001V6.10352e-05M66.9802 22.0001H88.9802M66.9802 22.0001V44.0001M88.9802 22.0001V6.10352e-05M88.9802 22.0001H110.98M88.9802 22.0001V44.0001M110.98 22.0001V6.10352e-05M110.98 22.0001H132.98M110.98 22.0001V44.0001M132.98 22.0001V6.10352e-05M132.98 22.0001H154.98M132.98 22.0001V44.0001M154.98 22.0001V6.10352e-05M154.98 22.0001H176.98M154.98 22.0001V44.0001M176.98 22.0001V6.10352e-05M176.98 22.0001H198.98M176.98 22.0001V44.0001M198.98 22.0001V6.10352e-05M198.98 22.0001H220.98M198.98 22.0001V44.0001M220.98 22.0001V6.10352e-05M220.98 22.0001H242.98M220.98 22.0001V44.0001M242.98 22.0001V6.10352e-05M242.98 22.0001H264.98M242.98 22.0001V44.0001M264.98 22.0001V6.10352e-05M264.98 22.0001H286.98M264.98 22.0001V44.0001M286.98 22.0001V6.10352e-05M286.98 22.0001H308.98M286.98 22.0001V44.0001M308.98 22.0001V6.10352e-05M308.98 22.0001H330.98M308.98 22.0001V44.0001M330.98 22.0001V6.10352e-05M330.98 22.0001H352.98M330.98 22.0001V44.0001M352.98 22.0001V6.10352e-05M352.98 22.0001V44.0001M0.980164 44.0001H22.9802M22.9802 44.0001H44.9802M22.9802 44.0001V66.0001M44.9802 44.0001H66.9802M44.9802 44.0001V66.0001M66.9802 44.0001H88.9802M66.9802 44.0001V66.0001M88.9802 44.0001H110.98M88.9802 44.0001V66.0001M110.98 44.0001H132.98M110.98 44.0001V66.0001M132.98 44.0001H154.98M132.98 44.0001V66.0001M154.98 44.0001H176.98M154.98 44.0001V66.0001M176.98 44.0001H198.98M176.98 44.0001V66.0001M198.98 44.0001H220.98M198.98 44.0001V66.0001M220.98 44.0001H242.98M220.98 44.0001V66.0001M242.98 44.0001H264.98M242.98 44.0001V66.0001M264.98 44.0001H286.98M264.98 44.0001V66.0001M286.98 44.0001H308.98M286.98 44.0001V66.0001M308.98 44.0001H330.98M308.98 44.0001V66.0001M330.98 44.0001H352.98M330.98 44.0001V66.0001M352.98 44.0001V66.0001M0.980164 66.0001H22.9802M22.9802 66.0001H44.9802M22.9802 66.0001V88.0001M44.9802 66.0001H66.9802M44.9802 66.0001V88.0001M66.9802 66.0001H88.9802M66.9802 66.0001V88.0001M88.9802 66.0001H110.98M88.9802 66.0001V88.0001M110.98 66.0001H132.98M110.98 66.0001V88.0001M132.98 66.0001H154.98M132.98 66.0001V88.0001M154.98 66.0001H176.98M154.98 66.0001V88.0001M176.98 66.0001H198.98M176.98 66.0001V88.0001M198.98 66.0001H220.98M198.98 66.0001V88.0001M220.98 66.0001H242.98M220.98 66.0001V88.0001M242.98 66.0001H264.98M242.98 66.0001V88.0001M264.98 66.0001H286.98M264.98 66.0001V88.0001M286.98 66.0001H308.98M286.98 66.0001V88.0001M308.98 66.0001H330.98M308.98 66.0001V88.0001M330.98 66.0001H352.98M330.98 66.0001V88.0001M352.98 66.0001V88.0001M0.980164 88.0001H22.9802M22.9802 88.0001H44.9802M22.9802 88.0001V110M44.9802 88.0001H66.9802M44.9802 88.0001V110M66.9802 88.0001H88.9802M66.9802 88.0001V110M88.9802 88.0001H110.98M88.9802 88.0001V110M110.98 88.0001H132.98M110.98 88.0001V110M132.98 88.0001H154.98M132.98 88.0001V110M154.98 88.0001H176.98M154.98 88.0001V110M176.98 88.0001H198.98M176.98 88.0001V110M198.98 88.0001H220.98M198.98 88.0001V110M220.98 88.0001H242.98M220.98 88.0001V110M242.98 88.0001H264.98M242.98 88.0001V110M264.98 88.0001H286.98M264.98 88.0001V110M286.98 88.0001H308.98M286.98 88.0001V110M308.98 88.0001H330.98M308.98 88.0001V110M330.98 88.0001H352.98M330.98 88.0001V110M352.98 88.0001V110M0.980164 110H22.9802M22.9802 110H44.9802M22.9802 110V132M44.9802 110H66.9802M44.9802 110V132M66.9802 110H88.9802M66.9802 110V132M88.9802 110H110.98M88.9802 110V132M110.98 110H132.98M110.98 110V132M132.98 110H154.98M132.98 110V132M154.98 110H176.98M154.98 110V132M176.98 110H198.98M176.98 110V132M198.98 110H220.98M198.98 110V132M220.98 110H242.98M220.98 110V132M242.98 110H264.98M242.98 110V132M264.98 110H286.98M264.98 110V132M286.98 110H308.98M286.98 110V132M308.98 110H330.98M308.98 110V132M330.98 110H352.98M330.98 110V132M352.98 110V132M0.980164 132H22.9802M22.9802 132H44.9802M22.9802 132V154M44.9802 132H66.9802M44.9802 132V154M66.9802 132H88.9802M66.9802 132V154M88.9802 132H110.98M88.9802 132V154M110.98 132H132.98M110.98 132V154M132.98 132H154.98M132.98 132V154M154.98 132H176.98M154.98 132V154M176.98 132H198.98M176.98 132V154M198.98 132H220.98M198.98 132V154M220.98 132H242.98M220.98 132V154M242.98 132H264.98M242.98 132V154M264.98 132H286.98M264.98 132V154M286.98 132H308.98M286.98 132V154M308.98 132H330.98M308.98 132V154M330.98 132H352.98M330.98 132V154M352.98 132V154M0.980164 154H22.9802M22.9802 154H44.9802M22.9802 154V176M44.9802 154H66.9802M44.9802 154V176M66.9802 154H88.9802M66.9802 154V176M88.9802 154H110.98M88.9802 154V176M110.98 154H132.98M110.98 154V176M132.98 154H154.98M132.98 154V176M154.98 154H176.98M154.98 154V176M176.98 154H198.98M176.98 154V176M198.98 154H220.98M198.98 154V176M220.98 154H242.98M220.98 154V176M242.98 154H264.98M242.98 154V176M264.98 154H286.98M264.98 154V176M286.98 154H308.98M286.98 154V176M308.98 154H330.98M308.98 154V176M330.98 154H352.98M330.98 154V176M352.98 154V176M0.980164 176H22.9802M22.9802 176H44.9802M22.9802 176V198M44.9802 176H66.9802M44.9802 176V198M66.9802 176H88.9802M66.9802 176V198M88.9802 176H110.98M88.9802 176V198M110.98 176H132.98M110.98 176V198M132.98 176H154.98M132.98 176V198M154.98 176H176.98M154.98 176V198M176.98 176H198.98M176.98 176V198M198.98 176H220.98M198.98 176V198M220.98 176H242.98M220.98 176V198M242.98 176H264.98M242.98 176V198M264.98 176H286.98M264.98 176V198M286.98 176H308.98M286.98 176V198M308.98 176H330.98M308.98 176V198M330.98 176H352.98M330.98 176V198M352.98 176V198M0.980164 198H22.9802M22.9802 198H44.9802M22.9802 198V220M44.9802 198H66.9802M44.9802 198V220M66.9802 198H88.9802M66.9802 198V220M88.9802 198H110.98M88.9802 198V220M110.98 198H132.98M110.98 198V220M132.98 198H154.98M132.98 198V220M154.98 198H176.98M154.98 198V220M176.98 198H198.98M176.98 198V220M198.98 198H220.98M198.98 198V220M220.98 198H242.98M220.98 198V220M242.98 198H264.98M242.98 198V220M264.98 198H286.98M264.98 198V220M286.98 198H308.98M286.98 198V220M308.98 198H330.98M308.98 198V220M330.98 198H352.98M330.98 198V220M352.98 198V220M0.980164 220H22.9802M22.9802 220H44.9802M22.9802 220V242M44.9802 220H66.9802M44.9802 220V242M66.9802 220H88.9802M66.9802 220V242M88.9802 220H110.98M88.9802 220V242M110.98 220H132.98M110.98 220V242M132.98 220H154.98M132.98 220V242M154.98 220H176.98M154.98 220V242M176.98 220H198.98M176.98 220V242M198.98 220H220.98M198.98 220V242M220.98 220H242.98M220.98 220V242M242.98 220H264.98M242.98 220V242M264.98 220H286.98M264.98 220V242M286.98 220H308.98M286.98 220V242M308.98 220H330.98M308.98 220V242M330.98 220H352.98M330.98 220V242M352.98 220V242M0.980164 242H22.9802M22.9802 242H44.9802M22.9802 242V264M44.9802 242H66.9802M44.9802 242V264M66.9802 242H88.9802M66.9802 242V264M88.9802 242H110.98M88.9802 242V264M110.98 242H132.98M110.98 242V264M132.98 242H154.98M132.98 242V264M154.98 242H176.98M154.98 242V264M176.98 242H198.98M176.98 242V264M198.98 242H220.98M198.98 242V264M220.98 242H242.98M220.98 242V264M242.98 242H264.98M242.98 242V264M264.98 242H286.98M264.98 242V264M286.98 242H308.98M286.98 242V264M308.98 242H330.98M308.98 242V264M330.98 242H352.98M330.98 242V264M352.98 242V264M0.980164 264H22.9802M22.9802 264H44.9802M22.9802 264V286M44.9802 264H66.9802M44.9802 264V286M66.9802 264H88.9802M66.9802 264V286M88.9802 264H110.98M88.9802 264V286M110.98 264H132.98M110.98 264V286M132.98 264H154.98M132.98 264V286M154.98 264H176.98M154.98 264V286M176.98 264H198.98M176.98 264V286M198.98 264H220.98M198.98 264V286M220.98 264H242.98M220.98 264V286M242.98 264H264.98M242.98 264V286M264.98 264H286.98M264.98 264V286M286.98 264H308.98M286.98 264V286M308.98 264H330.98M308.98 264V286M330.98 264H352.98M330.98 264V286M352.98 264V286M0.980164 286H22.9802M22.9802 286H44.9802M22.9802 286V308M44.9802 286H66.9802M44.9802 286V308M66.9802 286H88.9802M66.9802 286V308M88.9802 286H110.98M88.9802 286V308M110.98 286H132.98M110.98 286V308M132.98 286H154.98M132.98 286V308M154.98 286H176.98M154.98 286V308M176.98 286H198.98M176.98 286V308M198.98 286H220.98M198.98 286V308M220.98 286H242.98M220.98 286V308M242.98 286H264.98M242.98 286V308M264.98 286H286.98M264.98 286V308M286.98 286H308.98M286.98 286V308M308.98 286H330.98M308.98 286V308M330.98 286H352.98M330.98 286V308M352.98 286V308M0.980164 308H22.9802M22.9802 308H44.9802M22.9802 308V330M44.9802 308H66.9802M44.9802 308V330M66.9802 308H88.9802M66.9802 308V330M88.9802 308H110.98M88.9802 308V330M110.98 308H132.98M110.98 308V330M132.98 308H154.98M132.98 308V330M154.98 308H176.98M154.98 308V330M176.98 308H198.98M176.98 308V330M198.98 308H220.98M198.98 308V330M220.98 308H242.98M220.98 308V330M242.98 308H264.98M242.98 308V330M264.98 308H286.98M264.98 308V330M286.98 308H308.98M286.98 308V330M308.98 308H330.98M308.98 308V330M330.98 308H352.98M330.98 308V330M352.98 308V330M0.980164 330H22.9802M22.9802 330H44.9802M22.9802 330V352M44.9802 330H66.9802M44.9802 330V352M66.9802 330H88.9802M66.9802 330V352M88.9802 330H110.98M88.9802 330V352M110.98 330H132.98M110.98 330V352M132.98 330H154.98M132.98 330V352M154.98 330H176.98M154.98 330V352M176.98 330H198.98M176.98 330V352M198.98 330H220.98M198.98 330V352M220.98 330H242.98M220.98 330V352M242.98 330H264.98M242.98 330V352M264.98 330H286.98M264.98 330V352M286.98 330H308.98M286.98 330V352M308.98 330H330.98M308.98 330V352M330.98 330H352.98M330.98 330V352M352.98 330V352H330.98M0.980164 352H22.9802M22.9802 352H44.9802M44.9802 352H66.9802M66.9802 352H88.9802M88.9802 352H110.98M110.98 352H132.98M132.98 352H154.98M154.98 352H176.98M176.98 352H198.98M198.98 352H220.98M220.98 352H242.98M242.98 352H264.98M264.98 352H286.98M286.98 352H308.98M308.98 352H330.98" stroke="#E8EAF0"/>
</svg>
