<svg width="202" height="202" viewBox="0 0 202 202" fill="none" xmlns="http://www.w3.org/2000/svg">
<path d="M201 1H1V178.936L23.0641 201H201V1Z" fill="#627BFF" fill-opacity="0.33" stroke="#627BFF"/>
<mask id="mask0_269_1033" style="mask-type:alpha" maskUnits="userSpaceOnUse" x="0" y="1" width="201" height="201">
<path d="M1 1.70673V21.6361H20.9293" stroke="#627BFF"/>
<path d="M20.9293 1.70673V21.6361H40.8587" stroke="#627BFF"/>
<path d="M40.8585 1.70673V21.6361H60.7878" stroke="#627BFF"/>
<path d="M60.788 1.70673V21.6361H80.7173" stroke="#627BFF"/>
<path d="M80.7173 1.70673V21.6361H100.647" stroke="#627BFF"/>
<path d="M100.647 1.70673V21.6361H120.576" stroke="#627BFF"/>
<path d="M120.576 1.70673V21.6361H140.505" stroke="#627BFF"/>
<path d="M140.505 1.70673V21.6361H160.434" stroke="#627BFF"/>
<path d="M160.435 1.70673V21.6361H180.364" stroke="#627BFF"/>
<path d="M180.364 1.70673V21.6361H200.293" stroke="#627BFF"/>
<path d="M1 21.636V41.5654H20.9293" stroke="#627BFF"/>
<path d="M20.9293 21.636V41.5654H40.8587" stroke="#627BFF"/>
<path d="M40.8585 21.636V41.5654H60.7878" stroke="#627BFF"/>
<path d="M60.788 21.636V41.5654H80.7173" stroke="#627BFF"/>
<path d="M80.7173 21.636V41.5654H100.647" stroke="#627BFF"/>
<path d="M100.647 21.636V41.5654H120.576" stroke="#627BFF"/>
<path d="M120.576 21.636V41.5654H140.505" stroke="#627BFF"/>
<path d="M140.505 21.636V41.5654H160.434" stroke="#627BFF"/>
<path d="M160.435 21.636V41.5654H180.364" stroke="#627BFF"/>
<path d="M180.364 21.636V41.5654H200.293" stroke="#627BFF"/>
<path d="M1 41.5654V61.4947H20.9293" stroke="#627BFF"/>
<path d="M20.9293 41.5654V61.4947H40.8587" stroke="#627BFF"/>
<path d="M40.8585 41.5654V61.4947H60.7878" stroke="#627BFF"/>
<path d="M60.788 41.5654V61.4947H80.7173" stroke="#627BFF"/>
<path d="M80.7173 41.5654V61.4947H100.647" stroke="#627BFF"/>
<path d="M100.647 41.5654V61.4947H120.576" stroke="#627BFF"/>
<path d="M120.576 41.5654V61.4947H140.505" stroke="#627BFF"/>
<path d="M140.505 41.5654V61.4947H160.434" stroke="#627BFF"/>
<path d="M160.435 41.5654V61.4947H180.364" stroke="#627BFF"/>
<path d="M180.364 41.5654V61.4947H200.293" stroke="#627BFF"/>
<path d="M1 61.4947V81.424H20.9293" stroke="#627BFF"/>
<path d="M20.9293 61.4947V81.424H40.8587" stroke="#627BFF"/>
<path d="M40.8585 61.4947V81.424H60.7878" stroke="#627BFF"/>
<path d="M60.788 61.4947V81.424H80.7173" stroke="#627BFF"/>
<path d="M80.7173 61.4947V81.424H100.647" stroke="#627BFF"/>
<path d="M100.647 61.4947V81.424H120.576" stroke="#627BFF"/>
<path d="M120.576 61.4947V81.424H140.505" stroke="#627BFF"/>
<path d="M140.505 61.4947V81.424H160.434" stroke="#627BFF"/>
<path d="M160.435 61.4947V81.424H180.364" stroke="#627BFF"/>
<path d="M180.364 61.4947V81.424H200.293" stroke="#627BFF"/>
<path d="M1 81.424V101.353H20.9293" stroke="#627BFF"/>
<path d="M20.9293 81.424V101.353H40.8587" stroke="#627BFF"/>
<path d="M40.8585 81.424V101.353H60.7878" stroke="#627BFF"/>
<path d="M60.788 81.424V101.353H80.7173" stroke="#627BFF"/>
<path d="M80.7173 81.424V101.353H100.647" stroke="#627BFF"/>
<path d="M100.647 81.424V101.353H120.576" stroke="#627BFF"/>
<path d="M120.576 81.424V101.353H140.505" stroke="#627BFF"/>
<path d="M140.505 81.424V101.353H160.434" stroke="#627BFF"/>
<path d="M160.435 81.424V101.353H180.364" stroke="#627BFF"/>
<path d="M180.364 81.424V101.353H200.293" stroke="#627BFF"/>
<path d="M1 101.353V121.283H20.9293" stroke="#627BFF"/>
<path d="M20.9293 101.353V121.283H40.8587" stroke="#627BFF"/>
<path d="M40.8585 101.353V121.283H60.7878" stroke="#627BFF"/>
<path d="M60.788 101.353V121.283H80.7173" stroke="#627BFF"/>
<path d="M80.7173 101.353V121.283H100.647" stroke="#627BFF"/>
<path d="M100.647 101.353V121.283H120.576" stroke="#627BFF"/>
<path d="M120.576 101.353V121.283H140.505" stroke="#627BFF"/>
<path d="M140.505 101.353V121.283H160.434" stroke="#627BFF"/>
<path d="M160.435 101.353V121.283H180.364" stroke="#627BFF"/>
<path d="M180.364 101.353V121.283H200.293" stroke="#627BFF"/>
<path d="M1 121.283V141.212H20.9293" stroke="#627BFF"/>
<path d="M20.9293 121.283V141.212H40.8587" stroke="#627BFF"/>
<path d="M40.8585 121.283V141.212H60.7878" stroke="#627BFF"/>
<path d="M60.788 121.283V141.212H80.7173" stroke="#627BFF"/>
<path d="M80.7173 121.283V141.212H100.647" stroke="#627BFF"/>
<path d="M100.647 121.283V141.212H120.576" stroke="#627BFF"/>
<path d="M120.576 121.283V141.212H140.505" stroke="#627BFF"/>
<path d="M140.505 121.283V141.212H160.434" stroke="#627BFF"/>
<path d="M160.435 121.283V141.212H180.364" stroke="#627BFF"/>
<path d="M180.364 121.283V141.212H200.293" stroke="#627BFF"/>
<path d="M1 141.212V161.141H20.9293" stroke="#627BFF"/>
<path d="M20.9293 141.212V161.141H40.8587" stroke="#627BFF"/>
<path d="M40.8585 141.212V161.141H60.7878" stroke="#627BFF"/>
<path d="M60.788 141.212V161.141H80.7173" stroke="#627BFF"/>
<path d="M80.7173 141.212V161.141H100.647" stroke="#627BFF"/>
<path d="M100.647 141.212V161.141H120.576" stroke="#627BFF"/>
<path d="M120.576 141.212V161.141H140.505" stroke="#627BFF"/>
<path d="M140.505 141.212V161.141H160.434" stroke="#627BFF"/>
<path d="M160.435 141.212V161.141H180.364" stroke="#627BFF"/>
<path d="M180.364 141.212V161.141H200.293" stroke="#627BFF"/>
<path d="M1 161.141V181.071H20.9293" stroke="#627BFF"/>
<path d="M20.9293 161.141V181.071H40.8587" stroke="#627BFF"/>
<path d="M40.8585 161.141V181.071H60.7878" stroke="#627BFF"/>
<path d="M60.788 161.141V181.071H80.7173" stroke="#627BFF"/>
<path d="M80.7173 161.141V181.071H100.647" stroke="#627BFF"/>
<path d="M100.647 161.141V181.071H120.576" stroke="#627BFF"/>
<path d="M120.576 161.141V181.071H140.505" stroke="#627BFF"/>
<path d="M140.505 161.141V181.071H160.434" stroke="#627BFF"/>
<path d="M160.435 161.141V181.071H180.364" stroke="#627BFF"/>
<path d="M180.364 161.141V181.071H200.293" stroke="#627BFF"/>
<path d="M1 181.071V201H20.9293" stroke="#627BFF"/>
<path d="M20.9293 181.071V201H40.8587" stroke="#627BFF"/>
<path d="M40.8585 181.071V201H60.7878" stroke="#627BFF"/>
<path d="M60.788 181.071V201H80.7173" stroke="#627BFF"/>
<path d="M80.7173 181.071V201H100.647" stroke="#627BFF"/>
<path d="M100.647 181.071V201H120.576" stroke="#627BFF"/>
<path d="M120.576 181.071V201H140.505" stroke="#627BFF"/>
<path d="M140.505 181.071V201H160.434" stroke="#627BFF"/>
<path d="M160.435 181.071V201H180.364" stroke="#627BFF"/>
<path d="M180.364 181.071V201H200.293" stroke="#627BFF"/>
</mask>
<g mask="url(#mask0_269_1033)">
<path d="M201 1H1V178.936L23.0641 201H201V1Z" fill="#627BFF" fill-opacity="0.33"/>
</g>
<g clip-path="url(#clip0_269_1033)">
<path d="M101.5 41.8594C69.1813 41.8594 43 68.1082 43 100.5C43 132.892 69.1813 159.141 101.5 159.141C133.819 159.141 160 132.892 160 100.5C160 68.1082 133.819 41.8594 101.5 41.8594ZM127.981 77.1875C126.134 68.4303 123.264 60.7583 119.642 54.8074C130.359 59.1096 139.211 67.0912 144.651 77.1875H127.981ZM120.903 100.5C120.903 105.444 120.58 110.062 120.029 114.375H82.9705C82.4196 110.062 82.0968 105.444 82.0968 100.5C82.0968 95.5565 82.4196 90.938 82.9705 86.625H120.029C120.58 90.938 120.903 95.5565 120.903 100.5ZM101.5 51.2969C104.098 51.2969 107.396 53.4887 110.616 58.1917C113.641 62.611 116.441 69.0368 118.355 77.1875H84.6447C86.5594 69.0368 89.3595 62.611 92.3844 58.1917C95.6036 53.4887 98.9017 51.2969 101.5 51.2969ZM58.3491 77.1875C63.7892 67.0904 72.6427 59.1083 83.3603 54.8063C79.7518 60.7411 76.8659 68.4128 75.0188 77.1875H58.3491ZM52.4194 100.5C52.4194 95.6769 53.1156 91.0197 54.4103 86.625H73.5215C72.9958 91.0786 72.6774 95.6979 72.6774 100.5C72.6774 105.298 72.9756 109.917 73.5169 114.375H54.4103C53.1156 109.98 52.4194 105.323 52.4194 100.5ZM75.0191 123.812C76.8656 132.57 79.7363 140.242 83.3576 146.193C72.6412 141.89 63.7888 133.909 58.3491 123.812H75.0191ZM101.5 149.703C98.9017 149.703 95.6036 147.511 92.3844 142.808C89.3595 138.389 86.5594 131.963 84.6447 123.812H118.355C116.441 131.963 113.641 138.389 110.616 142.808C107.396 147.511 104.098 149.703 101.5 149.703ZM127.981 123.812H144.651C139.211 133.91 130.357 141.892 119.64 146.194C123.248 140.259 126.134 132.587 127.981 123.812ZM148.59 114.375H129.479C130.004 109.921 130.323 105.302 130.323 100.5C130.323 95.7018 130.024 91.0828 129.483 86.625H148.59C149.884 91.0197 150.581 95.6769 150.581 100.5C150.581 105.323 149.884 109.98 148.59 114.375Z" stroke="#627BFF" stroke-width="2"/>
</g>
<defs>
<clipPath id="clip0_269_1033">
<rect width="129" height="119" fill="white" transform="translate(37 41)"/>
</clipPath>
</defs>
</svg>
