<svg width="202" height="202" viewBox="0 0 202 202" fill="none" xmlns="http://www.w3.org/2000/svg">
<path d="M200.853 1H0.853394V178.936L22.9174 201H200.853V1Z" fill="#627BFF" fill-opacity="0.33" stroke="#627BFF"/>
<mask id="mask0_269_281" style="mask-type:alpha" maskUnits="userSpaceOnUse" x="0" y="1" width="201" height="201">
<path d="M0.853394 1.70673V21.6361H20.7827" stroke="#627BFF"/>
<path d="M20.7827 1.70673V21.6361H40.712" stroke="#627BFF"/>
<path d="M40.7119 1.70673V21.6361H60.6412" stroke="#627BFF"/>
<path d="M60.6414 1.70673V21.6361H80.5707" stroke="#627BFF"/>
<path d="M80.5707 1.70673V21.6361H100.5" stroke="#627BFF"/>
<path d="M100.5 1.70673V21.6361H120.429" stroke="#627BFF"/>
<path d="M120.429 1.70673V21.6361H140.359" stroke="#627BFF"/>
<path d="M140.359 1.70673V21.6361H160.288" stroke="#627BFF"/>
<path d="M160.288 1.70673V21.6361H180.217" stroke="#627BFF"/>
<path d="M180.217 1.70673V21.6361H200.147" stroke="#627BFF"/>
<path d="M0.853394 21.636V41.5654H20.7827" stroke="#627BFF"/>
<path d="M20.7827 21.636V41.5654H40.712" stroke="#627BFF"/>
<path d="M40.7119 21.636V41.5654H60.6412" stroke="#627BFF"/>
<path d="M60.6414 21.636V41.5654H80.5707" stroke="#627BFF"/>
<path d="M80.5707 21.636V41.5654H100.5" stroke="#627BFF"/>
<path d="M100.5 21.636V41.5654H120.429" stroke="#627BFF"/>
<path d="M120.429 21.636V41.5654H140.359" stroke="#627BFF"/>
<path d="M140.359 21.636V41.5654H160.288" stroke="#627BFF"/>
<path d="M160.288 21.636V41.5654H180.217" stroke="#627BFF"/>
<path d="M180.217 21.636V41.5654H200.147" stroke="#627BFF"/>
<path d="M0.853394 41.5654V61.4947H20.7827" stroke="#627BFF"/>
<path d="M20.7827 41.5654V61.4947H40.712" stroke="#627BFF"/>
<path d="M40.7119 41.5654V61.4947H60.6412" stroke="#627BFF"/>
<path d="M60.6414 41.5654V61.4947H80.5707" stroke="#627BFF"/>
<path d="M80.5707 41.5654V61.4947H100.5" stroke="#627BFF"/>
<path d="M100.5 41.5654V61.4947H120.429" stroke="#627BFF"/>
<path d="M120.429 41.5654V61.4947H140.359" stroke="#627BFF"/>
<path d="M140.359 41.5654V61.4947H160.288" stroke="#627BFF"/>
<path d="M160.288 41.5654V61.4947H180.217" stroke="#627BFF"/>
<path d="M180.217 41.5654V61.4947H200.147" stroke="#627BFF"/>
<path d="M0.853394 61.4947V81.424H20.7827" stroke="#627BFF"/>
<path d="M20.7827 61.4947V81.424H40.712" stroke="#627BFF"/>
<path d="M40.7119 61.4947V81.424H60.6412" stroke="#627BFF"/>
<path d="M60.6414 61.4947V81.424H80.5707" stroke="#627BFF"/>
<path d="M80.5707 61.4947V81.424H100.5" stroke="#627BFF"/>
<path d="M100.5 61.4947V81.424H120.429" stroke="#627BFF"/>
<path d="M120.429 61.4947V81.424H140.359" stroke="#627BFF"/>
<path d="M140.359 61.4947V81.424H160.288" stroke="#627BFF"/>
<path d="M160.288 61.4947V81.424H180.217" stroke="#627BFF"/>
<path d="M180.217 61.4947V81.424H200.147" stroke="#627BFF"/>
<path d="M0.853394 81.424V101.353H20.7827" stroke="#627BFF"/>
<path d="M20.7827 81.424V101.353H40.712" stroke="#627BFF"/>
<path d="M40.7119 81.424V101.353H60.6412" stroke="#627BFF"/>
<path d="M60.6414 81.424V101.353H80.5707" stroke="#627BFF"/>
<path d="M80.5707 81.424V101.353H100.5" stroke="#627BFF"/>
<path d="M100.5 81.424V101.353H120.429" stroke="#627BFF"/>
<path d="M120.429 81.424V101.353H140.359" stroke="#627BFF"/>
<path d="M140.359 81.424V101.353H160.288" stroke="#627BFF"/>
<path d="M160.288 81.424V101.353H180.217" stroke="#627BFF"/>
<path d="M180.217 81.424V101.353H200.147" stroke="#627BFF"/>
<path d="M0.853394 101.353V121.283H20.7827" stroke="#627BFF"/>
<path d="M20.7827 101.353V121.283H40.712" stroke="#627BFF"/>
<path d="M40.7119 101.353V121.283H60.6412" stroke="#627BFF"/>
<path d="M60.6414 101.353V121.283H80.5707" stroke="#627BFF"/>
<path d="M80.5707 101.353V121.283H100.5" stroke="#627BFF"/>
<path d="M100.5 101.353V121.283H120.429" stroke="#627BFF"/>
<path d="M120.429 101.353V121.283H140.359" stroke="#627BFF"/>
<path d="M140.359 101.353V121.283H160.288" stroke="#627BFF"/>
<path d="M160.288 101.353V121.283H180.217" stroke="#627BFF"/>
<path d="M180.217 101.353V121.283H200.147" stroke="#627BFF"/>
<path d="M0.853394 121.283V141.212H20.7827" stroke="#627BFF"/>
<path d="M20.7827 121.283V141.212H40.712" stroke="#627BFF"/>
<path d="M40.7119 121.283V141.212H60.6412" stroke="#627BFF"/>
<path d="M60.6414 121.283V141.212H80.5707" stroke="#627BFF"/>
<path d="M80.5707 121.283V141.212H100.5" stroke="#627BFF"/>
<path d="M100.5 121.283V141.212H120.429" stroke="#627BFF"/>
<path d="M120.429 121.283V141.212H140.359" stroke="#627BFF"/>
<path d="M140.359 121.283V141.212H160.288" stroke="#627BFF"/>
<path d="M160.288 121.283V141.212H180.217" stroke="#627BFF"/>
<path d="M180.217 121.283V141.212H200.147" stroke="#627BFF"/>
<path d="M0.853394 141.212V161.141H20.7827" stroke="#627BFF"/>
<path d="M20.7827 141.212V161.141H40.712" stroke="#627BFF"/>
<path d="M40.7119 141.212V161.141H60.6412" stroke="#627BFF"/>
<path d="M60.6414 141.212V161.141H80.5707" stroke="#627BFF"/>
<path d="M80.5707 141.212V161.141H100.5" stroke="#627BFF"/>
<path d="M100.5 141.212V161.141H120.429" stroke="#627BFF"/>
<path d="M120.429 141.212V161.141H140.359" stroke="#627BFF"/>
<path d="M140.359 141.212V161.141H160.288" stroke="#627BFF"/>
<path d="M160.288 141.212V161.141H180.217" stroke="#627BFF"/>
<path d="M180.217 141.212V161.141H200.147" stroke="#627BFF"/>
<path d="M0.853394 161.141V181.071H20.7827" stroke="#627BFF"/>
<path d="M20.7827 161.141V181.071H40.712" stroke="#627BFF"/>
<path d="M40.7119 161.141V181.071H60.6412" stroke="#627BFF"/>
<path d="M60.6414 161.141V181.071H80.5707" stroke="#627BFF"/>
<path d="M80.5707 161.141V181.071H100.5" stroke="#627BFF"/>
<path d="M100.5 161.141V181.071H120.429" stroke="#627BFF"/>
<path d="M120.429 161.141V181.071H140.359" stroke="#627BFF"/>
<path d="M140.359 161.141V181.071H160.288" stroke="#627BFF"/>
<path d="M160.288 161.141V181.071H180.217" stroke="#627BFF"/>
<path d="M180.217 161.141V181.071H200.147" stroke="#627BFF"/>
<path d="M0.853394 181.071V201H20.7827" stroke="#627BFF"/>
<path d="M20.7827 181.071V201H40.712" stroke="#627BFF"/>
<path d="M40.7119 181.071V201H60.6412" stroke="#627BFF"/>
<path d="M60.6414 181.071V201H80.5707" stroke="#627BFF"/>
<path d="M80.5707 181.071V201H100.5" stroke="#627BFF"/>
<path d="M100.5 181.071V201H120.429" stroke="#627BFF"/>
<path d="M120.429 181.071V201H140.359" stroke="#627BFF"/>
<path d="M140.359 181.071V201H160.288" stroke="#627BFF"/>
<path d="M160.288 181.071V201H180.217" stroke="#627BFF"/>
<path d="M180.217 181.071V201H200.147" stroke="#627BFF"/>
</mask>
<g mask="url(#mask0_269_281)">
<path d="M200.853 1H0.853394V178.936L22.9174 201H200.853V1Z" fill="#627BFF" fill-opacity="0.33"/>
</g>
<path d="M89.3592 137.466H35V43H165.862V137.466H111.503H110.116L110.554 138.782L113.022 146.203L113.25 146.887H113.971H129.956H136.337V159.728H129.956H70.9062H64.5249V146.887H70.9062H86.8912H87.6124L87.84 146.203L90.3081 138.782L90.7457 137.466H89.3592ZM153.1 56.841V55.841H152.1H48.7625H47.7625V56.841V123.625V124.625H48.7625H152.1H153.1V123.625V56.841Z" stroke="#627BFF" stroke-width="2"/>
<path d="M104.054 68.8551L103.258 71.3839L92.4246 105.762L91.629 108.291L96.8087 109.845L97.6043 107.316L108.438 72.9375L109.233 70.4088L104.054 68.8551ZM110.139 80.0942L112.052 81.9618L119.618 89.3498L112.052 96.7378L110.139 98.6055L113.973 102.349L115.886 100.481L125.365 91.2258L127.286 89.3498L125.374 87.4822L115.894 78.2265L113.973 76.3506L110.139 80.0942ZM86.8894 76.3506L84.9766 78.2182L75.4973 87.4739L73.576 89.3498L75.4888 91.2175L84.9681 100.473L86.8894 102.349L90.7234 98.6055L88.8106 96.7378L81.2441 89.3498L88.8106 81.9618L90.7234 80.0942L86.8894 76.3506Z" fill="#627BFF"/>
</svg>
