<svg width="202" height="202" viewBox="0 0 202 202" fill="none" xmlns="http://www.w3.org/2000/svg">
<path d="M201 1H1V178.936L23.0641 201H201V1Z" fill="#627BFF" fill-opacity="0.33" stroke="#627BFF"/>
<mask id="mask0_269_712" style="mask-type:alpha" maskUnits="userSpaceOnUse" x="0" y="1" width="201" height="201">
<path d="M1 1.70673V21.6361H20.9293" stroke="#627BFF"/>
<path d="M20.9293 1.70673V21.6361H40.8587" stroke="#627BFF"/>
<path d="M40.8585 1.70673V21.6361H60.7878" stroke="#627BFF"/>
<path d="M60.788 1.70673V21.6361H80.7173" stroke="#627BFF"/>
<path d="M80.7173 1.70673V21.6361H100.647" stroke="#627BFF"/>
<path d="M100.647 1.70673V21.6361H120.576" stroke="#627BFF"/>
<path d="M120.576 1.70673V21.6361H140.505" stroke="#627BFF"/>
<path d="M140.505 1.70673V21.6361H160.434" stroke="#627BFF"/>
<path d="M160.435 1.70673V21.6361H180.364" stroke="#627BFF"/>
<path d="M180.364 1.70673V21.6361H200.293" stroke="#627BFF"/>
<path d="M0.999939 21.636V41.5654H20.9293" stroke="#627BFF"/>
<path d="M20.9293 21.636V41.5654H40.8587" stroke="#627BFF"/>
<path d="M40.8585 21.636V41.5654H60.7878" stroke="#627BFF"/>
<path d="M60.788 21.636V41.5654H80.7173" stroke="#627BFF"/>
<path d="M80.7173 21.636V41.5654H100.647" stroke="#627BFF"/>
<path d="M100.647 21.636V41.5654H120.576" stroke="#627BFF"/>
<path d="M120.576 21.636V41.5654H140.505" stroke="#627BFF"/>
<path d="M140.505 21.636V41.5654H160.434" stroke="#627BFF"/>
<path d="M160.435 21.636V41.5654H180.364" stroke="#627BFF"/>
<path d="M180.364 21.636V41.5654H200.293" stroke="#627BFF"/>
<path d="M0.999939 41.5654V61.4948H20.9293" stroke="#627BFF"/>
<path d="M20.9293 41.5654V61.4948H40.8587" stroke="#627BFF"/>
<path d="M40.8585 41.5654V61.4948H60.7878" stroke="#627BFF"/>
<path d="M60.788 41.5654V61.4948H80.7173" stroke="#627BFF"/>
<path d="M80.7173 41.5654V61.4948H100.647" stroke="#627BFF"/>
<path d="M100.647 41.5654V61.4948H120.576" stroke="#627BFF"/>
<path d="M120.576 41.5654V61.4948H140.505" stroke="#627BFF"/>
<path d="M140.505 41.5654V61.4948H160.434" stroke="#627BFF"/>
<path d="M160.435 41.5654V61.4948H180.364" stroke="#627BFF"/>
<path d="M180.364 41.5654V61.4948H200.293" stroke="#627BFF"/>
<path d="M0.999939 61.4947V81.424H20.9293" stroke="#627BFF"/>
<path d="M20.9293 61.4947V81.424H40.8587" stroke="#627BFF"/>
<path d="M40.8585 61.4947V81.424H60.7878" stroke="#627BFF"/>
<path d="M60.788 61.4947V81.424H80.7173" stroke="#627BFF"/>
<path d="M80.7173 61.4947V81.424H100.647" stroke="#627BFF"/>
<path d="M100.647 61.4947V81.424H120.576" stroke="#627BFF"/>
<path d="M120.576 61.4947V81.424H140.505" stroke="#627BFF"/>
<path d="M140.505 61.4947V81.424H160.434" stroke="#627BFF"/>
<path d="M160.435 61.4947V81.424H180.364" stroke="#627BFF"/>
<path d="M180.364 61.4947V81.424H200.293" stroke="#627BFF"/>
<path d="M0.999939 81.424V101.353H20.9293" stroke="#627BFF"/>
<path d="M20.9293 81.424V101.353H40.8587" stroke="#627BFF"/>
<path d="M40.8585 81.424V101.353H60.7878" stroke="#627BFF"/>
<path d="M60.788 81.424V101.353H80.7173" stroke="#627BFF"/>
<path d="M80.7173 81.424V101.353H100.647" stroke="#627BFF"/>
<path d="M100.647 81.424V101.353H120.576" stroke="#627BFF"/>
<path d="M120.576 81.424V101.353H140.505" stroke="#627BFF"/>
<path d="M140.505 81.424V101.353H160.434" stroke="#627BFF"/>
<path d="M160.435 81.424V101.353H180.364" stroke="#627BFF"/>
<path d="M180.364 81.424V101.353H200.293" stroke="#627BFF"/>
<path d="M0.999939 101.353V121.283H20.9293" stroke="#627BFF"/>
<path d="M20.9293 101.353V121.283H40.8587" stroke="#627BFF"/>
<path d="M40.8585 101.353V121.283H60.7878" stroke="#627BFF"/>
<path d="M60.788 101.353V121.283H80.7173" stroke="#627BFF"/>
<path d="M80.7173 101.353V121.283H100.647" stroke="#627BFF"/>
<path d="M100.647 101.353V121.283H120.576" stroke="#627BFF"/>
<path d="M120.576 101.353V121.283H140.505" stroke="#627BFF"/>
<path d="M140.505 101.353V121.283H160.434" stroke="#627BFF"/>
<path d="M160.435 101.353V121.283H180.364" stroke="#627BFF"/>
<path d="M180.364 101.353V121.283H200.293" stroke="#627BFF"/>
<path d="M0.999939 121.283V141.212H20.9293" stroke="#627BFF"/>
<path d="M20.9293 121.283V141.212H40.8587" stroke="#627BFF"/>
<path d="M40.8585 121.283V141.212H60.7878" stroke="#627BFF"/>
<path d="M60.788 121.283V141.212H80.7173" stroke="#627BFF"/>
<path d="M80.7173 121.283V141.212H100.647" stroke="#627BFF"/>
<path d="M100.647 121.283V141.212H120.576" stroke="#627BFF"/>
<path d="M120.576 121.283V141.212H140.505" stroke="#627BFF"/>
<path d="M140.505 121.283V141.212H160.434" stroke="#627BFF"/>
<path d="M160.435 121.283V141.212H180.364" stroke="#627BFF"/>
<path d="M180.364 121.283V141.212H200.293" stroke="#627BFF"/>
<path d="M0.999939 141.212V161.141H20.9293" stroke="#627BFF"/>
<path d="M20.9293 141.212V161.141H40.8587" stroke="#627BFF"/>
<path d="M40.8585 141.212V161.141H60.7878" stroke="#627BFF"/>
<path d="M60.788 141.212V161.141H80.7173" stroke="#627BFF"/>
<path d="M80.7173 141.212V161.141H100.647" stroke="#627BFF"/>
<path d="M100.647 141.212V161.141H120.576" stroke="#627BFF"/>
<path d="M120.576 141.212V161.141H140.505" stroke="#627BFF"/>
<path d="M140.505 141.212V161.141H160.434" stroke="#627BFF"/>
<path d="M160.435 141.212V161.141H180.364" stroke="#627BFF"/>
<path d="M180.364 141.212V161.141H200.293" stroke="#627BFF"/>
<path d="M0.999939 161.141V181.071H20.9293" stroke="#627BFF"/>
<path d="M20.9293 161.141V181.071H40.8587" stroke="#627BFF"/>
<path d="M40.8585 161.141V181.071H60.7878" stroke="#627BFF"/>
<path d="M60.788 161.141V181.071H80.7173" stroke="#627BFF"/>
<path d="M80.7173 161.141V181.071H100.647" stroke="#627BFF"/>
<path d="M100.647 161.141V181.071H120.576" stroke="#627BFF"/>
<path d="M120.576 161.141V181.071H140.505" stroke="#627BFF"/>
<path d="M140.505 161.141V181.071H160.434" stroke="#627BFF"/>
<path d="M160.435 161.141V181.071H180.364" stroke="#627BFF"/>
<path d="M180.364 161.141V181.071H200.293" stroke="#627BFF"/>
<path d="M0.999939 181.071V201H20.9293" stroke="#627BFF"/>
<path d="M20.9293 181.071V201H40.8587" stroke="#627BFF"/>
<path d="M40.8585 181.071V201H60.7878" stroke="#627BFF"/>
<path d="M60.788 181.071V201H80.7173" stroke="#627BFF"/>
<path d="M80.7173 181.071V201H100.647" stroke="#627BFF"/>
<path d="M100.647 181.071V201H120.576" stroke="#627BFF"/>
<path d="M120.576 181.071V201H140.505" stroke="#627BFF"/>
<path d="M140.505 181.071V201H160.434" stroke="#627BFF"/>
<path d="M160.435 181.071V201H180.364" stroke="#627BFF"/>
<path d="M180.364 181.071V201H200.293" stroke="#627BFF"/>
</mask>
<g mask="url(#mask0_269_712)">
<path d="M201 1H0.999939V178.936L23.064 201H201V1Z" fill="#627BFF" fill-opacity="0.33"/>
</g>
<path d="M60.3165 154.391L56.5865 150.661L89.3022 117.945C90.7404 118.532 92.3082 118.86 93.9534 118.86C100.746 118.86 106.256 113.35 106.256 106.558C106.256 99.766 100.746 94.2558 93.9534 94.2558C87.1613 94.2558 81.6511 99.766 81.6511 106.558C81.6511 108.203 81.9791 109.771 82.5664 111.209L49.8508 143.925L46.1208 140.195L68.3719 73.4417L112.768 58.6431L141.868 87.7438L127.07 132.14L60.3165 154.391ZM148.417 80.8204L119.691 52.0951L135.395 36.391L164.121 65.1163L148.417 80.8204Z" stroke="#627BFF" stroke-width="2"/>
</svg>
