<svg width="202" height="202" viewBox="0 0 202 202" fill="none" xmlns="http://www.w3.org/2000/svg">
<path d="M201 1H1V178.936L23.0641 201H201V1Z" fill="#627BFF" fill-opacity="0.33" stroke="#627BFF"/>
<mask id="mask0_264_12" style="mask-type:alpha" maskUnits="userSpaceOnUse" x="0" y="1" width="200" height="200">
<path d="M1 1.70465V21.5758H20.8711" stroke="#627BFF"/>
<path d="M20.8712 1.70465V21.5758H40.7423" stroke="#627BFF"/>
<path d="M40.7423 1.70465V21.5758H60.6135" stroke="#627BFF"/>
<path d="M60.6134 1.70465V21.5758H80.4845" stroke="#627BFF"/>
<path d="M80.4846 1.70465V21.5758H100.356" stroke="#627BFF"/>
<path d="M100.356 1.70465V21.5758H120.227" stroke="#627BFF"/>
<path d="M120.227 1.70465V21.5758H140.098" stroke="#627BFF"/>
<path d="M140.098 1.70465V21.5758H159.969" stroke="#627BFF"/>
<path d="M159.969 1.70465V21.5758H179.84" stroke="#627BFF"/>
<path d="M179.84 1.70465V21.5758H199.711" stroke="#627BFF"/>
<path d="M1 21.5758V41.4469H20.8711" stroke="#627BFF"/>
<path d="M20.8712 21.5758V41.4469H40.7423" stroke="#627BFF"/>
<path d="M40.7423 21.5758V41.4469H60.6135" stroke="#627BFF"/>
<path d="M60.6134 21.5758V41.4469H80.4845" stroke="#627BFF"/>
<path d="M80.4846 21.5758V41.4469H100.356" stroke="#627BFF"/>
<path d="M100.356 21.5758V41.4469H120.227" stroke="#627BFF"/>
<path d="M120.227 21.5758V41.4469H140.098" stroke="#627BFF"/>
<path d="M140.098 21.5758V41.4469H159.969" stroke="#627BFF"/>
<path d="M159.969 21.5758V41.4469H179.84" stroke="#627BFF"/>
<path d="M179.84 21.5758V41.4469H199.711" stroke="#627BFF"/>
<path d="M1 41.447V61.3181H20.8711" stroke="#627BFF"/>
<path d="M20.8712 41.447V61.3181H40.7423" stroke="#627BFF"/>
<path d="M40.7423 41.447V61.3181H60.6135" stroke="#627BFF"/>
<path d="M60.6134 41.447V61.3181H80.4845" stroke="#627BFF"/>
<path d="M80.4846 41.447V61.3181H100.356" stroke="#627BFF"/>
<path d="M100.356 41.447V61.3181H120.227" stroke="#627BFF"/>
<path d="M120.227 41.447V61.3181H140.098" stroke="#627BFF"/>
<path d="M140.098 41.447V61.3181H159.969" stroke="#627BFF"/>
<path d="M159.969 41.447V61.3181H179.84" stroke="#627BFF"/>
<path d="M179.84 41.447V61.3181H199.711" stroke="#627BFF"/>
<path d="M1 61.3181V81.1892H20.8711" stroke="#627BFF"/>
<path d="M20.8712 61.3181V81.1892H40.7423" stroke="#627BFF"/>
<path d="M40.7423 61.3181V81.1892H60.6135" stroke="#627BFF"/>
<path d="M60.6134 61.3181V81.1892H80.4845" stroke="#627BFF"/>
<path d="M80.4846 61.3181V81.1892H100.356" stroke="#627BFF"/>
<path d="M100.356 61.3181V81.1892H120.227" stroke="#627BFF"/>
<path d="M120.227 61.3181V81.1892H140.098" stroke="#627BFF"/>
<path d="M140.098 61.3181V81.1892H159.969" stroke="#627BFF"/>
<path d="M159.969 61.3181V81.1892H179.84" stroke="#627BFF"/>
<path d="M179.84 61.3181V81.1892H199.711" stroke="#627BFF"/>
<path d="M1 81.1892V101.06H20.8711" stroke="#627BFF"/>
<path d="M20.8712 81.1892V101.06H40.7423" stroke="#627BFF"/>
<path d="M40.7423 81.1892V101.06H60.6135" stroke="#627BFF"/>
<path d="M60.6134 81.1892V101.06H80.4845" stroke="#627BFF"/>
<path d="M80.4846 81.1892V101.06H100.356" stroke="#627BFF"/>
<path d="M100.356 81.1892V101.06H120.227" stroke="#627BFF"/>
<path d="M120.227 81.1892V101.06H140.098" stroke="#627BFF"/>
<path d="M140.098 81.1892V101.06H159.969" stroke="#627BFF"/>
<path d="M159.969 81.1892V101.06H179.84" stroke="#627BFF"/>
<path d="M179.84 81.1892V101.06H199.711" stroke="#627BFF"/>
<path d="M1 101.06V120.932H20.8711" stroke="#627BFF"/>
<path d="M20.8712 101.06V120.932H40.7423" stroke="#627BFF"/>
<path d="M40.7423 101.06V120.932H60.6135" stroke="#627BFF"/>
<path d="M60.6134 101.06V120.932H80.4845" stroke="#627BFF"/>
<path d="M80.4846 101.06V120.932H100.356" stroke="#627BFF"/>
<path d="M100.356 101.06V120.932H120.227" stroke="#627BFF"/>
<path d="M120.227 101.06V120.932H140.098" stroke="#627BFF"/>
<path d="M140.098 101.06V120.932H159.969" stroke="#627BFF"/>
<path d="M159.969 101.06V120.932H179.84" stroke="#627BFF"/>
<path d="M179.84 101.06V120.932H199.711" stroke="#627BFF"/>
<path d="M1 120.932V140.803H20.8711" stroke="#627BFF"/>
<path d="M20.8712 120.932V140.803H40.7423" stroke="#627BFF"/>
<path d="M40.7423 120.932V140.803H60.6135" stroke="#627BFF"/>
<path d="M60.6134 120.932V140.803H80.4845" stroke="#627BFF"/>
<path d="M80.4846 120.932V140.803H100.356" stroke="#627BFF"/>
<path d="M100.356 120.932V140.803H120.227" stroke="#627BFF"/>
<path d="M120.227 120.932V140.803H140.098" stroke="#627BFF"/>
<path d="M140.098 120.932V140.803H159.969" stroke="#627BFF"/>
<path d="M159.969 120.932V140.803H179.84" stroke="#627BFF"/>
<path d="M179.84 120.932V140.803H199.711" stroke="#627BFF"/>
<path d="M1 140.803V160.674H20.8711" stroke="#627BFF"/>
<path d="M20.8712 140.803V160.674H40.7423" stroke="#627BFF"/>
<path d="M40.7423 140.803V160.674H60.6135" stroke="#627BFF"/>
<path d="M60.6134 140.803V160.674H80.4845" stroke="#627BFF"/>
<path d="M80.4846 140.803V160.674H100.356" stroke="#627BFF"/>
<path d="M100.356 140.803V160.674H120.227" stroke="#627BFF"/>
<path d="M120.227 140.803V160.674H140.098" stroke="#627BFF"/>
<path d="M140.098 140.803V160.674H159.969" stroke="#627BFF"/>
<path d="M159.969 140.803V160.674H179.84" stroke="#627BFF"/>
<path d="M179.84 140.803V160.674H199.711" stroke="#627BFF"/>
<path d="M1 160.674V180.545H20.8711" stroke="#627BFF"/>
<path d="M20.8712 160.674V180.545H40.7423" stroke="#627BFF"/>
<path d="M40.7423 160.674V180.545H60.6135" stroke="#627BFF"/>
<path d="M60.6134 160.674V180.545H80.4845" stroke="#627BFF"/>
<path d="M80.4846 160.674V180.545H100.356" stroke="#627BFF"/>
<path d="M100.356 160.674V180.545H120.227" stroke="#627BFF"/>
<path d="M120.227 160.674V180.545H140.098" stroke="#627BFF"/>
<path d="M140.098 160.674V180.545H159.969" stroke="#627BFF"/>
<path d="M159.969 160.674V180.545H179.84" stroke="#627BFF"/>
<path d="M179.84 160.674V180.545H199.711" stroke="#627BFF"/>
<path d="M1 180.545V200.416H20.8711" stroke="#627BFF"/>
<path d="M20.8712 180.545V200.416H40.7423" stroke="#627BFF"/>
<path d="M40.7423 180.545V200.416H60.6135" stroke="#627BFF"/>
<path d="M60.6134 180.545V200.416H80.4845" stroke="#627BFF"/>
<path d="M80.4846 180.545V200.416H100.356" stroke="#627BFF"/>
<path d="M100.356 180.545V200.416H120.227" stroke="#627BFF"/>
<path d="M120.227 180.545V200.416H140.098" stroke="#627BFF"/>
<path d="M140.098 180.545V200.416H159.969" stroke="#627BFF"/>
<path d="M159.969 180.545V200.416H179.84" stroke="#627BFF"/>
<path d="M179.84 180.545V200.416H199.711" stroke="#627BFF"/>
</mask>
<g mask="url(#mask0_264_12)">
<path d="M201 1H1V178.936L23.0641 201H201V1Z" fill="#627BFF" fill-opacity="0.33"/>
</g>
<g clip-path="url(#clip0_264_12)">
<path d="M147.05 63.725V62.725H146.05H55.15H54.15V63.725V78.875V79.875H55.15H146.05H147.05V78.875V63.725ZM55.15 93.0249H54.15V94.0249V139.475V140.475H55.15H70.3H71.3V139.475V94.0249V93.0249H70.3H55.15ZM147.05 94.0249V93.0249H146.05H85.45H84.45V94.0249V139.475V140.475H85.45H146.05H147.05V139.475V94.0249ZM41 49.575H160.2V153.625H41V49.575Z" stroke="#627BFF" stroke-width="2"/>
</g>
<defs>
<clipPath id="clip0_264_12">
<rect width="121" height="107" fill="white" transform="translate(40 48)"/>
</clipPath>
</defs>
</svg>
