<svg width="59" height="428" viewBox="0 0 59 428" fill="none" xmlns="http://www.w3.org/2000/svg">
<path d="M0 255.5L4 250V384L0 379.5V255.5Z" fill="#202333" fill-opacity="0.25"/>
<path d="M29 1L5 25V403L29 427" stroke="#202333" stroke-opacity="0.25" stroke-width="2"/>
<path d="M17.2803 47.6875C17.7327 47.6875 18.1348 47.7396 18.4863 47.8437C18.8346 47.9479 19.1276 48.0977 19.3652 48.293C19.6061 48.4883 19.7884 48.7275 19.9121 49.0107C20.0358 49.2939 20.0977 49.6178 20.0977 49.9824C20.0977 50.3437 20.0374 50.6676 19.917 50.9541C19.7933 51.2406 19.6094 51.4831 19.3652 51.6816C19.1276 51.8802 18.8346 52.0316 18.4863 52.1357C18.1348 52.2399 17.7327 52.292 17.2803 52.292L15.6152 52.292C15.1628 52.292 14.7624 52.2399 14.4141 52.1357C14.0625 52.0316 13.7663 51.8802 13.5254 51.6816C13.2845 51.4863 13.1022 51.2471 12.9785 50.9639C12.8516 50.6774 12.7881 50.3535 12.7881 49.9922C12.7881 49.6276 12.8516 49.3037 12.9785 49.0205C13.1022 48.734 13.2845 48.4915 13.5254 48.293C13.7663 48.0977 14.0625 47.9479 14.4141 47.8437C14.7624 47.7396 15.1628 47.6875 15.6152 47.6875L17.2803 47.6875ZM17.0996 51.3838L14.9756 48.6152C14.7412 48.6413 14.5345 48.6885 14.3555 48.7568C14.1732 48.8219 14.0218 48.9115 13.9014 49.0254C13.7777 49.1361 13.6849 49.2728 13.623 49.4355C13.5612 49.5951 13.5303 49.7806 13.5303 49.9922C13.5303 50.207 13.5645 50.3975 13.6328 50.5635C13.6979 50.7262 13.7939 50.8646 13.9209 50.9785C14.0804 51.1152 14.2871 51.2178 14.541 51.2861C14.7917 51.3512 15.083 51.3838 15.415 51.3838L16.6064 51.3838C16.6878 51.3838 16.7692 51.3838 16.8506 51.3838C16.932 51.3838 17.015 51.3838 17.0996 51.3838ZM17.4707 48.5957L16.4648 48.5957C16.416 48.5957 16.3232 48.5957 16.1865 48.5957C16.0465 48.5957 15.931 48.5957 15.8398 48.5957L17.9541 51.3594C18.1917 51.3301 18.4017 51.278 18.584 51.2031C18.763 51.1283 18.9111 51.0306 19.0283 50.9102C19.139 50.7995 19.2236 50.666 19.2822 50.5098C19.3376 50.3535 19.3652 50.1777 19.3652 49.9824C19.3652 49.7773 19.3343 49.5951 19.2725 49.4355C19.2106 49.276 19.1211 49.141 19.0039 49.0303C18.8444 48.8805 18.6361 48.7715 18.3789 48.7031C18.1217 48.6315 17.819 48.5957 17.4707 48.5957ZM19.4141 44.5723C19.222 44.5723 19.0576 44.5137 18.9209 44.3965C18.7842 44.2793 18.7158 44.1019 18.7158 43.8643C18.7158 43.6299 18.7842 43.4525 18.9209 43.332C19.0544 43.2083 19.2187 43.1465 19.4141 43.1465C19.6061 43.1465 19.7673 43.2083 19.8975 43.332C20.0277 43.4557 20.0928 43.6331 20.0928 43.8643C20.0928 44.0986 20.0277 44.276 19.8975 44.3965C19.764 44.5137 19.6029 44.5723 19.4141 44.5723ZM12.8857 36.8086L13.6963 36.8086L13.6963 36.8867C13.6963 37.3164 13.7581 37.681 13.8818 37.9805C14.0023 38.2799 14.165 38.5273 14.3701 38.7227C14.585 38.9277 14.8405 39.084 15.1367 39.1914C15.4329 39.2956 15.7373 39.3574 16.0498 39.377C15.9489 39.2923 15.8561 39.1947 15.7715 39.084C15.6836 38.9733 15.6071 38.8529 15.542 38.7227C15.4801 38.5957 15.4313 38.459 15.3955 38.3125C15.3564 38.1628 15.3369 38.0065 15.3369 37.8437C15.3369 37.4889 15.4053 37.1829 15.542 36.9258C15.6755 36.6686 15.8529 36.457 16.0742 36.291C16.2956 36.125 16.5462 36.0029 16.8262 35.9248C17.1061 35.8467 17.3909 35.8076 17.6807 35.8076C18.0127 35.8076 18.3252 35.8548 18.6182 35.9492C18.9111 36.0404 19.1667 36.1787 19.3848 36.3643C19.6061 36.5498 19.7803 36.7809 19.9072 37.0576C20.0342 37.3311 20.0977 37.6484 20.0977 38.0098C20.0977 38.3743 20.0244 38.695 19.8779 38.9717C19.7314 39.2484 19.541 39.4811 19.3066 39.6699C19.0495 39.8815 18.75 40.0394 18.4082 40.1436C18.0632 40.2477 17.7181 40.2998 17.373 40.2998L16.9482 40.2998C16.3558 40.2998 15.7731 40.2298 15.2002 40.0898C14.6273 39.9499 14.1374 39.6764 13.7305 39.2695C13.4505 38.9896 13.2406 38.6494 13.1006 38.249C12.9574 37.8486 12.8857 37.3945 12.8857 36.8867L12.8857 36.8086ZM16.0889 37.9902C16.0889 38.1432 16.1133 38.2913 16.1621 38.4346C16.2109 38.5778 16.2793 38.7113 16.3672 38.835C16.4551 38.9587 16.5609 39.0677 16.6846 39.1621C16.8083 39.2565 16.945 39.3314 17.0947 39.3867L17.3975 39.3867C17.71 39.3867 17.9883 39.3493 18.2324 39.2744C18.4733 39.1995 18.6768 39.0986 18.8428 38.9717C19.0088 38.8447 19.1357 38.6982 19.2236 38.5322C19.3083 38.3662 19.3506 38.1921 19.3506 38.0098C19.3506 37.7982 19.3099 37.611 19.2285 37.4482C19.1471 37.2855 19.0348 37.1471 18.8916 37.0332C18.7484 36.9225 18.5775 36.8395 18.3789 36.7842C18.1771 36.7256 17.959 36.6963 17.7246 36.6963C17.5163 36.6963 17.3145 36.7223 17.1191 36.7744C16.9206 36.8265 16.7448 36.9062 16.5918 37.0137C16.4388 37.1211 16.3167 37.2562 16.2256 37.4189C16.1344 37.5817 16.0889 37.7721 16.0889 37.9902ZM17.6123 30.4707L17.6123 29.4795L18.3496 29.4795L18.3496 30.4707L20 30.4707L20 31.374L18.3496 31.374L18.3496 34.6162L17.8174 34.6162L12.8906 31.4326L12.8906 30.4707L17.6123 30.4707ZM17.6123 33.6152L17.6123 31.374L14.0918 31.374L14.3652 31.5205L17.6123 33.6152Z" fill="#202333" fill-opacity="0.25"/>
</svg>
